Onest-Thin.ufo
<glyph name="exclam" format="2">
  <advance width="244"/>
  <unicode hex="0021"/>
  <outline>
    <contour>
      <point x="123" y="72" type="curve" smooth="yes"/>
      <point x="144" y="72"/>
      <point x="162" y="58"/>
      <point x="162" y="31" type="curve" smooth="yes"/>
      <point x="162" y="7"/>
      <point x="146" y="-8"/>
      <point x="123" y="-8" type="curve" smooth="yes"/>
      <point x="98" y="-8"/>
      <point x="82" y="8"/>
      <point x="82" y="32" type="curve" smooth="yes"/>
      <point x="82" y="57"/>
      <point x="98" y="72"/>
    </contour>
    <contour>
      <point x="104" y="177" type="line"/>
      <point x="102" y="707" type="line"/>
      <point x="143" y="707" type="line"/>
      <point x="141" y="177" type="line"/>
    </contour>
  </outline>
</glyph>
<glyph name="quotedbl" format="2">
  <advance width="299"/>
  <unicode hex="0022"/>
  <outline>
    <contour>
      <point x="104" y="503" type="line"/>
      <point x="69" y="503" type="line"/>
      <point x="63" y="707" type="line"/>
      <point x="109" y="707" type="line"/>
    </contour>
    <contour>
      <point x="231" y="503" type="line"/>
      <point x="196" y="503" type="line"/>
      <point x="189" y="707" type="line"/>
      <point x="236" y="707" type="line"/>
    </contour>
  </outline>
</glyph>
<glyph name="numbersign" format="2">
  <advance width="650"/>
  <unicode hex="0023"/>
  <outline>
    <contour>
      <point x="65" y="229" type="line"/>
      <point x="173" y="229" type="line"/>
      <point x="200" y="479" type="line"/>
      <point x="96" y="479" type="line"/>
      <point x="96" y="514" type="line"/>
      <point x="203" y="514" type="line"/>
      <point x="223" y="707" type="line"/>
      <point x="265" y="707" type="line"/>
      <point x="245" y="514" type="line"/>
      <point x="440" y="514" type="line"/>
      <point x="460" y="707" type="line"/>
      <point x="501" y="707" type="line"/>
      <point x="480" y="514" type="line"/>
      <point x="585" y="514" type="line"/>
      <point x="585" y="479" type="line"/>
      <point x="476" y="479" type="line"/>
      <point x="449" y="229" type="line"/>
      <point x="554" y="229" type="line"/>
      <point x="554" y="194" type="line"/>
      <point x="446" y="194" type="line"/>
      <point x="425" y="0" type="line"/>
      <point x="385" y="0" type="line"/>
      <point x="405" y="194" type="line"/>
      <point x="210" y="194" type="line"/>
      <point x="188" y="0" type="line"/>
      <point x="147" y="0" type="line"/>
      <point x="169" y="194" type="line"/>
      <point x="65" y="194" type="line"/>
    </contour>
    <contour>
      <point x="214" y="229" type="line"/>
      <point x="410" y="229" type="line"/>
      <point x="436" y="479" type="line"/>
      <point x="240" y="479" type="line"/>
    </contour>
  </outline>
</glyph>
<glyph name="dollar" format="2">
  <advance width="647"/>
  <unicode hex="0024"/>
  <outline>
    <contour>
      <point x="313" y="852" type="line"/>
      <point x="356" y="852" type="line"/>
      <point x="356" y="714" type="line"/>
      <point x="459" y="711"/>
      <point x="539" y="659"/>
      <point x="558" y="562" type="curve"/>
      <point x="515" y="562" type="line"/>
      <point x="494" y="650"/>
      <point x="411" y="679"/>
      <point x="326" y="679" type="curve" smooth="yes"/>
      <point x="234" y="679"/>
      <point x="131" y="649"/>
      <point x="131" y="536" type="curve" smooth="yes"/>
      <point x="131" y="446"/>
      <point x="191" y="413"/>
      <point x="268" y="392" type="curve" smooth="yes"/>
      <point x="324" y="377"/>
      <point x="379" y="366"/>
      <point x="434" y="350" type="curve" smooth="yes"/>
      <point x="513" y="326"/>
      <point x="581" y="272"/>
      <point x="581" y="186" type="curve" smooth="yes"/>
      <point x="581" y="46"/>
      <point x="474" y="-3"/>
      <point x="350" y="-8" type="curve"/>
      <point x="350" y="-146" type="line"/>
      <point x="308" y="-146" type="line"/>
      <point x="308" y="-8" type="line"/>
      <point x="197" y="0"/>
      <point x="100" y="44"/>
      <point x="65" y="149" type="curve"/>
      <point x="112" y="149" type="line"/>
      <point x="152" y="56"/>
      <point x="245" y="32"/>
      <point x="338" y="32" type="curve" smooth="yes"/>
      <point x="430" y="32"/>
      <point x="536" y="69"/>
      <point x="536" y="176" type="curve" smooth="yes"/>
      <point x="536" y="261"/>
      <point x="471" y="298"/>
      <point x="397" y="317" type="curve" smooth="yes"/>
      <point x="341" y="331"/>
      <point x="296" y="343"/>
      <point x="240" y="357" type="curve" smooth="yes"/>
      <point x="152" y="379"/>
      <point x="85" y="436"/>
      <point x="85" y="530" type="curve" smooth="yes"/>
      <point x="85" y="659"/>
      <point x="192" y="718"/>
      <point x="313" y="715" type="curve"/>
    </contour>
  </outline>
</glyph>
<glyph name="percent" format="2">
  <advance width="789"/>
  <unicode hex="0025"/>
  <outline>
    <contour>
      <point x="152" y="0" type="line"/>
      <point x="588" y="707" type="line"/>
      <point x="636" y="707" type="line"/>
      <point x="201" y="0" type="line"/>
    </contour>
    <contour>
      <point x="194" y="429" type="curve" smooth="yes"/>
      <point x="110" y="429"/>
      <point x="65" y="489"/>
      <point x="65" y="572" type="curve" smooth="yes"/>
      <point x="65" y="655"/>
      <point x="109" y="715"/>
      <point x="196" y="715" type="curve" smooth="yes"/>
      <point x="281" y="715"/>
      <point x="324" y="647"/>
      <point x="324" y="572" type="curve" smooth="yes"/>
      <point x="324" y="495"/>
      <point x="278" y="429"/>
    </contour>
    <contour>
      <point x="196" y="680" type="curve" smooth="yes"/>
      <point x="128" y="680"/>
      <point x="103" y="628"/>
      <point x="103" y="572" type="curve" smooth="yes"/>
      <point x="103" y="516"/>
      <point x="128" y="464"/>
      <point x="196" y="464" type="curve" smooth="yes"/>
      <point x="265" y="464"/>
      <point x="285" y="520"/>
      <point x="285" y="572" type="curve" smooth="yes"/>
      <point x="285" y="622"/>
      <point x="265" y="680"/>
    </contour>
    <contour>
      <point x="593" y="-8" type="curve" smooth="yes"/>
      <point x="509" y="-8"/>
      <point x="464" y="52"/>
      <point x="464" y="135" type="curve" smooth="yes"/>
      <point x="464" y="218"/>
      <point x="508" y="278"/>
      <point x="595" y="278" type="curve" smooth="yes"/>
      <point x="680" y="278"/>
      <point x="723" y="210"/>
      <point x="723" y="135" type="curve" smooth="yes"/>
      <point x="723" y="58"/>
      <point x="677" y="-8"/>
    </contour>
    <contour>
      <point x="595" y="243" type="curve" smooth="yes"/>
      <point x="527" y="243"/>
      <point x="502" y="191"/>
      <point x="502" y="135" type="curve" smooth="yes"/>
      <point x="502" y="79"/>
      <point x="527" y="27"/>
      <point x="595" y="27" type="curve" smooth="yes"/>
      <point x="664" y="27"/>
      <point x="684" y="83"/>
      <point x="684" y="135" type="curve" smooth="yes"/>
      <point x="684" y="185"/>
      <point x="664" y="243"/>
    </contour>
  </outline>
</glyph>
<glyph name="ampersand" format="2">
  <advance width="650"/>
  <unicode hex="0026"/>
  <outline>
    <contour>
      <point x="495" y="76" type="line"/>
      <point x="427" y="12"/>
      <point x="358" y="-8"/>
      <point x="278" y="-8" type="curve" smooth="yes"/>
      <point x="165" y="-8"/>
      <point x="73" y="53"/>
      <point x="73" y="172" type="curve" smooth="yes"/>
      <point x="73" y="269"/>
      <point x="147" y="336"/>
      <point x="235" y="381" type="curve"/>
      <point x="188" y="428"/>
      <point x="146" y="487"/>
      <point x="146" y="554" type="curve" smooth="yes"/>
      <point x="146" y="658"/>
      <point x="213" y="715"/>
      <point x="317" y="715" type="curve" smooth="yes"/>
      <point x="403" y="715"/>
      <point x="469" y="660"/>
      <point x="469" y="572" type="curve" smooth="yes"/>
      <point x="469" y="481"/>
      <point x="393" y="418"/>
      <point x="294" y="370" type="curve"/>
      <point x="494" y="137" type="line"/>
      <point x="531" y="188"/>
      <point x="552" y="234"/>
      <point x="561" y="285" type="curve"/>
      <point x="602" y="285" type="line"/>
      <point x="591" y="222"/>
      <point x="559" y="154"/>
      <point x="523" y="109" type="curve"/>
      <point x="620" y="0" type="line"/>
      <point x="564" y="0" type="line"/>
    </contour>
    <contour>
      <point x="271" y="397" type="curve"/>
      <point x="336" y="432"/>
      <point x="432" y="484"/>
      <point x="432" y="568" type="curve" smooth="yes"/>
      <point x="432" y="635"/>
      <point x="379" y="679"/>
      <point x="315" y="679" type="curve"/>
      <point x="236" y="680"/>
      <point x="187" y="635"/>
      <point x="187" y="558" type="curve" smooth="yes"/>
      <point x="187" y="493"/>
      <point x="234" y="436"/>
    </contour>
    <contour>
      <point x="259" y="352" type="line"/>
      <point x="186" y="314"/>
      <point x="119" y="257"/>
      <point x="119" y="174" type="curve" smooth="yes"/>
      <point x="119" y="77"/>
      <point x="194" y="29"/>
      <point x="281" y="29" type="curve" smooth="yes"/>
      <point x="348" y="29"/>
      <point x="422" y="54"/>
      <point x="469" y="106" type="curve"/>
    </contour>
  </outline>
</glyph>
<glyph name="quotesingle" format="2">
  <advance width="172"/>
  <unicode hex="0027"/>
  <outline>
    <contour>
      <point x="104" y="503" type="line"/>
      <point x="69" y="503" type="line"/>
      <point x="63" y="707" type="line"/>
      <point x="109" y="707" type="line"/>
    </contour>
  </outline>
</glyph>
<glyph name="parenleft" format="2">
  <advance width="267"/>
  <unicode hex="0028"/>
  <outline>
    <contour>
      <point x="243" y="-225" type="line"/>
      <point x="130" y="-64"/>
      <point x="71" y="111"/>
      <point x="71" y="300" type="curve" smooth="yes"/>
      <point x="71" y="395"/>
      <point x="86" y="488"/>
      <point x="117" y="579" type="curve" smooth="yes"/>
      <point x="148" y="670"/>
      <point x="191" y="751"/>
      <point x="247" y="824" type="curve"/>
      <point x="292" y="824" type="line"/>
      <point x="178" y="667"/>
      <point x="113" y="505"/>
      <point x="113" y="300" type="curve" smooth="yes"/>
      <point x="113" y="97"/>
      <point x="181" y="-64"/>
      <point x="293" y="-225" type="curve"/>
    </contour>
  </outline>
</glyph>
<glyph name="parenright" format="2">
  <advance width="267"/>
  <unicode hex="0029"/>
  <outline>
    <contour>
      <point x="24" y="824" type="line"/>
      <point x="137" y="663"/>
      <point x="195" y="488"/>
      <point x="196" y="299" type="curve" smooth="yes"/>
      <point x="196" y="205"/>
      <point x="181" y="112"/>
      <point x="151" y="21" type="curve" smooth="yes"/>
      <point x="120" y="-71"/>
      <point x="77" y="-152"/>
      <point x="21" y="-225" type="curve"/>
      <point x="-26" y="-225" type="line"/>
      <point x="89" y="-67"/>
      <point x="154" y="93"/>
      <point x="154" y="299" type="curve" smooth="yes"/>
      <point x="154" y="500"/>
      <point x="88" y="664"/>
      <point x="-25" y="824" type="curve"/>
    </contour>
  </outline>
</glyph>
<glyph name="asterisk" format="2">
  <advance width="404"/>
  <unicode hex="002A"/>
  <outline>
    <contour>
      <point x="218" y="629" type="line"/>
      <point x="321" y="663" type="line"/>
      <point x="331" y="635" type="line"/>
      <point x="227" y="602" type="line"/>
      <point x="292" y="513" type="line"/>
      <point x="267" y="497" type="line"/>
      <point x="202" y="586" type="line"/>
      <point x="137" y="497" type="line"/>
      <point x="112" y="513" type="line"/>
      <point x="178" y="603" type="line"/>
      <point x="73" y="635" type="line"/>
      <point x="82" y="663" type="line"/>
      <point x="187" y="629" type="line"/>
      <point x="187" y="739" type="line"/>
      <point x="218" y="739" type="line"/>
    </contour>
  </outline>
</glyph>
<glyph name="plus" format="2">
  <advance width="508"/>
  <unicode hex="002B"/>
  <outline>
    <contour>
      <point x="274" y="536" type="line"/>
      <point x="274" y="374" type="line"/>
      <point x="428" y="374" type="line"/>
      <point x="428" y="336" type="line"/>
      <point x="274" y="336" type="line"/>
      <point x="274" y="171" type="line"/>
      <point x="231" y="171" type="line"/>
      <point x="231" y="336" type="line"/>
      <point x="80" y="336" type="line"/>
      <point x="80" y="374" type="line"/>
      <point x="231" y="374" type="line"/>
      <point x="231" y="536" type="line"/>
    </contour>
  </outline>
</glyph>
<glyph name="hyphen" format="2">
  <advance width="440"/>
  <unicode hex="002D"/>
  <outline>
    <contour>
      <point x="80" y="297" type="line"/>
      <point x="360" y="297" type="line"/>
      <point x="360" y="260" type="line"/>
      <point x="80" y="260" type="line"/>
    </contour>
  </outline>
</glyph>
<glyph name="period" format="2">
  <advance width="226"/>
  <unicode hex="002E"/>
  <outline>
    <contour>
      <point x="113" y="73" type="curve" smooth="yes"/>
      <point x="137" y="73"/>
      <point x="153" y="57"/>
      <point x="153" y="33" type="curve" smooth="yes"/>
      <point x="153" y="10"/>
      <point x="138" y="-8"/>
      <point x="113" y="-8" type="curve" smooth="yes"/>
      <point x="88" y="-8"/>
      <point x="73" y="10"/>
      <point x="73" y="33" type="curve" smooth="yes"/>
      <point x="73" y="57"/>
      <point x="89" y="73"/>
    </contour>
  </outline>
</glyph>
<glyph name="slash" format="2">
  <advance width="440"/>
  <unicode hex="002F"/>
  <outline>
    <contour>
      <point x="354" y="807" type="line"/>
      <point x="401" y="807" type="line"/>
      <point x="86" y="-178" type="line"/>
      <point x="39" y="-178" type="line"/>
    </contour>
  </outline>
</glyph>
<glyph name="one" format="2">
  <advance width="328"/>
  <unicode hex="0031"/>
  <outline>
    <contour>
      <point x="215" y="0" type="line"/>
      <point x="172" y="0" type="line"/>
      <point x="172" y="602" type="line"/>
      <point x="29" y="602" type="line"/>
      <point x="29" y="631" type="line"/>
      <point x="124" y="631"/>
      <point x="173" y="634"/>
      <point x="183" y="707" type="curve"/>
      <point x="215" y="707" type="line"/>
    </contour>
  </outline>
</glyph>
<glyph name="two" format="2">
  <advance width="560"/>
  <unicode hex="0032"/>
  <outline>
    <contour>
      <point x="452" y="518" type="curve" smooth="yes"/>
      <point x="452" y="624"/>
      <point x="377" y="679"/>
      <point x="278" y="679" type="curve" smooth="yes"/>
      <point x="210" y="679"/>
      <point x="138" y="656"/>
      <point x="111" y="591" type="curve"/>
      <point x="62" y="591" type="line"/>
      <point x="95" y="676"/>
      <point x="174" y="715"/>
      <point x="282" y="715" type="curve" smooth="yes"/>
      <point x="406" y="715"/>
      <point x="496" y="648"/>
      <point x="496" y="520" type="curve" smooth="yes"/>
      <point x="496" y="394"/>
      <point x="408" y="317"/>
      <point x="317" y="234" type="curve" smooth="yes"/>
      <point x="100" y="38" type="line"/>
      <point x="504" y="38" type="line"/>
      <point x="504" y="0" type="line"/>
      <point x="36" y="0" type="line"/>
      <point x="36" y="35" type="line"/>
      <point x="267" y="243" type="line" smooth="yes"/>
      <point x="348" y="316"/>
      <point x="452" y="404"/>
    </contour>
  </outline>
</glyph>
<glyph name="three" format="2">
  <advance width="589"/>
  <unicode hex="0033"/>
  <outline>
    <contour>
      <point x="85" y="121" type="line"/>
      <point x="114" y="46"/>
      <point x="207" y="28"/>
      <point x="279" y="28" type="curve" smooth="yes"/>
      <point x="377" y="28"/>
      <point x="481" y="69"/>
      <point x="481" y="188" type="curve" smooth="yes"/>
      <point x="481" y="320"/>
      <point x="368" y="342"/>
      <point x="262" y="342" type="curve" smooth="yes"/>
      <point x="191" y="342" type="line"/>
      <point x="191" y="379" type="line"/>
      <point x="242" y="379" type="line" smooth="yes"/>
      <point x="333" y="379"/>
      <point x="452" y="422"/>
      <point x="452" y="537" type="curve" smooth="yes"/>
      <point x="452" y="641"/>
      <point x="369" y="679"/>
      <point x="278" y="679" type="curve" smooth="yes"/>
      <point x="206" y="679"/>
      <point x="129" y="660"/>
      <point x="105" y="588" type="curve"/>
      <point x="59" y="588" type="line"/>
      <point x="83" y="697"/>
      <point x="196" y="715"/>
      <point x="279" y="715" type="curve" smooth="yes"/>
      <point x="388" y="715"/>
      <point x="493" y="670"/>
      <point x="493" y="545" type="curve" smooth="yes"/>
      <point x="493" y="472"/>
      <point x="455" y="392"/>
      <point x="354" y="368" type="curve"/>
      <point x="468" y="360"/>
      <point x="526" y="280"/>
      <point x="526" y="188" type="curve" smooth="yes"/>
      <point x="526" y="44"/>
      <point x="405" y="-8"/>
      <point x="278" y="-8" type="curve" smooth="yes"/>
      <point x="178" y="-8"/>
      <point x="66" y="21"/>
      <point x="39" y="121" type="curve"/>
    </contour>
  </outline>
</glyph>
<glyph name="four" format="2">
  <advance width="613"/>
  <unicode hex="0034"/>
  <outline>
    <contour>
      <point x="415" y="707" type="line"/>
      <point x="479" y="707" type="line"/>
      <point x="479" y="189" type="line"/>
      <point x="570" y="189" type="line"/>
      <point x="570" y="151" type="line"/>
      <point x="479" y="151" type="line"/>
      <point x="479" y="0" type="line"/>
      <point x="437" y="0" type="line"/>
      <point x="437" y="151" type="line"/>
      <point x="43" y="151" type="line"/>
      <point x="43" y="190" type="line"/>
    </contour>
    <contour>
      <point x="437" y="189" type="line"/>
      <point x="437" y="671" type="line"/>
      <point x="90" y="189" type="line"/>
    </contour>
  </outline>
</glyph>
<glyph name="five" format="2">
  <advance width="605"/>
  <unicode hex="0035"/>
  <outline>
    <contour>
      <point x="82" y="316" type="line"/>
      <point x="116" y="707" type="line"/>
      <point x="518" y="707" type="line"/>
      <point x="518" y="669" type="line"/>
      <point x="154" y="669" type="line"/>
      <point x="126" y="357" type="line"/>
      <point x="182" y="417"/>
      <point x="252" y="437"/>
      <point x="321" y="437" type="curve" smooth="yes"/>
      <point x="452" y="437"/>
      <point x="545" y="351"/>
      <point x="545" y="220" type="curve" smooth="yes"/>
      <point x="545" y="66"/>
      <point x="433" y="-8"/>
      <point x="299" y="-8" type="curve" smooth="yes"/>
      <point x="228" y="-8"/>
      <point x="103" y="14"/>
      <point x="68" y="123" type="curve"/>
      <point x="115" y="123" type="line"/>
      <point x="147" y="53"/>
      <point x="229" y="28"/>
      <point x="296" y="28" type="curve" smooth="yes"/>
      <point x="412" y="28"/>
      <point x="500" y="89"/>
      <point x="500" y="214" type="curve" smooth="yes"/>
      <point x="500" y="335"/>
      <point x="431" y="400"/>
      <point x="314" y="400" type="curve" smooth="yes"/>
      <point x="240" y="400"/>
      <point x="173" y="358"/>
      <point x="138" y="316" type="curve"/>
    </contour>
  </outline>
</glyph>
<glyph name="six" format="2">
  <advance width="620"/>
  <unicode hex="0036"/>
  <outline>
    <contour>
      <point x="335" y="436" type="curve" smooth="yes"/>
      <point x="460" y="436"/>
      <point x="560" y="347"/>
      <point x="560" y="219" type="curve" smooth="yes"/>
      <point x="560" y="70"/>
      <point x="457" y="-8"/>
      <point x="328" y="-8" type="curve" smooth="yes"/>
      <point x="129" y="-8"/>
      <point x="66" y="166"/>
      <point x="66" y="334" type="curve" smooth="yes"/>
      <point x="66" y="522"/>
      <point x="131" y="715"/>
      <point x="343" y="715" type="curve" smooth="yes"/>
      <point x="430" y="715"/>
      <point x="503" y="675"/>
      <point x="542" y="599" type="curve"/>
      <point x="496" y="599" type="line"/>
      <point x="463" y="652"/>
      <point x="401" y="679"/>
      <point x="341" y="679" type="curve" smooth="yes"/>
      <point x="132" y="679"/>
      <point x="105" y="444"/>
      <point x="109" y="295" type="curve"/>
      <point x="157" y="405"/>
      <point x="249" y="436"/>
    </contour>
    <contour>
      <point x="518" y="210" type="curve" smooth="yes"/>
      <point x="518" y="322"/>
      <point x="442" y="398"/>
      <point x="331" y="398" type="curve" smooth="yes"/>
      <point x="234" y="398"/>
      <point x="131" y="332"/>
      <point x="133" y="212" type="curve" smooth="yes"/>
      <point x="134" y="103"/>
      <point x="224" y="28"/>
      <point x="327" y="28" type="curve" smooth="yes"/>
      <point x="444" y="28"/>
      <point x="518" y="108"/>
    </contour>
  </outline>
</glyph>
<glyph name="seven" format="2">
  <advance width="498"/>
  <unicode hex="0037"/>
  <outline>
    <contour>
      <point x="121" y="0" type="line"/>
      <point x="424" y="669" type="line"/>
      <point x="18" y="669" type="line"/>
      <point x="18" y="707" type="line"/>
      <point x="470" y="707" type="line"/>
      <point x="470" y="665" type="line"/>
      <point x="169" y="0" type="line"/>
    </contour>
  </outline>
</glyph>
<glyph name="eight" format="2">
  <advance width="608"/>
  <unicode hex="0038"/>
  <outline>
    <contour>
      <point x="547" y="187" type="curve" smooth="yes"/>
      <point x="547" y="46"/>
      <point x="430" y="-8"/>
      <point x="303" y="-8" type="curve" smooth="yes"/>
      <point x="176" y="-8"/>
      <point x="61" y="44"/>
      <point x="61" y="187" type="curve" smooth="yes"/>
      <point x="61" y="270"/>
      <point x="118" y="353"/>
      <point x="216" y="364" type="curve"/>
      <point x="132" y="385"/>
      <point x="89" y="452"/>
      <point x="89" y="535" type="curve" smooth="yes"/>
      <point x="90" y="660"/>
      <point x="193" y="715"/>
      <point x="305" y="715" type="curve" smooth="yes"/>
      <point x="415" y="715"/>
      <point x="520" y="656"/>
      <point x="520" y="535" type="curve" smooth="yes"/>
      <point x="520" y="452"/>
      <point x="478" y="390"/>
      <point x="387" y="366" type="curve"/>
      <point x="494" y="353"/>
      <point x="547" y="270"/>
    </contour>
    <contour>
      <point x="305" y="679" type="curve" smooth="yes"/>
      <point x="217" y="679"/>
      <point x="128" y="638"/>
      <point x="128" y="531" type="curve" smooth="yes"/>
      <point x="128" y="426"/>
      <point x="218" y="381"/>
      <point x="306" y="381" type="curve" smooth="yes"/>
      <point x="383" y="381"/>
      <point x="481" y="428"/>
      <point x="481" y="527" type="curve" smooth="yes"/>
      <point x="481" y="636"/>
      <point x="394" y="679"/>
    </contour>
    <contour>
      <point x="305" y="346" type="curve" smooth="yes"/>
      <point x="208" y="346"/>
      <point x="102" y="301"/>
      <point x="102" y="185" type="curve" smooth="yes"/>
      <point x="102" y="68"/>
      <point x="205" y="28"/>
      <point x="305" y="28" type="curve" smooth="yes"/>
      <point x="403" y="28"/>
      <point x="505" y="68"/>
      <point x="505" y="185" type="curve" smooth="yes"/>
      <point x="505" y="301"/>
      <point x="400" y="346"/>
    </contour>
  </outline>
</glyph>
<glyph name="nine" format="2">
  <advance width="617"/>
  <unicode hex="0039"/>
  <outline>
    <contour>
      <point x="282" y="273" type="curve" smooth="yes"/>
      <point x="161" y="273"/>
      <point x="64" y="351"/>
      <point x="64" y="489" type="curve" smooth="yes"/>
      <point x="64" y="628"/>
      <point x="159" y="715"/>
      <point x="295" y="715" type="curve" smooth="yes"/>
      <point x="504" y="715"/>
      <point x="553" y="507"/>
      <point x="553" y="339" type="curve" smooth="yes"/>
      <point x="553" y="159"/>
      <point x="499" y="-8"/>
      <point x="290" y="-8" type="curve" smooth="yes"/>
      <point x="205" y="-8"/>
      <point x="115" y="25"/>
      <point x="80" y="108" type="curve"/>
      <point x="128" y="108" type="line"/>
      <point x="160" y="52"/>
      <point x="228" y="28"/>
      <point x="291" y="28" type="curve" smooth="yes"/>
      <point x="480" y="28"/>
      <point x="512" y="211"/>
      <point x="512" y="354" type="curve" smooth="yes"/>
      <point x="512" y="371"/>
      <point x="511" y="391"/>
      <point x="507" y="426" type="curve"/>
      <point x="478" y="319"/>
      <point x="389" y="273"/>
    </contour>
    <contour>
      <point x="105" y="498" type="curve" smooth="yes"/>
      <point x="105" y="382"/>
      <point x="176" y="312"/>
      <point x="292" y="312" type="curve" smooth="yes"/>
      <point x="392" y="312"/>
      <point x="481" y="382"/>
      <point x="481" y="487" type="curve" smooth="yes"/>
      <point x="481" y="596"/>
      <point x="404" y="679"/>
      <point x="293" y="679" type="curve" smooth="yes"/>
      <point x="190" y="679"/>
      <point x="105" y="603"/>
    </contour>
  </outline>
</glyph>
<glyph name="colon" format="2">
  <advance width="226"/>
  <unicode hex="003A"/>
  <outline>
    <contour>
      <point x="113" y="450" type="curve" smooth="yes"/>
      <point x="138" y="450"/>
      <point x="153" y="433"/>
      <point x="153" y="409" type="curve" smooth="yes"/>
      <point x="153" y="385"/>
      <point x="140" y="368"/>
      <point x="113" y="368" type="curve" smooth="yes"/>
      <point x="86" y="368"/>
      <point x="73" y="385"/>
      <point x="73" y="409" type="curve" smooth="yes"/>
      <point x="73" y="433"/>
      <point x="88" y="450"/>
    </contour>
    <contour>
      <point x="113" y="73" type="curve" smooth="yes"/>
      <point x="138" y="73"/>
      <point x="153" y="56"/>
      <point x="153" y="32" type="curve" smooth="yes"/>
      <point x="153" y="9"/>
      <point x="138" y="-8"/>
      <point x="113" y="-8" type="curve" smooth="yes"/>
      <point x="88" y="-8"/>
      <point x="73" y="9"/>
      <point x="73" y="32" type="curve" smooth="yes"/>
      <point x="73" y="56"/>
      <point x="88" y="73"/>
    </contour>
  </outline>
</glyph>
<glyph name="less" format="2">
  <advance width="429"/>
  <unicode hex="003C"/>
  <outline>
    <contour>
      <point x="45" y="361" type="line"/>
      <point x="354" y="575" type="line"/>
      <point x="354" y="532" type="line"/>
      <point x="91" y="351" type="line"/>
      <point x="354" y="170" type="line"/>
      <point x="354" y="126" type="line"/>
      <point x="45" y="339" type="line"/>
    </contour>
  </outline>
</glyph>
<glyph name="equal" format="2">
  <advance width="529"/>
  <unicode hex="003D"/>
  <outline>
    <contour>
      <point x="75" y="240" type="line"/>
      <point x="454" y="240" type="line"/>
      <point x="454" y="203" type="line"/>
      <point x="75" y="203" type="line"/>
    </contour>
    <contour>
      <point x="75" y="495" type="line"/>
      <point x="454" y="495" type="line"/>
      <point x="454" y="458" type="line"/>
      <point x="75" y="458" type="line"/>
    </contour>
  </outline>
</glyph>
<glyph name="greater" format="2">
  <advance width="429"/>
  <unicode hex="003E"/>
  <outline>
    <contour>
      <point x="384" y="339" type="line"/>
      <point x="75" y="126" type="line"/>
      <point x="75" y="170" type="line"/>
      <point x="338" y="350" type="line"/>
      <point x="75" y="532" type="line"/>
      <point x="75" y="575" type="line"/>
      <point x="384" y="361" type="line"/>
    </contour>
  </outline>
</glyph>
<glyph name="question" format="2">
  <advance width="498"/>
  <unicode hex="003F"/>
  <outline>
    <contour>
      <point x="247" y="204" type="line"/>
      <point x="199" y="204" type="line"/>
      <point x="199" y="219" type="line" smooth="yes"/>
      <point x="199" y="287"/>
      <point x="248" y="337"/>
      <point x="295" y="381" type="curve" smooth="yes"/>
      <point x="340" y="423"/>
      <point x="395" y="481"/>
      <point x="395" y="546" type="curve" smooth="yes"/>
      <point x="395" y="634"/>
      <point x="324" y="679"/>
      <point x="244" y="679" type="curve" smooth="yes"/>
      <point x="182" y="679"/>
      <point x="112" y="655"/>
      <point x="91" y="594" type="curve"/>
      <point x="43" y="594" type="line"/>
      <point x="75" y="689"/>
      <point x="171" y="715"/>
      <point x="246" y="715" type="curve" smooth="yes"/>
      <point x="350" y="715"/>
      <point x="437" y="660"/>
      <point x="437" y="549" type="curve" smooth="yes"/>
      <point x="437" y="473"/>
      <point x="395" y="421"/>
      <point x="330" y="360" type="curve" smooth="yes"/>
      <point x="285" y="318"/>
      <point x="247" y="283"/>
      <point x="247" y="219" type="curve" smooth="yes"/>
    </contour>
    <contour>
      <point x="225" y="73" type="curve" smooth="yes"/>
      <point x="246" y="73"/>
      <point x="264" y="59"/>
      <point x="264" y="32" type="curve" smooth="yes"/>
      <point x="264" y="8"/>
      <point x="248" y="-7"/>
      <point x="225" y="-7" type="curve" smooth="yes"/>
      <point x="200" y="-7"/>
      <point x="184" y="9"/>
      <point x="184" y="33" type="curve" smooth="yes"/>
      <point x="184" y="58"/>
      <point x="200" y="73"/>
    </contour>
  </outline>
</glyph>
<glyph name="at" format="2">
  <advance width="1000"/>
  <unicode hex="0040"/>
  <outline>
    <contour>
      <point x="641" y="139" type="curve"/>
      <point x="596" y="59"/>
      <point x="529" y="41"/>
      <point x="472" y="41" type="curve" smooth="yes"/>
      <point x="360" y="41"/>
      <point x="308" y="127"/>
      <point x="308" y="231" type="curve" smooth="yes"/>
      <point x="308" y="355"/>
      <point x="375" y="471"/>
      <point x="509" y="471" type="curve" smooth="yes"/>
      <point x="557" y="471"/>
      <point x="622" y="453"/>
      <point x="652" y="380" type="curve"/>
      <point x="659" y="453" type="line"/>
      <point x="697" y="453" type="line"/>
      <point x="686" y="364"/>
      <point x="679" y="276"/>
      <point x="675" y="188" type="curve" smooth="yes"/>
      <point x="672" y="128"/>
      <point x="684" y="69"/>
      <point x="760" y="69" type="curve" smooth="yes"/>
      <point x="860" y="69"/>
      <point x="887" y="206"/>
      <point x="887" y="287" type="curve" smooth="yes"/>
      <point x="887" y="500"/>
      <point x="771" y="679"/>
      <point x="531" y="679" type="curve" smooth="yes"/>
      <point x="268" y="679"/>
      <point x="122" y="474"/>
      <point x="122" y="232" type="curve" smooth="yes"/>
      <point x="122" y="7"/>
      <point x="271" y="-146"/>
      <point x="504" y="-149" type="curve"/>
      <point x="535" y="-149"/>
      <point x="563" y="-149"/>
      <point x="592" y="-144" type="curve"/>
      <point x="593" y="-184" type="line"/>
      <point x="560" y="-189"/>
      <point x="520" y="-189"/>
      <point x="492" y="-188" type="curve" smooth="yes"/>
      <point x="244" y="-183"/>
      <point x="77" y="-22"/>
      <point x="76" y="231" type="curve" smooth="yes"/>
      <point x="75" y="504"/>
      <point x="248" y="715"/>
      <point x="532" y="715" type="curve" smooth="yes"/>
      <point x="781" y="715"/>
      <point x="925" y="534"/>
      <point x="925" y="294" type="curve" smooth="yes"/>
      <point x="925" y="169"/>
      <point x="887" y="36"/>
      <point x="757" y="36" type="curve" smooth="yes"/>
      <point x="698" y="36"/>
      <point x="646" y="61"/>
    </contour>
    <contour>
      <point x="345" y="233" type="curve" smooth="yes"/>
      <point x="345" y="150"/>
      <point x="385" y="76"/>
      <point x="479" y="76" type="curve" smooth="yes"/>
      <point x="578" y="76"/>
      <point x="644" y="176"/>
      <point x="644" y="267" type="curve" smooth="yes"/>
      <point x="644" y="352"/>
      <point x="606" y="437"/>
      <point x="506" y="437" type="curve" smooth="yes"/>
      <point x="395" y="437"/>
      <point x="345" y="329"/>
    </contour>
  </outline>
</glyph>
<glyph name="B" format="2">
  <advance width="651"/>
  <unicode hex="0042"/>
  <outline>
    <contour>
      <point x="92" y="707" type="line"/>
      <point x="331" y="707" type="line" smooth="yes"/>
      <point x="447" y="707"/>
      <point x="557" y="680"/>
      <point x="557" y="539" type="curve" smooth="yes"/>
      <point x="557" y="447"/>
      <point x="500" y="390"/>
      <point x="419" y="369" type="curve"/>
      <point x="523" y="361"/>
      <point x="596" y="294"/>
      <point x="596" y="190" type="curve" smooth="yes"/>
      <point x="596" y="34"/>
      <point x="454" y="0"/>
      <point x="325" y="0" type="curve" smooth="yes"/>
      <point x="92" y="0" type="line"/>
    </contour>
    <contour>
      <point x="134" y="669" type="line"/>
      <point x="134" y="380" type="line"/>
      <point x="298" y="380" type="line" smooth="yes"/>
      <point x="397" y="380"/>
      <point x="518" y="415"/>
      <point x="518" y="535" type="curve" smooth="yes"/>
      <point x="518" y="652"/>
      <point x="428" y="669"/>
      <point x="332" y="669" type="curve" smooth="yes"/>
    </contour>
    <contour>
      <point x="322" y="38" type="line" smooth="yes"/>
      <point x="427" y="38"/>
      <point x="554" y="50"/>
      <point x="554" y="190" type="curve" smooth="yes"/>
      <point x="554" y="312"/>
      <point x="445" y="343"/>
      <point x="344" y="343" type="curve" smooth="yes"/>
      <point x="134" y="343" type="line"/>
      <point x="134" y="38" type="line"/>
    </contour>
  </outline>
</glyph>
<glyph name="D" format="2">
  <advance width="720"/>
  <unicode hex="0044"/>
  <outline>
    <contour>
      <point x="93" y="707" type="line"/>
      <point x="336" y="707" type="line" smooth="yes"/>
      <point x="554" y="707"/>
      <point x="665" y="565"/>
      <point x="665" y="353" type="curve" smooth="yes"/>
      <point x="665" y="145"/>
      <point x="552" y="0"/>
      <point x="336" y="0" type="curve" smooth="yes"/>
      <point x="93" y="0" type="line"/>
    </contour>
    <contour>
      <point x="135" y="669" type="line"/>
      <point x="135" y="38" type="line"/>
      <point x="328" y="38" type="line" smooth="yes"/>
      <point x="522" y="38"/>
      <point x="621" y="166"/>
      <point x="621" y="353" type="curve" smooth="yes"/>
      <point x="621" y="535"/>
      <point x="528" y="669"/>
      <point x="335" y="669" type="curve" smooth="yes"/>
    </contour>
  </outline>
</glyph>
<glyph name="E" format="2">
  <advance width="603"/>
  <unicode hex="0045"/>
  <outline>
    <contour>
      <point x="93" y="707" type="line"/>
      <point x="549" y="707" type="line"/>
      <point x="549" y="669" type="line"/>
      <point x="135" y="669" type="line"/>
      <point x="135" y="370" type="line"/>
      <point x="507" y="370" type="line"/>
      <point x="507" y="332" type="line"/>
      <point x="135" y="332" type="line"/>
      <point x="135" y="38" type="line"/>
      <point x="549" y="38" type="line"/>
      <point x="549" y="0" type="line"/>
      <point x="93" y="0" type="line"/>
    </contour>
  </outline>
</glyph>
<glyph name="F" format="2">
  <advance width="592"/>
  <unicode hex="0046"/>
  <outline>
    <contour>
      <point x="93" y="0" type="line"/>
      <point x="93" y="707" type="line"/>
      <point x="549" y="707" type="line"/>
      <point x="549" y="669" type="line"/>
      <point x="135" y="669" type="line"/>
      <point x="135" y="346" type="line"/>
      <point x="489" y="346" type="line"/>
      <point x="489" y="309" type="line"/>
      <point x="135" y="309" type="line"/>
      <point x="135" y="0" type="line"/>
    </contour>
  </outline>
</glyph>
<glyph name="J" format="2">
  <advance width="548"/>
  <unicode hex="004A"/>
  <outline>
    <contour>
      <point x="95" y="161" type="line"/>
      <point x="110" y="69"/>
      <point x="164" y="28"/>
      <point x="257" y="28" type="curve" smooth="yes"/>
      <point x="391" y="28"/>
      <point x="417" y="128"/>
      <point x="417" y="243" type="curve" smooth="yes"/>
      <point x="417" y="707" type="line"/>
      <point x="460" y="707" type="line"/>
      <point x="460" y="235" type="line" smooth="yes"/>
      <point x="460" y="115"/>
      <point x="428" y="-8"/>
      <point x="254" y="-8" type="curve" smooth="yes"/>
      <point x="139" y="-8"/>
      <point x="65" y="41"/>
      <point x="48" y="161" type="curve"/>
    </contour>
  </outline>
</glyph>
<glyph name="L" format="2">
  <advance width="568"/>
  <unicode hex="004C"/>
  <outline>
    <contour>
      <point x="93" y="0" type="line"/>
      <point x="93" y="707" type="line"/>
      <point x="135" y="707" type="line"/>
      <point x="135" y="38" type="line"/>
      <point x="549" y="38" type="line"/>
      <point x="549" y="0" type="line"/>
    </contour>
  </outline>
</glyph>
<glyph name="N" format="2">
  <advance width="744"/>
  <unicode hex="004E"/>
  <outline>
    <contour>
      <point x="93" y="707" type="line"/>
      <point x="154" y="707" type="line"/>
      <point x="609" y="49" type="line"/>
      <point x="609" y="707" type="line"/>
      <point x="651" y="707" type="line"/>
      <point x="651" y="0" type="line"/>
      <point x="593" y="0" type="line"/>
      <point x="135" y="659" type="line"/>
      <point x="135" y="0" type="line"/>
      <point x="93" y="0" type="line"/>
    </contour>
  </outline>
</glyph>
<glyph name="P" format="2">
  <advance width="624"/>
  <unicode hex="0050"/>
  <outline>
    <contour>
      <point x="93" y="707" type="line"/>
      <point x="328" y="707" type="line" smooth="yes"/>
      <point x="479" y="707"/>
      <point x="569" y="636"/>
      <point x="569" y="480" type="curve" smooth="yes"/>
      <point x="569" y="324"/>
      <point x="456" y="250"/>
      <point x="308" y="250" type="curve" smooth="yes"/>
      <point x="135" y="250" type="line"/>
      <point x="135" y="0" type="line"/>
      <point x="93" y="0" type="line"/>
    </contour>
    <contour>
      <point x="306" y="287" type="line" smooth="yes"/>
      <point x="437" y="287"/>
      <point x="525" y="346"/>
      <point x="525" y="484" type="curve" smooth="yes"/>
      <point x="525" y="617"/>
      <point x="447" y="669"/>
      <point x="322" y="669" type="curve" smooth="yes"/>
      <point x="135" y="669" type="line"/>
      <point x="135" y="287" type="line"/>
    </contour>
  </outline>
</glyph>
<glyph name="Q" format="2">
  <advance width="767"/>
  <unicode hex="0051"/>
  <outline>
    <contour>
      <point x="384" y="-8" type="curve" smooth="yes"/>
      <point x="166" y="-8"/>
      <point x="54" y="145"/>
      <point x="54" y="353" type="curve" smooth="yes"/>
      <point x="54" y="561"/>
      <point x="166" y="715"/>
      <point x="384" y="715" type="curve" smooth="yes"/>
      <point x="601" y="715"/>
      <point x="713" y="560"/>
      <point x="713" y="353" type="curve" smooth="yes"/>
      <point x="713" y="226"/>
      <point x="670" y="119"/>
      <point x="583" y="50" type="curve"/>
      <point x="694" y="-104" type="line"/>
      <point x="657" y="-129" type="line"/>
      <point x="545" y="27" type="line"/>
      <point x="494" y="4"/>
      <point x="441" y="-8"/>
    </contour>
    <contour>
      <point x="384" y="679" type="curve" smooth="yes"/>
      <point x="191" y="679"/>
      <point x="98" y="531"/>
      <point x="98" y="353" type="curve" smooth="yes"/>
      <point x="98" y="174"/>
      <point x="193" y="28"/>
      <point x="384" y="28" type="curve" smooth="yes"/>
      <point x="579" y="28"/>
      <point x="668" y="173"/>
      <point x="668" y="353" type="curve" smooth="yes"/>
      <point x="668" y="531"/>
      <point x="577" y="679"/>
    </contour>
  </outline>
</glyph>
<glyph name="T" format="2">
  <advance width="566"/>
  <unicode hex="0054"/>
  <outline>
    <contour>
      <point x="546" y="669" type="line"/>
      <point x="304" y="669" type="line"/>
      <point x="304" y="0" type="line"/>
      <point x="262" y="0" type="line"/>
      <point x="262" y="669" type="line"/>
      <point x="20" y="669" type="line"/>
      <point x="20" y="707" type="line"/>
      <point x="546" y="707" type="line"/>
    </contour>
  </outline>
</glyph>
<glyph name="U" format="2">
  <advance width="718"/>
  <unicode hex="0055"/>
  <outline>
    <contour>
      <point x="630" y="707" type="line"/>
      <point x="630" y="299" type="line" smooth="yes"/>
      <point x="630" y="119"/>
      <point x="551" y="-8"/>
      <point x="359" y="-8" type="curve" smooth="yes"/>
      <point x="168" y="-8"/>
      <point x="88" y="119"/>
      <point x="88" y="299" type="curve" smooth="yes"/>
      <point x="88" y="707" type="line"/>
      <point x="131" y="707" type="line"/>
      <point x="131" y="303" type="line" smooth="yes"/>
      <point x="131" y="149"/>
      <point x="195" y="28"/>
      <point x="360" y="28" type="curve" smooth="yes"/>
      <point x="528" y="28"/>
      <point x="588" y="151"/>
      <point x="588" y="303" type="curve" smooth="yes"/>
      <point x="588" y="707" type="line"/>
    </contour>
  </outline>
</glyph>
<glyph name="V" format="2">
  <advance width="648"/>
  <unicode hex="0056"/>
  <outline>
    <contour>
      <point x="581" y="707" type="line"/>
      <point x="628" y="707" type="line"/>
      <point x="352" y="0" type="line"/>
      <point x="299" y="0" type="line"/>
      <point x="20" y="707" type="line"/>
      <point x="68" y="707" type="line"/>
      <point x="325" y="47" type="line"/>
    </contour>
  </outline>
</glyph>
<glyph name="W" format="2">
  <advance width="937"/>
  <unicode hex="0057"/>
  <outline>
    <contour>
      <point x="219" y="0" type="line"/>
      <point x="20" y="707" type="line"/>
      <point x="66" y="707" type="line"/>
      <point x="250" y="44" type="line"/>
      <point x="437" y="707" type="line"/>
      <point x="498" y="707" type="line"/>
      <point x="688" y="44" type="line"/>
      <point x="871" y="707" type="line"/>
      <point x="917" y="707" type="line"/>
      <point x="718" y="0" type="line"/>
      <point x="657" y="0" type="line"/>
      <point x="467" y="663" type="line"/>
      <point x="284" y="0" type="line"/>
    </contour>
  </outline>
</glyph>
<glyph name="Y" format="2">
  <advance width="583"/>
  <unicode hex="0059"/>
  <outline>
    <contour>
      <point x="514" y="707" type="line"/>
      <point x="563" y="707" type="line"/>
      <point x="314" y="267" type="line"/>
      <point x="314" y="0" type="line"/>
      <point x="272" y="0" type="line"/>
      <point x="272" y="267" type="line"/>
      <point x="20" y="707" type="line"/>
      <point x="72" y="707" type="line"/>
      <point x="293" y="310" type="line"/>
    </contour>
  </outline>
</glyph>
<glyph name="Z" format="2">
  <advance width="593"/>
  <unicode hex="005A"/>
  <outline>
    <contour>
      <point x="65" y="669" type="line"/>
      <point x="65" y="707" type="line"/>
      <point x="543" y="707" type="line"/>
      <point x="543" y="668" type="line"/>
      <point x="100" y="38" type="line"/>
      <point x="538" y="38" type="line"/>
      <point x="538" y="0" type="line"/>
      <point x="50" y="0" type="line"/>
      <point x="50" y="40" type="line"/>
      <point x="487" y="669" type="line"/>
    </contour>
  </outline>
</glyph>
<glyph name="bracketleft" format="2">
  <advance width="300"/>
  <unicode hex="005B"/>
  <outline>
    <contour>
      <point x="93" y="-197" type="line"/>
      <point x="93" y="796" type="line"/>
      <point x="259" y="796" type="line"/>
      <point x="259" y="762" type="line"/>
      <point x="135" y="762" type="line"/>
      <point x="135" y="-164" type="line"/>
      <point x="259" y="-164" type="line"/>
      <point x="259" y="-197" type="line"/>
    </contour>
  </outline>
</glyph>
<glyph name="backslash" format="2">
  <advance width="440"/>
  <unicode hex="005C"/>
  <outline>
    <contour>
      <point x="86" y="807" type="line"/>
      <point x="401" y="-178" type="line"/>
      <point x="354" y="-178" type="line"/>
      <point x="39" y="807" type="line"/>
    </contour>
  </outline>
</glyph>
<glyph name="bracketright" format="2">
  <advance width="299"/>
  <unicode hex="005D"/>
  <outline>
    <contour>
      <point x="206" y="796" type="line"/>
      <point x="206" y="-197" type="line"/>
      <point x="41" y="-197" type="line"/>
      <point x="41" y="-164" type="line"/>
      <point x="164" y="-164" type="line"/>
      <point x="164" y="762" type="line"/>
      <point x="41" y="762" type="line"/>
      <point x="41" y="796" type="line"/>
    </contour>
  </outline>
</glyph>
<glyph name="asciicircum" format="2">
  <advance width="400"/>
  <unicode hex="005E"/>
  <outline>
    <contour>
      <point x="200" y="691" type="line"/>
      <point x="100" y="546" type="line"/>
      <point x="64" y="546" type="line"/>
      <point x="184" y="715" type="line"/>
      <point x="216" y="715" type="line"/>
      <point x="337" y="546" type="line"/>
      <point x="301" y="546" type="line"/>
    </contour>
  </outline>
</glyph>
<glyph name="underscore" format="2">
  <advance width="455"/>
  <unicode hex="005F"/>
  <outline>
    <contour>
      <point x="3" y="-151" type="line"/>
      <point x="452" y="-151" type="line"/>
      <point x="452" y="-188" type="line"/>
      <point x="3" y="-188" type="line"/>
    </contour>
  </outline>
</glyph>
<glyph name="grave" format="2">
  <advance width="285"/>
  <unicode hex="0060"/>
  <outline>
    <contour>
      <point x="105" y="763" type="line"/>
      <point x="181" y="636" type="line"/>
      <point x="143" y="636" type="line"/>
      <point x="55" y="763" type="line"/>
    </contour>
  </outline>
</glyph>
<glyph name="b" format="2">
  <advance width="609"/>
  <unicode hex="0062"/>
  <outline>
    <contour>
      <point x="113" y="0" type="line"/>
      <point x="73" y="0" type="line"/>
      <point x="73" y="707" type="line"/>
      <point x="115" y="707" type="line"/>
      <point x="115" y="419" type="line"/>
      <point x="166" y="506"/>
      <point x="243" y="534"/>
      <point x="327" y="534" type="curve" smooth="yes"/>
      <point x="487" y="534"/>
      <point x="556" y="405"/>
      <point x="556" y="262" type="curve" smooth="yes"/>
      <point x="556" y="105"/>
      <point x="471" y="-7"/>
      <point x="315" y="-7" type="curve" smooth="yes"/>
      <point x="248" y="-7"/>
      <point x="161" y="9"/>
      <point x="113" y="105" type="curve"/>
    </contour>
    <contour>
      <point x="316" y="29" type="curve" smooth="yes"/>
      <point x="453" y="29"/>
      <point x="514" y="138"/>
      <point x="514" y="262" type="curve" smooth="yes"/>
      <point x="514" y="389"/>
      <point x="459" y="498"/>
      <point x="315" y="498" type="curve" smooth="yes"/>
      <point x="183" y="498"/>
      <point x="113" y="382"/>
      <point x="113" y="262" type="curve" smooth="yes"/>
      <point x="113" y="134"/>
      <point x="180" y="29"/>
    </contour>
  </outline>
</glyph>
<glyph name="c" format="2">
  <advance width="551"/>
  <unicode hex="0063"/>
  <outline>
    <contour>
      <point x="300" y="-7" type="curve" smooth="yes"/>
      <point x="136" y="-7"/>
      <point x="53" y="106"/>
      <point x="53" y="262" type="curve" smooth="yes"/>
      <point x="53" y="418"/>
      <point x="139" y="534"/>
      <point x="304" y="534" type="curve" smooth="yes"/>
      <point x="393" y="534"/>
      <point x="466" y="492"/>
      <point x="497" y="408" type="curve"/>
      <point x="451" y="408" type="line"/>
      <point x="428" y="471"/>
      <point x="367" y="498"/>
      <point x="300" y="498" type="curve" smooth="yes"/>
      <point x="161" y="498"/>
      <point x="95" y="393"/>
      <point x="95" y="262" type="curve" smooth="yes"/>
      <point x="95" y="135"/>
      <point x="160" y="29"/>
      <point x="303" y="29" type="curve" smooth="yes"/>
      <point x="374" y="29"/>
      <point x="433" y="55"/>
      <point x="460" y="118" type="curve"/>
      <point x="506" y="118" type="line"/>
      <point x="471" y="33"/>
      <point x="389" y="-7"/>
    </contour>
  </outline>
</glyph>
<glyph name="d" format="2">
  <advance width="609"/>
  <unicode hex="0064"/>
  <outline>
    <contour>
      <point x="494" y="707" type="line"/>
      <point x="536" y="707" type="line"/>
      <point x="536" y="0" type="line"/>
      <point x="494" y="0" type="line"/>
      <point x="494" y="113" type="line"/>
      <point x="446" y="23"/>
      <point x="358" y="-7"/>
      <point x="284" y="-7" type="curve" smooth="yes"/>
      <point x="116" y="-7"/>
      <point x="53" y="118"/>
      <point x="53" y="262" type="curve" smooth="yes"/>
      <point x="53" y="426"/>
      <point x="143" y="534"/>
      <point x="295" y="534" type="curve" smooth="yes"/>
      <point x="364" y="534"/>
      <point x="449" y="506"/>
      <point x="494" y="426" type="curve"/>
    </contour>
    <contour>
      <point x="293" y="498" type="curve" smooth="yes"/>
      <point x="154" y="498"/>
      <point x="95" y="387"/>
      <point x="95" y="265" type="curve" smooth="yes"/>
      <point x="95" y="151"/>
      <point x="133" y="29"/>
      <point x="288" y="29" type="curve" smooth="yes"/>
      <point x="420" y="29"/>
      <point x="496" y="138"/>
      <point x="496" y="266" type="curve" smooth="yes"/>
      <point x="496" y="393"/>
      <point x="429" y="498"/>
    </contour>
  </outline>
</glyph>
<glyph name="f" format="2">
  <advance width="359"/>
  <unicode hex="0066"/>
  <outline>
    <contour>
      <point x="131" y="492" type="line"/>
      <point x="38" y="492" type="line"/>
      <point x="38" y="527" type="line"/>
      <point x="131" y="527" type="line"/>
      <point x="131" y="594" type="line" smooth="yes"/>
      <point x="131" y="710"/>
      <point x="157" y="773"/>
      <point x="289" y="773" type="curve" smooth="yes"/>
      <point x="331" y="773" type="line"/>
      <point x="331" y="738" type="line"/>
      <point x="294" y="738" type="line" smooth="yes"/>
      <point x="183" y="738"/>
      <point x="173" y="687"/>
      <point x="173" y="589" type="curve" smooth="yes"/>
      <point x="173" y="527" type="line"/>
      <point x="331" y="527" type="line"/>
      <point x="331" y="492" type="line"/>
      <point x="173" y="492" type="line"/>
      <point x="173" y="0" type="line"/>
      <point x="131" y="0" type="line"/>
    </contour>
  </outline>
</glyph>
<glyph name="g" format="2">
  <advance width="609"/>
  <unicode hex="0067"/>
  <outline>
    <contour>
      <point x="497" y="527" type="line"/>
      <point x="536" y="527" type="line"/>
      <point x="536" y="6" type="line" smooth="yes"/>
      <point x="536" y="-162"/>
      <point x="473" y="-257"/>
      <point x="303" y="-257" type="curve" smooth="yes"/>
      <point x="205" y="-257"/>
      <point x="124" y="-221"/>
      <point x="92" y="-133" type="curve"/>
      <point x="139" y="-133" type="line"/>
      <point x="165" y="-199"/>
      <point x="243" y="-221"/>
      <point x="307" y="-221" type="curve" smooth="yes"/>
      <point x="458" y="-221"/>
      <point x="494" y="-125"/>
      <point x="494" y="7" type="curve" smooth="yes"/>
      <point x="494" y="109" type="line"/>
      <point x="452" y="22"/>
      <point x="367" y="-7"/>
      <point x="288" y="-7" type="curve" smooth="yes"/>
      <point x="116" y="-7"/>
      <point x="53" y="116"/>
      <point x="53" y="265" type="curve" smooth="yes"/>
      <point x="53" y="425"/>
      <point x="140" y="534"/>
      <point x="295" y="534" type="curve" smooth="yes"/>
      <point x="368" y="534"/>
      <point x="449" y="506"/>
      <point x="497" y="420" type="curve"/>
    </contour>
    <contour>
      <point x="293" y="498" type="curve" smooth="yes"/>
      <point x="154" y="498"/>
      <point x="95" y="387"/>
      <point x="95" y="265" type="curve" smooth="yes"/>
      <point x="95" y="136"/>
      <point x="149" y="29"/>
      <point x="294" y="29" type="curve" smooth="yes"/>
      <point x="426" y="29"/>
      <point x="496" y="141"/>
      <point x="496" y="265" type="curve" smooth="yes"/>
      <point x="496" y="392"/>
      <point x="430" y="498"/>
    </contour>
  </outline>
</glyph>
<glyph name="i" format="2">
  <advance width="210"/>
  <unicode hex="0069"/>
  <outline>
    <contour>
      <point x="105" y="726" type="curve" smooth="yes"/>
      <point x="129" y="726"/>
      <point x="145" y="710"/>
      <point x="145" y="687" type="curve" smooth="yes"/>
      <point x="145" y="663"/>
      <point x="129" y="648"/>
      <point x="105" y="648" type="curve" smooth="yes"/>
      <point x="82" y="648"/>
      <point x="65" y="663"/>
      <point x="65" y="687" type="curve" smooth="yes"/>
      <point x="65" y="712"/>
      <point x="82" y="726"/>
    </contour>
    <contour>
      <point x="83" y="527" type="line"/>
      <point x="125" y="527" type="line"/>
      <point x="125" y="0" type="line"/>
      <point x="83" y="0" type="line"/>
    </contour>
  </outline>
</glyph>
<glyph name="k" format="2">
  <advance width="499"/>
  <unicode hex="006B"/>
  <outline>
    <contour>
      <point x="73" y="0" type="line"/>
      <point x="73" y="707" type="line"/>
      <point x="115" y="707" type="line"/>
      <point x="115" y="281" type="line"/>
      <point x="252" y="281" type="line"/>
      <point x="421" y="527" type="line"/>
      <point x="468" y="527" type="line"/>
      <point x="292" y="273" type="line"/>
      <point x="486" y="0" type="line"/>
      <point x="438" y="0" type="line"/>
      <point x="260" y="246" type="line"/>
      <point x="115" y="246" type="line"/>
      <point x="115" y="0" type="line"/>
    </contour>
  </outline>
</glyph>
<glyph name="l" format="2">
  <advance width="192"/>
  <unicode hex="006C"/>
  <outline>
    <contour>
      <point x="75" y="0" type="line"/>
      <point x="75" y="707" type="line"/>
      <point x="117" y="707" type="line"/>
      <point x="117" y="0" type="line"/>
    </contour>
  </outline>
</glyph>
<glyph name="m" format="2">
  <advance width="839"/>
  <unicode hex="006D"/>
  <outline>
    <contour>
      <point x="112" y="428" type="line"/>
      <point x="152" y="520"/>
      <point x="228" y="534"/>
      <point x="277" y="534" type="curve" smooth="yes"/>
      <point x="356" y="534"/>
      <point x="413" y="488"/>
      <point x="432" y="401" type="curve"/>
      <point x="443" y="460"/>
      <point x="498" y="534"/>
      <point x="601" y="534" type="curve" smooth="yes"/>
      <point x="719" y="534"/>
      <point x="769" y="458"/>
      <point x="769" y="350" type="curve" smooth="yes"/>
      <point x="769" y="0" type="line"/>
      <point x="727" y="0" type="line"/>
      <point x="727" y="322" type="line" smooth="yes"/>
      <point x="727" y="414"/>
      <point x="713" y="498"/>
      <point x="600" y="498" type="curve" smooth="yes"/>
      <point x="488" y="498"/>
      <point x="448" y="384"/>
      <point x="448" y="286" type="curve" smooth="yes"/>
      <point x="448" y="0" type="line"/>
      <point x="406" y="0" type="line"/>
      <point x="406" y="299" type="line" smooth="yes"/>
      <point x="406" y="386"/>
      <point x="387" y="498"/>
      <point x="274" y="498" type="curve" smooth="yes"/>
      <point x="158" y="498"/>
      <point x="115" y="392"/>
      <point x="115" y="275" type="curve" smooth="yes"/>
      <point x="115" y="0" type="line"/>
      <point x="73" y="0" type="line"/>
      <point x="73" y="527" type="line"/>
      <point x="112" y="527" type="line"/>
    </contour>
  </outline>
</glyph>
<glyph name="n" format="2">
  <advance width="590"/>
  <unicode hex="006E"/>
  <outline>
    <contour>
      <point x="73" y="0" type="line"/>
      <point x="73" y="527" type="line"/>
      <point x="115" y="527" type="line"/>
      <point x="115" y="423" type="line"/>
      <point x="162" y="502"/>
      <point x="233" y="534"/>
      <point x="316" y="534" type="curve" smooth="yes"/>
      <point x="468" y="534"/>
      <point x="520" y="425"/>
      <point x="520" y="292" type="curve" smooth="yes"/>
      <point x="520" y="0" type="line"/>
      <point x="478" y="0" type="line"/>
      <point x="478" y="267" type="line" smooth="yes"/>
      <point x="478" y="383"/>
      <point x="454" y="498"/>
      <point x="315" y="498" type="curve" smooth="yes"/>
      <point x="182" y="498"/>
      <point x="115" y="390"/>
      <point x="115" y="268" type="curve" smooth="yes"/>
      <point x="115" y="0" type="line"/>
    </contour>
  </outline>
</glyph>
<glyph name="p" format="2">
  <advance width="609"/>
  <unicode hex="0070"/>
  <outline>
    <contour>
      <point x="115" y="-206" type="line"/>
      <point x="73" y="-206" type="line"/>
      <point x="73" y="527" type="line"/>
      <point x="115" y="527" type="line"/>
      <point x="115" y="423" type="line"/>
      <point x="167" y="502"/>
      <point x="232" y="534"/>
      <point x="323" y="534" type="curve" smooth="yes"/>
      <point x="483" y="534"/>
      <point x="556" y="408"/>
      <point x="556" y="259" type="curve" smooth="yes"/>
      <point x="556" y="98"/>
      <point x="475" y="-7"/>
      <point x="320" y="-7" type="curve" smooth="yes"/>
      <point x="255" y="-7"/>
      <point x="166" y="10"/>
      <point x="115" y="98" type="curve"/>
    </contour>
    <contour>
      <point x="323" y="29" type="curve" smooth="yes"/>
      <point x="462" y="29"/>
      <point x="514" y="138"/>
      <point x="514" y="262" type="curve" smooth="yes"/>
      <point x="514" y="389"/>
      <point x="459" y="498"/>
      <point x="315" y="498" type="curve" smooth="yes"/>
      <point x="183" y="498"/>
      <point x="113" y="382"/>
      <point x="113" y="262" type="curve" smooth="yes"/>
      <point x="113" y="130"/>
      <point x="184" y="29"/>
    </contour>
  </outline>
</glyph>
<glyph name="q" format="2">
  <advance width="609"/>
  <unicode hex="0071"/>
  <outline>
    <contour>
      <point x="494" y="527" type="line"/>
      <point x="536" y="527" type="line"/>
      <point x="536" y="-206" type="line"/>
      <point x="494" y="-206" type="line"/>
      <point x="494" y="107" type="line"/>
      <point x="454" y="35"/>
      <point x="387" y="-7"/>
      <point x="288" y="-7" type="curve" smooth="yes"/>
      <point x="101" y="-7"/>
      <point x="53" y="144"/>
      <point x="53" y="264" type="curve" smooth="yes"/>
      <point x="53" y="408"/>
      <point x="140" y="534"/>
      <point x="293" y="534" type="curve" smooth="yes"/>
      <point x="389" y="534"/>
      <point x="450" y="492"/>
      <point x="493" y="429" type="curve"/>
    </contour>
    <contour>
      <point x="295" y="498" type="curve" smooth="yes"/>
      <point x="157" y="498"/>
      <point x="95" y="385"/>
      <point x="95" y="265" type="curve" smooth="yes"/>
      <point x="95" y="136"/>
      <point x="151" y="29"/>
      <point x="296" y="29" type="curve" smooth="yes"/>
      <point x="429" y="29"/>
      <point x="496" y="145"/>
      <point x="496" y="265" type="curve" smooth="yes"/>
      <point x="496" y="393"/>
      <point x="431" y="498"/>
    </contour>
  </outline>
</glyph>
<glyph name="r" format="2">
  <advance width="357"/>
  <unicode hex="0072"/>
  <outline>
    <contour>
      <point x="73" y="0" type="line"/>
      <point x="73" y="527" type="line"/>
      <point x="113" y="527" type="line"/>
      <point x="113" y="409" type="line"/>
      <point x="156" y="510"/>
      <point x="249" y="530"/>
      <point x="324" y="530" type="curve" smooth="yes"/>
      <point x="334" y="530" type="line"/>
      <point x="334" y="494" type="line"/>
      <point x="327" y="494" type="line" smooth="yes"/>
      <point x="179" y="494"/>
      <point x="115" y="393"/>
      <point x="115" y="253" type="curve" smooth="yes"/>
      <point x="115" y="0" type="line"/>
    </contour>
  </outline>
</glyph>
<glyph name="s" format="2">
  <advance width="504"/>
  <unicode hex="0073"/>
  <outline>
    <contour>
      <point x="250" y="498" type="curve" smooth="yes"/>
      <point x="194" y="498"/>
      <point x="99" y="488"/>
      <point x="99" y="394" type="curve" smooth="yes"/>
      <point x="99" y="326"/>
      <point x="157" y="301"/>
      <point x="212" y="288" type="curve" smooth="yes"/>
      <point x="253" y="279"/>
      <point x="299" y="273"/>
      <point x="342" y="262" type="curve" smooth="yes"/>
      <point x="411" y="245"/>
      <point x="459" y="211"/>
      <point x="459" y="139" type="curve" smooth="yes"/>
      <point x="459" y="25"/>
      <point x="353" y="-7"/>
      <point x="256" y="-7" type="curve" smooth="yes"/>
      <point x="171" y="-7"/>
      <point x="70" y="26"/>
      <point x="43" y="109" type="curve"/>
      <point x="90" y="109" type="line"/>
      <point x="122" y="47"/>
      <point x="197" y="29"/>
      <point x="257" y="29" type="curve" smooth="yes"/>
      <point x="326" y="29"/>
      <point x="418" y="49"/>
      <point x="418" y="134" type="curve" smooth="yes"/>
      <point x="418" y="200"/>
      <point x="359" y="220"/>
      <point x="311" y="231" type="curve" smooth="yes"/>
      <point x="292" y="235"/>
      <point x="271" y="239"/>
      <point x="248" y="243" type="curve" smooth="yes"/>
      <point x="168" y="257"/>
      <point x="58" y="280"/>
      <point x="58" y="393" type="curve" smooth="yes"/>
      <point x="58" y="502"/>
      <point x="154" y="534"/>
      <point x="251" y="534" type="curve" smooth="yes"/>
      <point x="329" y="534"/>
      <point x="413" y="502"/>
      <point x="437" y="425" type="curve"/>
      <point x="395" y="425" type="line"/>
      <point x="371" y="477"/>
      <point x="305" y="498"/>
    </contour>
  </outline>
</glyph>
<glyph name="t" format="2">
  <advance width="359"/>
  <unicode hex="0074"/>
  <outline>
    <contour>
      <point x="166" y="527" type="line"/>
      <point x="322" y="527" type="line"/>
      <point x="322" y="492" type="line"/>
      <point x="166" y="492" type="line"/>
      <point x="166" y="171" type="line" smooth="yes"/>
      <point x="166" y="80"/>
      <point x="199" y="36"/>
      <point x="292" y="36" type="curve" smooth="yes"/>
      <point x="319" y="36" type="line"/>
      <point x="319" y="0" type="line"/>
      <point x="284" y="0" type="line" smooth="yes"/>
      <point x="175" y="0"/>
      <point x="124" y="50"/>
      <point x="124" y="167" type="curve" smooth="yes"/>
      <point x="124" y="492" type="line"/>
      <point x="31" y="492" type="line"/>
      <point x="31" y="527" type="line"/>
      <point x="124" y="527" type="line"/>
      <point x="124" y="685" type="line"/>
      <point x="166" y="685" type="line"/>
    </contour>
  </outline>
</glyph>
<glyph name="v" format="2">
  <advance width="508"/>
  <unicode hex="0076"/>
  <outline>
    <contour>
      <point x="13" y="527" type="line"/>
      <point x="61" y="527" type="line"/>
      <point x="254" y="36" type="line"/>
      <point x="448" y="527" type="line"/>
      <point x="495" y="527" type="line"/>
      <point x="282" y="0" type="line"/>
      <point x="223" y="0" type="line"/>
    </contour>
  </outline>
</glyph>
<glyph name="x" format="2">
  <advance width="485"/>
  <unicode hex="0078"/>
  <outline>
    <contour>
      <point x="242" y="239" type="line"/>
      <point x="72" y="0" type="line"/>
      <point x="20" y="0" type="line"/>
      <point x="213" y="268" type="line"/>
      <point x="34" y="527" type="line"/>
      <point x="86" y="527" type="line"/>
      <point x="244" y="296" type="line"/>
      <point x="400" y="527" type="line"/>
      <point x="452" y="527" type="line"/>
      <point x="273" y="271" type="line"/>
      <point x="465" y="0" type="line"/>
      <point x="412" y="0" type="line"/>
    </contour>
  </outline>
</glyph>
<glyph name="z" format="2">
  <advance width="522"/>
  <unicode hex="007A"/>
  <outline>
    <contour>
      <point x="469" y="485" type="line"/>
      <point x="97" y="36" type="line"/>
      <point x="469" y="36" type="line"/>
      <point x="469" y="0" type="line"/>
      <point x="53" y="0" type="line"/>
      <point x="53" y="43" type="line"/>
      <point x="422" y="492" type="line"/>
      <point x="58" y="492" type="line"/>
      <point x="58" y="527" type="line"/>
      <point x="469" y="527" type="line"/>
    </contour>
  </outline>
</glyph>
<glyph name="braceleft" format="2">
  <advance width="371"/>
  <unicode hex="007B"/>
  <outline>
    <contour>
      <point x="182" y="-68" type="line" smooth="yes"/>
      <point x="182" y="-148"/>
      <point x="192" y="-162"/>
      <point x="256" y="-162" type="curve" smooth="yes"/>
      <point x="306" y="-162" type="line"/>
      <point x="306" y="-197" type="line"/>
      <point x="248" y="-197" type="line" smooth="yes"/>
      <point x="181" y="-197"/>
      <point x="147" y="-177"/>
      <point x="147" y="-106" type="curve" smooth="yes"/>
      <point x="147" y="127" type="line" smooth="yes"/>
      <point x="147" y="205"/>
      <point x="134" y="274"/>
      <point x="43" y="287" type="curve"/>
      <point x="43" y="312" type="line"/>
      <point x="132" y="323"/>
      <point x="147" y="392"/>
      <point x="147" y="470" type="curve" smooth="yes"/>
      <point x="147" y="706" type="line" smooth="yes"/>
      <point x="147" y="777"/>
      <point x="180" y="796"/>
      <point x="248" y="796" type="curve" smooth="yes"/>
      <point x="306" y="796" type="line"/>
      <point x="306" y="761" type="line"/>
      <point x="247" y="761" type="line" smooth="yes"/>
      <point x="174" y="761"/>
      <point x="182" y="722"/>
      <point x="182" y="662" type="curve" smooth="yes"/>
      <point x="182" y="455" type="line" smooth="yes"/>
      <point x="182" y="394"/>
      <point x="170" y="332"/>
      <point x="103" y="300" type="curve"/>
      <point x="171" y="276"/>
      <point x="182" y="206"/>
      <point x="182" y="149" type="curve" smooth="yes"/>
    </contour>
  </outline>
</glyph>
<glyph name="bar" format="2">
  <advance width="228"/>
  <unicode hex="007C"/>
  <outline>
    <contour>
      <point x="93" y="-178" type="line"/>
      <point x="93" y="807" type="line"/>
      <point x="135" y="807" type="line"/>
      <point x="135" y="-178" type="line"/>
    </contour>
  </outline>
</glyph>
<glyph name="braceright" format="2">
  <advance width="371"/>
  <unicode hex="007D"/>
  <outline>
    <contour>
      <point x="189" y="667" type="line" smooth="yes"/>
      <point x="189" y="747"/>
      <point x="179" y="761"/>
      <point x="115" y="761" type="curve" smooth="yes"/>
      <point x="65" y="761" type="line"/>
      <point x="65" y="796" type="line"/>
      <point x="123" y="796" type="line" smooth="yes"/>
      <point x="190" y="796"/>
      <point x="224" y="776"/>
      <point x="224" y="705" type="curve" smooth="yes"/>
      <point x="224" y="472" type="line" smooth="yes"/>
      <point x="224" y="396"/>
      <point x="237" y="323"/>
      <point x="328" y="312" type="curve"/>
      <point x="328" y="287" type="line"/>
      <point x="239" y="276"/>
      <point x="224" y="207"/>
      <point x="224" y="129" type="curve" smooth="yes"/>
      <point x="224" y="-107" type="line" smooth="yes"/>
      <point x="224" y="-178"/>
      <point x="191" y="-197"/>
      <point x="123" y="-197" type="curve" smooth="yes"/>
      <point x="65" y="-197" type="line"/>
      <point x="65" y="-162" type="line"/>
      <point x="124" y="-162" type="line" smooth="yes"/>
      <point x="197" y="-162"/>
      <point x="189" y="-123"/>
      <point x="189" y="-63" type="curve" smooth="yes"/>
      <point x="189" y="144" type="line" smooth="yes"/>
      <point x="189" y="205"/>
      <point x="201" y="267"/>
      <point x="268" y="299" type="curve"/>
      <point x="200" y="323"/>
      <point x="189" y="393"/>
      <point x="189" y="450" type="curve" smooth="yes"/>
    </contour>
  </outline>
</glyph>
<glyph name="asciitilde" format="2">
  <advance width="635"/>
  <unicode hex="007E"/>
  <outline>
    <contour>
      <point x="93" y="288" type="line"/>
      <point x="96" y="362"/>
      <point x="122" y="431"/>
      <point x="211" y="431" type="curve" smooth="yes"/>
      <point x="258" y="431"/>
      <point x="296" y="397"/>
      <point x="329" y="366" type="curve" smooth="yes"/>
      <point x="359" y="336"/>
      <point x="389" y="309"/>
      <point x="428" y="309" type="curve" smooth="yes"/>
      <point x="492" y="309"/>
      <point x="505" y="368"/>
      <point x="505" y="422" type="curve"/>
      <point x="542" y="422" type="line"/>
      <point x="537" y="346"/>
      <point x="517" y="280"/>
      <point x="425" y="280" type="curve" smooth="yes"/>
      <point x="373" y="280"/>
      <point x="336" y="316"/>
      <point x="305" y="345" type="curve" smooth="yes"/>
      <point x="278" y="370"/>
      <point x="244" y="401"/>
      <point x="208" y="401" type="curve" smooth="yes"/>
      <point x="147" y="401"/>
      <point x="130" y="340"/>
      <point x="130" y="288" type="curve"/>
    </contour>
  </outline>
</glyph>
<glyph name="exclamdown" format="2">
  <advance width="244"/>
  <unicode hex="00A1"/>
  <outline>
    <contour>
      <point x="121" y="454" type="curve" smooth="yes"/>
      <point x="100" y="454"/>
      <point x="82" y="468"/>
      <point x="82" y="495" type="curve" smooth="yes"/>
      <point x="82" y="519"/>
      <point x="98" y="534"/>
      <point x="121" y="534" type="curve" smooth="yes"/>
      <point x="146" y="534"/>
      <point x="162" y="518"/>
      <point x="162" y="494" type="curve" smooth="yes"/>
      <point x="162" y="469"/>
      <point x="146" y="454"/>
    </contour>
    <contour>
      <point x="140" y="349" type="line"/>
      <point x="142" y="-181" type="line"/>
      <point x="101" y="-181" type="line"/>
      <point x="103" y="349" type="line"/>
    </contour>
  </outline>
</glyph>
<glyph name="cent" format="2">
  <advance width="576"/>
  <unicode hex="00A2"/>
  <outline>
    <contour>
      <point x="273" y="682" type="line"/>
      <point x="315" y="682" type="line"/>
      <point x="315" y="534" type="line"/>
      <point x="399" y="530"/>
      <point x="467" y="488"/>
      <point x="496" y="408" type="curve"/>
      <point x="451" y="408" type="line"/>
      <point x="428" y="469"/>
      <point x="367" y="498"/>
      <point x="300" y="498" type="curve" smooth="yes"/>
      <point x="161" y="498"/>
      <point x="95" y="393"/>
      <point x="95" y="262" type="curve" smooth="yes"/>
      <point x="95" y="135"/>
      <point x="158" y="29"/>
      <point x="302" y="29" type="curve" smooth="yes"/>
      <point x="373" y="29"/>
      <point x="434" y="55"/>
      <point x="461" y="118" type="curve"/>
      <point x="506" y="118" type="line"/>
      <point x="474" y="38"/>
      <point x="399" y="-2"/>
      <point x="315" y="-6" type="curve"/>
      <point x="315" y="-163" type="line"/>
      <point x="273" y="-163" type="line"/>
      <point x="273" y="-5" type="line"/>
      <point x="127" y="6"/>
      <point x="53" y="116"/>
      <point x="53" y="262" type="curve" smooth="yes"/>
      <point x="53" y="409"/>
      <point x="128" y="519"/>
      <point x="273" y="532" type="curve"/>
    </contour>
  </outline>
</glyph>
<glyph name="sterling" format="2">
  <advance width="576"/>
  <unicode hex="00A3"/>
  <outline>
    <contour>
      <point x="414" y="318" type="line"/>
      <point x="193" y="318" type="line"/>
      <point x="193" y="38" type="line"/>
      <point x="511" y="38" type="line"/>
      <point x="511" y="0" type="line"/>
      <point x="65" y="0" type="line"/>
      <point x="65" y="38" type="line"/>
      <point x="153" y="38" type="line"/>
      <point x="153" y="318" type="line"/>
      <point x="65" y="318" type="line"/>
      <point x="65" y="355" type="line"/>
      <point x="153" y="355" type="line"/>
      <point x="153" y="531" type="line" smooth="yes"/>
      <point x="153" y="654"/>
      <point x="222" y="715"/>
      <point x="342" y="715" type="curve" smooth="yes"/>
      <point x="419" y="715"/>
      <point x="487" y="679"/>
      <point x="505" y="605" type="curve"/>
      <point x="463" y="605" type="line"/>
      <point x="444" y="657"/>
      <point x="395" y="679"/>
      <point x="344" y="679" type="curve" smooth="yes"/>
      <point x="240" y="679"/>
      <point x="193" y="628"/>
      <point x="193" y="524" type="curve" smooth="yes"/>
      <point x="193" y="355" type="line"/>
      <point x="414" y="355" type="line"/>
    </contour>
  </outline>
</glyph>
<glyph name="yen" format="2">
  <advance width="634"/>
  <unicode hex="00A5"/>
  <outline>
    <contour>
      <point x="538" y="707" type="line"/>
      <point x="589" y="707" type="line"/>
      <point x="357" y="298" type="line"/>
      <point x="491" y="298" type="line"/>
      <point x="491" y="262" type="line"/>
      <point x="338" y="262" type="line"/>
      <point x="338" y="138" type="line"/>
      <point x="491" y="138" type="line"/>
      <point x="491" y="103" type="line"/>
      <point x="338" y="103" type="line"/>
      <point x="338" y="0" type="line"/>
      <point x="295" y="0" type="line"/>
      <point x="295" y="103" type="line"/>
      <point x="141" y="103" type="line"/>
      <point x="141" y="138" type="line"/>
      <point x="295" y="138" type="line"/>
      <point x="295" y="262" type="line"/>
      <point x="141" y="262" type="line"/>
      <point x="141" y="298" type="line"/>
      <point x="277" y="298" type="line"/>
      <point x="45" y="707" type="line"/>
      <point x="96" y="707" type="line"/>
      <point x="318" y="305" type="line"/>
    </contour>
  </outline>
</glyph>
<glyph name="section" format="2">
  <advance width="535"/>
  <unicode hex="00A7"/>
  <outline>
    <contour>
      <point x="267" y="684" type="curve" smooth="yes"/>
      <point x="200" y="684"/>
      <point x="118" y="668"/>
      <point x="118" y="584" type="curve" smooth="yes"/>
      <point x="118" y="536"/>
      <point x="160" y="508"/>
      <point x="200" y="497" type="curve" smooth="yes"/>
      <point x="253" y="482"/>
      <point x="311" y="473"/>
      <point x="363" y="459" type="curve" smooth="yes"/>
      <point x="427" y="442"/>
      <point x="467" y="411"/>
      <point x="467" y="343" type="curve" smooth="yes"/>
      <point x="467" y="298"/>
      <point x="443" y="261"/>
      <point x="396" y="233" type="curve"/>
      <point x="444" y="214"/>
      <point x="469" y="177"/>
      <point x="469" y="130" type="curve" smooth="yes"/>
      <point x="469" y="23"/>
      <point x="372" y="-8"/>
      <point x="281" y="-8" type="curve" smooth="yes"/>
      <point x="193" y="-8"/>
      <point x="97" y="17"/>
      <point x="65" y="103" type="curve"/>
      <point x="110" y="103" type="line"/>
      <point x="139" y="47"/>
      <point x="222" y="27"/>
      <point x="277" y="27" type="curve" smooth="yes"/>
      <point x="364" y="27"/>
      <point x="429" y="54"/>
      <point x="429" y="122" type="curve" smooth="yes"/>
      <point x="429" y="186"/>
      <point x="383" y="206"/>
      <point x="333" y="216" type="curve" smooth="yes"/>
      <point x="289" y="224"/>
      <point x="236" y="234"/>
      <point x="196" y="242" type="curve" smooth="yes"/>
      <point x="124" y="257"/>
      <point x="71" y="294"/>
      <point x="71" y="363" type="curve" smooth="yes"/>
      <point x="71" y="412"/>
      <point x="99" y="457"/>
      <point x="144" y="485" type="curve"/>
      <point x="101" y="506"/>
      <point x="81" y="545"/>
      <point x="81" y="581" type="curve" smooth="yes"/>
      <point x="81" y="686"/>
      <point x="178" y="715"/>
      <point x="270" y="715" type="curve" smooth="yes"/>
      <point x="346" y="715"/>
      <point x="425" y="687"/>
      <point x="447" y="611" type="curve"/>
      <point x="410" y="611" type="line"/>
      <point x="389" y="664"/>
      <point x="321" y="684"/>
    </contour>
    <contour>
      <point x="175" y="470" type="curve"/>
      <point x="136" y="445"/>
      <point x="109" y="407"/>
      <point x="109" y="371" type="curve" smooth="yes"/>
      <point x="109" y="292"/>
      <point x="184" y="280"/>
      <point x="239" y="269" type="curve" smooth="yes"/>
      <point x="280" y="261"/>
      <point x="315" y="255"/>
      <point x="358" y="246" type="curve"/>
      <point x="389" y="256"/>
      <point x="431" y="293"/>
      <point x="431" y="337" type="curve" smooth="yes"/>
      <point x="431" y="393"/>
      <point x="401" y="414"/>
      <point x="360" y="427" type="curve" smooth="yes"/>
      <point x="298" y="446"/>
      <point x="242" y="449"/>
    </contour>
  </outline>
</glyph>
<glyph name="dieresis" format="2">
  <advance width="489"/>
  <unicode hex="00A8"/>
  <outline>
    <contour>
      <point x="349" y="714" type="curve" smooth="yes"/>
      <point x="374" y="714"/>
      <point x="390" y="698"/>
      <point x="390" y="675" type="curve" smooth="yes"/>
      <point x="390" y="652"/>
      <point x="374" y="636"/>
      <point x="349" y="636" type="curve" smooth="yes"/>
      <point x="325" y="636"/>
      <point x="310" y="654"/>
      <point x="310" y="675" type="curve" smooth="yes"/>
      <point x="310" y="696"/>
      <point x="325" y="714"/>
    </contour>
    <contour>
      <point x="138" y="714" type="curve" smooth="yes"/>
      <point x="163" y="714"/>
      <point x="179" y="698"/>
      <point x="179" y="675" type="curve" smooth="yes"/>
      <point x="179" y="652"/>
      <point x="163" y="636"/>
      <point x="138" y="636" type="curve" smooth="yes"/>
      <point x="114" y="636"/>
      <point x="99" y="654"/>
      <point x="99" y="675" type="curve" smooth="yes"/>
      <point x="99" y="696"/>
      <point x="114" y="714"/>
    </contour>
  </outline>
</glyph>
<glyph name="copyright" format="2">
  <advance width="942"/>
  <unicode hex="00A9"/>
  <outline>
    <contour>
      <point x="471" y="715" type="curve" smooth="yes"/>
      <point x="720" y="715"/>
      <point x="877" y="539"/>
      <point x="877" y="292" type="curve" smooth="yes"/>
      <point x="877" y="45"/>
      <point x="725" y="-129"/>
      <point x="471" y="-129" type="curve" smooth="yes"/>
      <point x="217" y="-129"/>
      <point x="65" y="45"/>
      <point x="65" y="292" type="curve" smooth="yes"/>
      <point x="65" y="539"/>
      <point x="222" y="715"/>
    </contour>
    <contour>
      <point x="471" y="677" type="curve" smooth="yes"/>
      <point x="244" y="677"/>
      <point x="107" y="513"/>
      <point x="107" y="292" type="curve" smooth="yes"/>
      <point x="107" y="72"/>
      <point x="242" y="-92"/>
      <point x="471" y="-92" type="curve" smooth="yes"/>
      <point x="701" y="-92"/>
      <point x="835" y="74"/>
      <point x="835" y="292" type="curve" smooth="yes"/>
      <point x="835" y="511"/>
      <point x="699" y="677"/>
    </contour>
    <contour>
      <point x="483" y="87" type="curve" smooth="yes"/>
      <point x="359" y="87"/>
      <point x="298" y="175"/>
      <point x="298" y="293" type="curve" smooth="yes"/>
      <point x="298" y="408"/>
      <point x="359" y="499"/>
      <point x="484" y="499" type="curve" smooth="yes"/>
      <point x="556" y="499"/>
      <point x="610" y="472"/>
      <point x="634" y="401" type="curve"/>
      <point x="595" y="401" type="line"/>
      <point x="576" y="448"/>
      <point x="538" y="467"/>
      <point x="487" y="467" type="curve" smooth="yes"/>
      <point x="375" y="467"/>
      <point x="336" y="386"/>
      <point x="336" y="293" type="curve" smooth="yes"/>
      <point x="336" y="200"/>
      <point x="380" y="119"/>
      <point x="484" y="119" type="curve" smooth="yes"/>
      <point x="535" y="119"/>
      <point x="584" y="137"/>
      <point x="604" y="184" type="curve"/>
      <point x="643" y="184" type="line"/>
      <point x="618" y="116"/>
      <point x="558" y="87"/>
    </contour>
  </outline>
</glyph>
<glyph name="ordfeminine" format="2">
  <advance width="352"/>
  <unicode hex="00AA"/>
  <outline>
    <contour>
      <point x="158" y="455" type="curve" smooth="yes"/>
      <point x="197" y="455"/>
      <point x="225" y="468"/>
      <point x="240" y="494" type="curve"/>
      <point x="253" y="515"/>
      <point x="255" y="536"/>
      <point x="255" y="559" type="curve"/>
      <point x="182" y="559" type="line" smooth="yes"/>
      <point x="146" y="559"/>
      <point x="89" y="562"/>
      <point x="89" y="510" type="curve" smooth="yes"/>
      <point x="89" y="471"/>
      <point x="123" y="455"/>
    </contour>
    <contour>
      <point x="258" y="434" type="line"/>
      <point x="256" y="473" type="line"/>
      <point x="232" y="441"/>
      <point x="196" y="431"/>
      <point x="156" y="431" type="curve" smooth="yes"/>
      <point x="107" y="431"/>
      <point x="60" y="453"/>
      <point x="60" y="508" type="curve" smooth="yes"/>
      <point x="60" y="569"/>
      <point x="109" y="583"/>
      <point x="160" y="583" type="curve" smooth="yes"/>
      <point x="255" y="583" type="line"/>
      <point x="252" y="639"/>
      <point x="241" y="681"/>
      <point x="178" y="682" type="curve" smooth="yes"/>
      <point x="150" y="682"/>
      <point x="117" y="676"/>
      <point x="106" y="651" type="curve"/>
      <point x="74" y="651" type="line"/>
      <point x="90" y="694"/>
      <point x="132" y="707"/>
      <point x="176" y="707" type="curve" smooth="yes"/>
      <point x="262" y="707"/>
      <point x="282" y="654"/>
      <point x="282" y="581" type="curve" smooth="yes"/>
      <point x="282" y="434" type="line"/>
    </contour>
  </outline>
</glyph>
<glyph name="guillemotleft" format="2">
  <advance width="443"/>
  <unicode hex="00AB"/>
  <outline>
    <contour>
      <point x="380" y="97" type="line"/>
      <point x="340" y="97" type="line"/>
      <point x="232" y="257" type="line"/>
      <point x="340" y="419" type="line"/>
      <point x="381" y="419" type="line"/>
      <point x="273" y="258" type="line"/>
    </contour>
    <contour>
      <point x="193" y="97" type="line"/>
      <point x="153" y="97" type="line"/>
      <point x="45" y="257" type="line"/>
      <point x="153" y="419" type="line"/>
      <point x="194" y="419" type="line"/>
      <point x="85" y="258" type="line"/>
    </contour>
  </outline>
</glyph>
<glyph name="uni00AD" format="2">
  <advance width="440"/>
  <unicode hex="00AD"/>
  <outline>
    <contour>
      <point x="80" y="297" type="line"/>
      <point x="360" y="297" type="line"/>
      <point x="360" y="260" type="line"/>
      <point x="80" y="260" type="line"/>
    </contour>
  </outline>
</glyph>
<glyph name="registered" format="2">
  <advance width="472"/>
  <unicode hex="00AE"/>
  <outline>
    <contour>
      <point x="235" y="745" type="curve" smooth="yes"/>
      <point x="347" y="745"/>
      <point x="415" y="670"/>
      <point x="415" y="562" type="curve" smooth="yes"/>
      <point x="415" y="451"/>
      <point x="347" y="386"/>
      <point x="235" y="386" type="curve" smooth="yes"/>
      <point x="126" y="386"/>
      <point x="54" y="450"/>
      <point x="54" y="562" type="curve" smooth="yes"/>
      <point x="54" y="617"/>
      <point x="70" y="662"/>
      <point x="103" y="695" type="curve" smooth="yes"/>
      <point x="136" y="728"/>
      <point x="180" y="745"/>
    </contour>
    <contour>
      <point x="235" y="725" type="curve" smooth="yes"/>
      <point x="138" y="725"/>
      <point x="76" y="659"/>
      <point x="76" y="562" type="curve" smooth="yes"/>
      <point x="76" y="465"/>
      <point x="138" y="406"/>
      <point x="235" y="406" type="curve" smooth="yes"/>
      <point x="334" y="406"/>
      <point x="393" y="465"/>
      <point x="393" y="562" type="curve" smooth="yes"/>
      <point x="393" y="659"/>
      <point x="335" y="725"/>
    </contour>
    <contour>
      <point x="286" y="480" type="line"/>
      <point x="239" y="551" type="line"/>
      <point x="192" y="551" type="line"/>
      <point x="192" y="480" type="line"/>
      <point x="174" y="480" type="line"/>
      <point x="174" y="655" type="line"/>
      <point x="246" y="655" type="line" smooth="yes"/>
      <point x="282" y="655"/>
      <point x="306" y="638"/>
      <point x="306" y="603" type="curve" smooth="yes"/>
      <point x="306" y="578"/>
      <point x="294" y="555"/>
      <point x="259" y="552" type="curve"/>
      <point x="274" y="529"/>
      <point x="294" y="503"/>
      <point x="307" y="480" type="curve"/>
    </contour>
    <contour>
      <point x="192" y="638" type="line"/>
      <point x="192" y="568" type="line"/>
      <point x="248" y="568" type="line" smooth="yes"/>
      <point x="271" y="568"/>
      <point x="289" y="576"/>
      <point x="289" y="603" type="curve" smooth="yes"/>
      <point x="289" y="630"/>
      <point x="268" y="638"/>
      <point x="248" y="638" type="curve" smooth="yes"/>
    </contour>
  </outline>
</glyph>
<glyph name="macron" format="2">
  <advance width="553"/>
  <unicode hex="00AF"/>
  <outline>
    <contour>
      <point x="127" y="697" type="line"/>
      <point x="426" y="697" type="line"/>
      <point x="426" y="662" type="line"/>
      <point x="127" y="662" type="line"/>
    </contour>
  </outline>
</glyph>
<glyph name="degree" format="2">
  <advance width="352"/>
  <unicode hex="00B0"/>
  <outline>
    <contour>
      <point x="174" y="616" type="curve" smooth="yes"/>
      <point x="226" y="616"/>
      <point x="257" y="652"/>
      <point x="257" y="703" type="curve" smooth="yes"/>
      <point x="257" y="754"/>
      <point x="226" y="789"/>
      <point x="174" y="789" type="curve" smooth="yes"/>
      <point x="122" y="789"/>
      <point x="90" y="754"/>
      <point x="90" y="703" type="curve" smooth="yes"/>
      <point x="90" y="651"/>
      <point x="122" y="616"/>
    </contour>
    <contour>
      <point x="174" y="585" type="curve" smooth="yes"/>
      <point x="98" y="585"/>
      <point x="55" y="635"/>
      <point x="55" y="703" type="curve" smooth="yes"/>
      <point x="55" y="774"/>
      <point x="103" y="820"/>
      <point x="175" y="820" type="curve" smooth="yes"/>
      <point x="250" y="820"/>
      <point x="291" y="766"/>
      <point x="291" y="703" type="curve" smooth="yes"/>
      <point x="291" y="635"/>
      <point x="249" y="585"/>
    </contour>
  </outline>
</glyph>
<glyph name="plusminus" format="2">
  <advance width="498"/>
  <unicode hex="00B1"/>
  <outline>
    <contour>
      <point x="269" y="630" type="line"/>
      <point x="269" y="468" type="line"/>
      <point x="423" y="468" type="line"/>
      <point x="423" y="430" type="line"/>
      <point x="269" y="430" type="line"/>
      <point x="269" y="265" type="line"/>
      <point x="226" y="265" type="line"/>
      <point x="226" y="430" type="line"/>
      <point x="75" y="430" type="line"/>
      <point x="75" y="468" type="line"/>
      <point x="226" y="468" type="line"/>
      <point x="226" y="630" type="line"/>
    </contour>
    <contour>
      <point x="423" y="151" type="line"/>
      <point x="75" y="151" type="line"/>
      <point x="75" y="189" type="line"/>
      <point x="423" y="189" type="line"/>
    </contour>
  </outline>
</glyph>
<glyph name="twosuperior" format="2">
  <advance width="349"/>
  <unicode hex="00B2"/>
  <outline>
    <contour>
      <point x="60" y="444" type="line"/>
      <point x="155" y="525" type="line" smooth="yes"/>
      <point x="192" y="556"/>
      <point x="247" y="596"/>
      <point x="247" y="650" type="curve" smooth="yes"/>
      <point x="247" y="693"/>
      <point x="219" y="716"/>
      <point x="178" y="716" type="curve" smooth="yes"/>
      <point x="150" y="716"/>
      <point x="119" y="706"/>
      <point x="110" y="677" type="curve"/>
      <point x="69" y="677" type="line"/>
      <point x="80" y="728"/>
      <point x="130" y="751"/>
      <point x="179" y="751" type="curve" smooth="yes"/>
      <point x="239" y="751"/>
      <point x="285" y="718"/>
      <point x="285" y="654" type="curve" smooth="yes"/>
      <point x="285" y="594"/>
      <point x="244" y="557"/>
      <point x="202" y="521" type="curve" smooth="yes"/>
      <point x="114" y="446" type="line"/>
      <point x="289" y="446" type="line"/>
      <point x="289" y="412" type="line"/>
      <point x="60" y="412" type="line"/>
    </contour>
  </outline>
</glyph>
<glyph name="threesuperior" format="2">
  <advance width="359"/>
  <unicode hex="00B3"/>
  <outline>
    <contour>
      <point x="145" y="599" type="line"/>
      <point x="158" y="599" type="line" smooth="yes"/>
      <point x="188" y="599"/>
      <point x="246" y="607"/>
      <point x="247" y="658" type="curve" smooth="yes"/>
      <point x="247" y="702"/>
      <point x="218" y="717"/>
      <point x="178" y="717" type="curve" smooth="yes"/>
      <point x="150" y="717"/>
      <point x="118" y="705"/>
      <point x="109" y="676" type="curve"/>
      <point x="71" y="676" type="line"/>
      <point x="80" y="729"/>
      <point x="131" y="751"/>
      <point x="182" y="751" type="curve" smooth="yes"/>
      <point x="238" y="751"/>
      <point x="284" y="725"/>
      <point x="284" y="662" type="curve" smooth="yes"/>
      <point x="284" y="623"/>
      <point x="264" y="604"/>
      <point x="229" y="589" type="curve"/>
      <point x="273" y="581"/>
      <point x="299" y="554"/>
      <point x="299" y="506" type="curve" smooth="yes"/>
      <point x="299" y="437"/>
      <point x="244" y="408"/>
      <point x="181" y="408" type="curve" smooth="yes"/>
      <point x="129" y="408"/>
      <point x="71" y="425"/>
      <point x="60" y="484" type="curve"/>
      <point x="99" y="484" type="line"/>
      <point x="111" y="452"/>
      <point x="151" y="442"/>
      <point x="182" y="442" type="curve" smooth="yes"/>
      <point x="223" y="442"/>
      <point x="260" y="457"/>
      <point x="260" y="505" type="curve" smooth="yes"/>
      <point x="260" y="557"/>
      <point x="219" y="565"/>
      <point x="176" y="565" type="curve" smooth="yes"/>
      <point x="145" y="565" type="line"/>
    </contour>
  </outline>
</glyph>
<glyph name="acute" format="2">
  <advance width="285"/>
  <unicode hex="00B4"/>
  <outline>
    <contour>
      <point x="237" y="763" type="line"/>
      <point x="149" y="636" type="line"/>
      <point x="111" y="636" type="line"/>
      <point x="187" y="763" type="line"/>
    </contour>
  </outline>
</glyph>
<glyph name="paragraph" format="2">
  <advance width="514"/>
  <unicode hex="00B6"/>
  <outline>
    <contour>
      <point x="479" y="669" type="line"/>
      <point x="397" y="669" type="line"/>
      <point x="397" y="0" type="line"/>
      <point x="355" y="0" type="line"/>
      <point x="355" y="669" type="line"/>
      <point x="235" y="669" type="line"/>
      <point x="235" y="0" type="line"/>
      <point x="193" y="0" type="line"/>
      <point x="193" y="419" type="line"/>
      <point x="177" y="419" type="line" smooth="yes"/>
      <point x="86" y="419"/>
      <point x="35" y="473"/>
      <point x="35" y="565" type="curve" smooth="yes"/>
      <point x="35" y="653"/>
      <point x="97" y="707"/>
      <point x="182" y="707" type="curve" smooth="yes"/>
      <point x="479" y="707" type="line"/>
    </contour>
  </outline>
</glyph>
<glyph name="periodcentered" format="2">
  <advance width="229"/>
  <unicode hex="00B7"/>
  <outline>
    <contour>
      <point x="115" y="392" type="curve" smooth="yes"/>
      <point x="140" y="392"/>
      <point x="154" y="377"/>
      <point x="154" y="354" type="curve" smooth="yes"/>
      <point x="154" y="330"/>
      <point x="140" y="315"/>
      <point x="115" y="315" type="curve" smooth="yes"/>
      <point x="91" y="315"/>
      <point x="75" y="329"/>
      <point x="75" y="354" type="curve" smooth="yes"/>
      <point x="75" y="377"/>
      <point x="90" y="392"/>
    </contour>
  </outline>
</glyph>
<glyph name="cedilla" format="2">
  <advance width="576"/>
  <unicode hex="00B8"/>
  <outline>
    <contour>
      <point x="280" y="-78" type="line"/>
      <point x="295" y="-75"/>
      <point x="303" y="-75"/>
      <point x="315" y="-75" type="curve"/>
      <point x="358" y="-76"/>
      <point x="389" y="-102"/>
      <point x="389" y="-153" type="curve" smooth="yes"/>
      <point x="389" y="-233"/>
      <point x="307" y="-256"/>
      <point x="241" y="-248" type="curve"/>
      <point x="241" y="-221" type="line"/>
      <point x="280" y="-226"/>
      <point x="359" y="-219"/>
      <point x="359" y="-151" type="curve" smooth="yes"/>
      <point x="359" y="-118"/>
      <point x="336" y="-100"/>
      <point x="300" y="-100" type="curve" smooth="yes"/>
      <point x="284" y="-100"/>
      <point x="259" y="-105"/>
      <point x="244" y="-109" type="curve"/>
      <point x="284" y="18" type="line"/>
      <point x="310" y="18" type="line"/>
    </contour>
  </outline>
</glyph>
<glyph name="ordmasculine" format="2">
  <advance width="373"/>
  <unicode hex="00BA"/>
  <outline>
    <contour>
      <point x="303" y="569" type="curve" smooth="yes"/>
      <point x="303" y="493"/>
      <point x="270" y="431"/>
      <point x="186" y="431" type="curve" smooth="yes"/>
      <point x="102" y="431"/>
      <point x="70" y="492"/>
      <point x="70" y="569" type="curve" smooth="yes"/>
      <point x="70" y="645"/>
      <point x="102" y="708"/>
      <point x="186" y="708" type="curve" smooth="yes"/>
      <point x="269" y="708"/>
      <point x="303" y="645"/>
    </contour>
    <contour>
      <point x="271" y="569" type="curve" smooth="yes"/>
      <point x="271" y="630"/>
      <point x="246" y="682"/>
      <point x="186" y="682" type="curve" smooth="yes"/>
      <point x="125" y="682"/>
      <point x="102" y="630"/>
      <point x="102" y="569" type="curve" smooth="yes"/>
      <point x="102" y="508"/>
      <point x="125" y="457"/>
      <point x="186" y="457" type="curve" smooth="yes"/>
      <point x="247" y="457"/>
      <point x="271" y="508"/>
    </contour>
  </outline>
</glyph>
<glyph name="guillemotright" format="2">
  <advance width="443"/>
  <unicode hex="00BB"/>
  <outline>
    <contour>
      <point x="62" y="419" type="line"/>
      <point x="103" y="419" type="line"/>
      <point x="211" y="259" type="line"/>
      <point x="103" y="97" type="line"/>
      <point x="63" y="97" type="line"/>
      <point x="170" y="258" type="line"/>
    </contour>
    <contour>
      <point x="249" y="419" type="line"/>
      <point x="290" y="419" type="line"/>
      <point x="398" y="259" type="line"/>
      <point x="290" y="97" type="line"/>
      <point x="250" y="97" type="line"/>
      <point x="358" y="258" type="line"/>
    </contour>
  </outline>
</glyph>
<glyph name="questiondown" format="2">
  <advance width="498"/>
  <unicode hex="00BF"/>
  <outline>
    <contour>
      <point x="251" y="323" type="line"/>
      <point x="299" y="323" type="line"/>
      <point x="299" y="308" type="line" smooth="yes"/>
      <point x="299" y="240"/>
      <point x="250" y="190"/>
      <point x="203" y="146" type="curve" smooth="yes"/>
      <point x="158" y="104"/>
      <point x="103" y="46"/>
      <point x="103" y="-19" type="curve" smooth="yes"/>
      <point x="103" y="-107"/>
      <point x="174" y="-152"/>
      <point x="252" y="-152" type="curve" smooth="yes"/>
      <point x="317" y="-152"/>
      <point x="386" y="-128"/>
      <point x="407" y="-67" type="curve"/>
      <point x="455" y="-67" type="line"/>
      <point x="423" y="-162"/>
      <point x="329" y="-188"/>
      <point x="252" y="-188" type="curve" smooth="yes"/>
      <point x="148" y="-188"/>
      <point x="61" y="-133"/>
      <point x="61" y="-22" type="curve" smooth="yes"/>
      <point x="61" y="54"/>
      <point x="103" y="106"/>
      <point x="168" y="167" type="curve" smooth="yes"/>
      <point x="213" y="209"/>
      <point x="251" y="244"/>
      <point x="251" y="308" type="curve" smooth="yes"/>
    </contour>
    <contour>
      <point x="273" y="454" type="curve" smooth="yes"/>
      <point x="252" y="454"/>
      <point x="234" y="468"/>
      <point x="234" y="495" type="curve" smooth="yes"/>
      <point x="234" y="519"/>
      <point x="250" y="534"/>
      <point x="273" y="534" type="curve" smooth="yes"/>
      <point x="298" y="534"/>
      <point x="314" y="518"/>
      <point x="314" y="494" type="curve" smooth="yes"/>
      <point x="314" y="469"/>
      <point x="298" y="454"/>
    </contour>
  </outline>
</glyph>
<glyph name="Agrave" format="2">
  <advance width="638"/>
  <unicode hex="00C0"/>
  <outline>
    <contour>
      <point x="294" y="707" type="line"/>
      <point x="341" y="707" type="line"/>
      <point x="622" y="0" type="line"/>
      <point x="573" y="0" type="line"/>
      <point x="509" y="163" type="line"/>
      <point x="127" y="163" type="line"/>
      <point x="64" y="0" type="line"/>
      <point x="16" y="0" type="line"/>
    </contour>
    <contour>
      <point x="141" y="200" type="line"/>
      <point x="494" y="200" type="line"/>
      <point x="318" y="657" type="line"/>
    </contour>
    <contour>
      <point x="266" y="923" type="line"/>
      <point x="342" y="796" type="line"/>
      <point x="304" y="796" type="line"/>
      <point x="216" y="923" type="line"/>
    </contour>
  </outline>
</glyph>
<glyph name="Aacute" format="2">
  <advance width="638"/>
  <unicode hex="00C1"/>
  <outline>
    <contour>
      <point x="294" y="707" type="line"/>
      <point x="341" y="707" type="line"/>
      <point x="622" y="0" type="line"/>
      <point x="573" y="0" type="line"/>
      <point x="509" y="163" type="line"/>
      <point x="127" y="163" type="line"/>
      <point x="64" y="0" type="line"/>
      <point x="16" y="0" type="line"/>
    </contour>
    <contour>
      <point x="141" y="200" type="line"/>
      <point x="494" y="200" type="line"/>
      <point x="318" y="657" type="line"/>
    </contour>
    <contour>
      <point x="427" y="923" type="line"/>
      <point x="339" y="796" type="line"/>
      <point x="301" y="796" type="line"/>
      <point x="377" y="923" type="line"/>
    </contour>
  </outline>
</glyph>
<glyph name="Acircumflex" format="2">
  <advance width="638"/>
  <unicode hex="00C2"/>
  <outline>
    <contour>
      <point x="294" y="707" type="line"/>
      <point x="341" y="707" type="line"/>
      <point x="622" y="0" type="line"/>
      <point x="573" y="0" type="line"/>
      <point x="509" y="163" type="line"/>
      <point x="127" y="163" type="line"/>
      <point x="64" y="0" type="line"/>
      <point x="16" y="0" type="line"/>
    </contour>
    <contour>
      <point x="141" y="200" type="line"/>
      <point x="494" y="200" type="line"/>
      <point x="318" y="657" type="line"/>
    </contour>
    <contour>
      <point x="403" y="796" type="line"/>
      <point x="318" y="894" type="line"/>
      <point x="236" y="796" type="line"/>
      <point x="192" y="796" type="line"/>
      <point x="303" y="923" type="line"/>
      <point x="335" y="923" type="line"/>
      <point x="446" y="796" type="line"/>
    </contour>
  </outline>
</glyph>
<glyph name="Atilde" format="2">
  <advance width="638"/>
  <unicode hex="00C3"/>
  <outline>
    <contour>
      <point x="294" y="707" type="line"/>
      <point x="341" y="707" type="line"/>
      <point x="622" y="0" type="line"/>
      <point x="573" y="0" type="line"/>
      <point x="509" y="163" type="line"/>
      <point x="127" y="163" type="line"/>
      <point x="64" y="0" type="line"/>
      <point x="16" y="0" type="line"/>
    </contour>
    <contour>
      <point x="141" y="200" type="line"/>
      <point x="494" y="200" type="line"/>
      <point x="318" y="657" type="line"/>
    </contour>
    <contour>
      <point x="257" y="898" type="curve" smooth="yes"/>
      <point x="319" y="898"/>
      <point x="341" y="822"/>
      <point x="386" y="822" type="curve" smooth="yes"/>
      <point x="426" y="822"/>
      <point x="430" y="861"/>
      <point x="430" y="894" type="curve"/>
      <point x="467" y="894" type="line"/>
      <point x="467" y="835"/>
      <point x="445" y="792"/>
      <point x="384" y="792" type="curve" smooth="yes"/>
      <point x="321" y="792"/>
      <point x="299" y="868"/>
      <point x="254" y="868" type="curve" smooth="yes"/>
      <point x="216" y="868"/>
      <point x="208" y="827"/>
      <point x="211" y="796" type="curve"/>
      <point x="174" y="796" type="line"/>
      <point x="174" y="854"/>
      <point x="194" y="898"/>
    </contour>
  </outline>
</glyph>
<glyph name="Adieresis" format="2">
  <advance width="638"/>
  <unicode hex="00C4"/>
  <outline>
    <contour>
      <point x="294" y="707" type="line"/>
      <point x="341" y="707" type="line"/>
      <point x="622" y="0" type="line"/>
      <point x="573" y="0" type="line"/>
      <point x="509" y="163" type="line"/>
      <point x="127" y="163" type="line"/>
      <point x="64" y="0" type="line"/>
      <point x="16" y="0" type="line"/>
    </contour>
    <contour>
      <point x="141" y="200" type="line"/>
      <point x="494" y="200" type="line"/>
      <point x="318" y="657" type="line"/>
    </contour>
    <contour>
      <point x="423" y="874" type="curve" smooth="yes"/>
      <point x="448" y="874"/>
      <point x="464" y="858"/>
      <point x="464" y="835" type="curve" smooth="yes"/>
      <point x="464" y="812"/>
      <point x="448" y="796"/>
      <point x="423" y="796" type="curve" smooth="yes"/>
      <point x="399" y="796"/>
      <point x="384" y="814"/>
      <point x="384" y="835" type="curve" smooth="yes"/>
      <point x="384" y="856"/>
      <point x="399" y="874"/>
    </contour>
    <contour>
      <point x="212" y="874" type="curve" smooth="yes"/>
      <point x="237" y="874"/>
      <point x="253" y="858"/>
      <point x="253" y="835" type="curve" smooth="yes"/>
      <point x="253" y="812"/>
      <point x="237" y="796"/>
      <point x="212" y="796" type="curve" smooth="yes"/>
      <point x="188" y="796"/>
      <point x="173" y="814"/>
      <point x="173" y="835" type="curve" smooth="yes"/>
      <point x="173" y="856"/>
      <point x="188" y="874"/>
    </contour>
  </outline>
</glyph>
<glyph name="Aring" format="2">
  <advance width="638"/>
  <unicode hex="00C5"/>
  <outline>
    <contour>
      <point x="294" y="707" type="line"/>
      <point x="341" y="707" type="line"/>
      <point x="622" y="0" type="line"/>
      <point x="573" y="0" type="line"/>
      <point x="509" y="163" type="line"/>
      <point x="127" y="163" type="line"/>
      <point x="64" y="0" type="line"/>
      <point x="16" y="0" type="line"/>
    </contour>
    <contour>
      <point x="141" y="200" type="line"/>
      <point x="494" y="200" type="line"/>
      <point x="318" y="657" type="line"/>
    </contour>
    <contour>
      <point x="319" y="941" type="curve" smooth="yes"/>
      <point x="371" y="941"/>
      <point x="404" y="905"/>
      <point x="404" y="856" type="curve" smooth="yes"/>
      <point x="404" y="805"/>
      <point x="369" y="776"/>
      <point x="318" y="776" type="curve" smooth="yes"/>
      <point x="267" y="776"/>
      <point x="234" y="807"/>
      <point x="234" y="856" type="curve" smooth="yes"/>
      <point x="234" y="905"/>
      <point x="268" y="941"/>
    </contour>
    <contour>
      <point x="319" y="914" type="curve" smooth="yes"/>
      <point x="284" y="914"/>
      <point x="265" y="890"/>
      <point x="265" y="857" type="curve" smooth="yes"/>
      <point x="265" y="822"/>
      <point x="285" y="802"/>
      <point x="318" y="802" type="curve" smooth="yes"/>
      <point x="353" y="802"/>
      <point x="373" y="822"/>
      <point x="373" y="857" type="curve" smooth="yes"/>
      <point x="373" y="890"/>
      <point x="354" y="914"/>
    </contour>
  </outline>
</glyph>
<glyph name="AE" format="2">
  <advance width="929"/>
  <unicode hex="00C6"/>
  <outline>
    <contour>
      <point x="875" y="707" type="line"/>
      <point x="875" y="669" type="line"/>
      <point x="481" y="669" type="line"/>
      <point x="481" y="370" type="line"/>
      <point x="833" y="370" type="line"/>
      <point x="833" y="332" type="line"/>
      <point x="481" y="332" type="line"/>
      <point x="481" y="38" type="line"/>
      <point x="875" y="38" type="line"/>
      <point x="875" y="0" type="line"/>
      <point x="439" y="0" type="line"/>
      <point x="439" y="166" type="line"/>
      <point x="157" y="166" type="line"/>
      <point x="66" y="0" type="line"/>
      <point x="16" y="0" type="line"/>
      <point x="405" y="707" type="line"/>
    </contour>
    <contour>
      <point x="177" y="203" type="line"/>
      <point x="439" y="203" type="line"/>
      <point x="439" y="669" type="line"/>
      <point x="431" y="669" type="line"/>
    </contour>
  </outline>
</glyph>
<glyph name="Ccedilla" format="2">
  <advance width="699"/>
  <unicode hex="00C7"/>
  <outline>
    <contour>
      <point x="383" y="679" type="curve" smooth="yes"/>
      <point x="187" y="679"/>
      <point x="96" y="530"/>
      <point x="96" y="355" type="curve" smooth="yes"/>
      <point x="96" y="178"/>
      <point x="184" y="28"/>
      <point x="378" y="28" type="curve" smooth="yes"/>
      <point x="465" y="28"/>
      <point x="565" y="64"/>
      <point x="602" y="149" type="curve"/>
      <point x="651" y="149" type="line"/>
      <point x="606" y="41"/>
      <point x="490" y="-8"/>
      <point x="377" y="-8" type="curve"/>
      <point x="355" y="-79" type="line"/>
      <point x="370" y="-76"/>
      <point x="376" y="-76"/>
      <point x="391" y="-76" type="curve" smooth="yes"/>
      <point x="431" y="-77"/>
      <point x="465" y="-101"/>
      <point x="465" y="-153" type="curve" smooth="yes"/>
      <point x="465" y="-232"/>
      <point x="383" y="-256"/>
      <point x="316" y="-248" type="curve"/>
      <point x="316" y="-222" type="line"/>
      <point x="355" y="-225"/>
      <point x="434" y="-220"/>
      <point x="434" y="-151" type="curve" smooth="yes"/>
      <point x="434" y="-112"/>
      <point x="410" y="-100"/>
      <point x="374" y="-100" type="curve" smooth="yes"/>
      <point x="359" y="-100"/>
      <point x="334" y="-103"/>
      <point x="319" y="-108" type="curve"/>
      <point x="351" y="-7" type="line"/>
      <point x="147" y="4"/>
      <point x="54" y="154"/>
      <point x="54" y="353" type="curve" smooth="yes"/>
      <point x="54" y="557"/>
      <point x="160" y="715"/>
      <point x="379" y="715" type="curve" smooth="yes"/>
      <point x="495" y="715"/>
      <point x="598" y="670"/>
      <point x="638" y="558" type="curve"/>
      <point x="594" y="558" type="line"/>
      <point x="555" y="641"/>
      <point x="475" y="679"/>
    </contour>
  </outline>
</glyph>
<glyph name="Egrave" format="2">
  <advance width="603"/>
  <unicode hex="00C8"/>
  <outline>
    <contour>
      <point x="93" y="707" type="line"/>
      <point x="549" y="707" type="line"/>
      <point x="549" y="669" type="line"/>
      <point x="135" y="669" type="line"/>
      <point x="135" y="370" type="line"/>
      <point x="507" y="370" type="line"/>
      <point x="507" y="332" type="line"/>
      <point x="135" y="332" type="line"/>
      <point x="135" y="38" type="line"/>
      <point x="549" y="38" type="line"/>
      <point x="549" y="0" type="line"/>
      <point x="93" y="0" type="line"/>
    </contour>
    <contour>
      <point x="280" y="923" type="line"/>
      <point x="356" y="796" type="line"/>
      <point x="318" y="796" type="line"/>
      <point x="230" y="923" type="line"/>
    </contour>
  </outline>
</glyph>
<glyph name="Eacute" format="2">
  <advance width="603"/>
  <unicode hex="00C9"/>
  <outline>
    <contour>
      <point x="93" y="707" type="line"/>
      <point x="549" y="707" type="line"/>
      <point x="549" y="669" type="line"/>
      <point x="135" y="669" type="line"/>
      <point x="135" y="370" type="line"/>
      <point x="507" y="370" type="line"/>
      <point x="507" y="332" type="line"/>
      <point x="135" y="332" type="line"/>
      <point x="135" y="38" type="line"/>
      <point x="549" y="38" type="line"/>
      <point x="549" y="0" type="line"/>
      <point x="93" y="0" type="line"/>
    </contour>
    <contour>
      <point x="423" y="923" type="line"/>
      <point x="335" y="796" type="line"/>
      <point x="297" y="796" type="line"/>
      <point x="373" y="923" type="line"/>
    </contour>
  </outline>
</glyph>
<glyph name="Ecircumflex" format="2">
  <advance width="603"/>
  <unicode hex="00CA"/>
  <outline>
    <contour>
      <point x="93" y="707" type="line"/>
      <point x="549" y="707" type="line"/>
      <point x="549" y="669" type="line"/>
      <point x="135" y="669" type="line"/>
      <point x="135" y="370" type="line"/>
      <point x="507" y="370" type="line"/>
      <point x="507" y="332" type="line"/>
      <point x="135" y="332" type="line"/>
      <point x="135" y="38" type="line"/>
      <point x="549" y="38" type="line"/>
      <point x="549" y="0" type="line"/>
      <point x="93" y="0" type="line"/>
    </contour>
    <contour>
      <point x="405" y="796" type="line"/>
      <point x="320" y="894" type="line"/>
      <point x="238" y="796" type="line"/>
      <point x="194" y="796" type="line"/>
      <point x="305" y="923" type="line"/>
      <point x="337" y="923" type="line"/>
      <point x="448" y="796" type="line"/>
    </contour>
  </outline>
</glyph>
<glyph name="Edieresis" format="2">
  <advance width="603"/>
  <unicode hex="00CB"/>
  <outline>
    <contour>
      <point x="93" y="707" type="line"/>
      <point x="549" y="707" type="line"/>
      <point x="549" y="669" type="line"/>
      <point x="135" y="669" type="line"/>
      <point x="135" y="370" type="line"/>
      <point x="507" y="370" type="line"/>
      <point x="507" y="332" type="line"/>
      <point x="135" y="332" type="line"/>
      <point x="135" y="38" type="line"/>
      <point x="549" y="38" type="line"/>
      <point x="549" y="0" type="line"/>
      <point x="93" y="0" type="line"/>
    </contour>
    <contour>
      <point x="431" y="894" type="curve" smooth="yes"/>
      <point x="456" y="894"/>
      <point x="472" y="878"/>
      <point x="472" y="855" type="curve" smooth="yes"/>
      <point x="472" y="832"/>
      <point x="456" y="816"/>
      <point x="431" y="816" type="curve" smooth="yes"/>
      <point x="407" y="816"/>
      <point x="392" y="834"/>
      <point x="392" y="855" type="curve" smooth="yes"/>
      <point x="392" y="876"/>
      <point x="407" y="894"/>
    </contour>
    <contour>
      <point x="220" y="894" type="curve" smooth="yes"/>
      <point x="245" y="894"/>
      <point x="261" y="878"/>
      <point x="261" y="855" type="curve" smooth="yes"/>
      <point x="261" y="832"/>
      <point x="245" y="816"/>
      <point x="220" y="816" type="curve" smooth="yes"/>
      <point x="196" y="816"/>
      <point x="181" y="834"/>
      <point x="181" y="855" type="curve" smooth="yes"/>
      <point x="181" y="876"/>
      <point x="196" y="894"/>
    </contour>
  </outline>
</glyph>
<glyph name="Igrave" format="2">
  <advance width="228"/>
  <unicode hex="00CC"/>
  <outline>
    <contour>
      <point x="135" y="0" type="line"/>
      <point x="93" y="0" type="line"/>
      <point x="93" y="707" type="line"/>
      <point x="135" y="707" type="line"/>
    </contour>
    <contour>
      <point x="71" y="923" type="line"/>
      <point x="147" y="796" type="line"/>
      <point x="109" y="796" type="line"/>
      <point x="21" y="923" type="line"/>
    </contour>
  </outline>
</glyph>
<glyph name="Iacute" format="2">
  <advance width="228"/>
  <unicode hex="00CD"/>
  <outline>
    <contour>
      <point x="135" y="0" type="line"/>
      <point x="93" y="0" type="line"/>
      <point x="93" y="707" type="line"/>
      <point x="135" y="707" type="line"/>
    </contour>
    <contour>
      <point x="216" y="923" type="line"/>
      <point x="128" y="796" type="line"/>
      <point x="90" y="796" type="line"/>
      <point x="166" y="923" type="line"/>
    </contour>
  </outline>
</glyph>
<glyph name="Icircumflex" format="2">
  <advance width="228"/>
  <unicode hex="00CE"/>
  <outline>
    <contour>
      <point x="135" y="0" type="line"/>
      <point x="93" y="0" type="line"/>
      <point x="93" y="707" type="line"/>
      <point x="135" y="707" type="line"/>
    </contour>
    <contour>
      <point x="198" y="796" type="line"/>
      <point x="113" y="894" type="line"/>
      <point x="31" y="796" type="line"/>
      <point x="-13" y="796" type="line"/>
      <point x="98" y="923" type="line"/>
      <point x="130" y="923" type="line"/>
      <point x="241" y="796" type="line"/>
    </contour>
  </outline>
</glyph>
<glyph name="Idieresis" format="2">
  <advance width="228"/>
  <unicode hex="00CF"/>
  <outline>
    <contour>
      <point x="135" y="0" type="line"/>
      <point x="93" y="0" type="line"/>
      <point x="93" y="707" type="line"/>
      <point x="135" y="707" type="line"/>
    </contour>
    <contour>
      <point x="218" y="874" type="curve" smooth="yes"/>
      <point x="243" y="874"/>
      <point x="259" y="858"/>
      <point x="259" y="835" type="curve" smooth="yes"/>
      <point x="259" y="812"/>
      <point x="243" y="796"/>
      <point x="218" y="796" type="curve" smooth="yes"/>
      <point x="194" y="796"/>
      <point x="179" y="814"/>
      <point x="179" y="835" type="curve" smooth="yes"/>
      <point x="179" y="856"/>
      <point x="194" y="874"/>
    </contour>
    <contour>
      <point x="7" y="874" type="curve" smooth="yes"/>
      <point x="32" y="874"/>
      <point x="48" y="858"/>
      <point x="48" y="835" type="curve" smooth="yes"/>
      <point x="48" y="812"/>
      <point x="32" y="796"/>
      <point x="7" y="796" type="curve" smooth="yes"/>
      <point x="-17" y="796"/>
      <point x="-32" y="814"/>
      <point x="-32" y="835" type="curve" smooth="yes"/>
      <point x="-32" y="856"/>
      <point x="-17" y="874"/>
    </contour>
  </outline>
</glyph>
<glyph name="Eth" format="2">
  <advance width="720"/>
  <unicode hex="00D0"/>
  <outline>
    <contour>
      <point x="135" y="669" type="line"/>
      <point x="135" y="372" type="line"/>
      <point x="318" y="372" type="line"/>
      <point x="318" y="334" type="line"/>
      <point x="135" y="334" type="line"/>
      <point x="135" y="38" type="line"/>
      <point x="328" y="38" type="line" smooth="yes"/>
      <point x="523" y="38"/>
      <point x="621" y="166"/>
      <point x="621" y="353" type="curve" smooth="yes"/>
      <point x="621" y="537"/>
      <point x="528" y="669"/>
      <point x="335" y="669" type="curve" smooth="yes"/>
    </contour>
    <contour>
      <point x="7" y="372" type="line"/>
      <point x="93" y="372" type="line"/>
      <point x="93" y="707" type="line"/>
      <point x="336" y="707" type="line" smooth="yes"/>
      <point x="555" y="707"/>
      <point x="665" y="563"/>
      <point x="665" y="353" type="curve" smooth="yes"/>
      <point x="665" y="145"/>
      <point x="552" y="0"/>
      <point x="336" y="0" type="curve" smooth="yes"/>
      <point x="93" y="0" type="line"/>
      <point x="93" y="334" type="line"/>
      <point x="7" y="334" type="line"/>
    </contour>
  </outline>
</glyph>
<glyph name="Ntilde" format="2">
  <advance width="744"/>
  <unicode hex="00D1"/>
  <outline>
    <contour>
      <point x="93" y="707" type="line"/>
      <point x="154" y="707" type="line"/>
      <point x="609" y="49" type="line"/>
      <point x="609" y="707" type="line"/>
      <point x="651" y="707" type="line"/>
      <point x="651" y="0" type="line"/>
      <point x="593" y="0" type="line"/>
      <point x="135" y="659" type="line"/>
      <point x="135" y="0" type="line"/>
      <point x="93" y="0" type="line"/>
    </contour>
    <contour>
      <point x="319" y="898" type="curve" smooth="yes"/>
      <point x="381" y="898"/>
      <point x="403" y="822"/>
      <point x="448" y="822" type="curve" smooth="yes"/>
      <point x="488" y="822"/>
      <point x="492" y="861"/>
      <point x="492" y="894" type="curve"/>
      <point x="529" y="894" type="line"/>
      <point x="529" y="835"/>
      <point x="507" y="792"/>
      <point x="446" y="792" type="curve" smooth="yes"/>
      <point x="383" y="792"/>
      <point x="361" y="868"/>
      <point x="316" y="868" type="curve" smooth="yes"/>
      <point x="278" y="868"/>
      <point x="270" y="827"/>
      <point x="273" y="796" type="curve"/>
      <point x="236" y="796" type="line"/>
      <point x="236" y="854"/>
      <point x="256" y="898"/>
    </contour>
  </outline>
</glyph>
<glyph name="Oacute" format="2">
  <advance width="767"/>
  <unicode hex="00D3"/>
  <outline>
    <contour>
      <point x="384" y="-8" type="curve" smooth="yes"/>
      <point x="166" y="-8"/>
      <point x="54" y="145"/>
      <point x="54" y="353" type="curve" smooth="yes"/>
      <point x="54" y="561"/>
      <point x="166" y="715"/>
      <point x="384" y="715" type="curve" smooth="yes"/>
      <point x="601" y="715"/>
      <point x="713" y="560"/>
      <point x="713" y="353" type="curve" smooth="yes"/>
      <point x="713" y="146"/>
      <point x="601" y="-8"/>
    </contour>
    <contour>
      <point x="384" y="679" type="curve" smooth="yes"/>
      <point x="191" y="679"/>
      <point x="98" y="531"/>
      <point x="98" y="353" type="curve" smooth="yes"/>
      <point x="98" y="174"/>
      <point x="195" y="28"/>
      <point x="384" y="28" type="curve" smooth="yes"/>
      <point x="576" y="28"/>
      <point x="668" y="173"/>
      <point x="668" y="353" type="curve" smooth="yes"/>
      <point x="668" y="531"/>
      <point x="577" y="679"/>
    </contour>
    <contour>
      <point x="476" y="923" type="line"/>
      <point x="388" y="796" type="line"/>
      <point x="350" y="796" type="line"/>
      <point x="426" y="923" type="line"/>
    </contour>
  </outline>
</glyph>
<glyph name="Otilde" format="2">
  <advance width="767"/>
  <unicode hex="00D5"/>
  <outline>
    <contour>
      <point x="384" y="-8" type="curve" smooth="yes"/>
      <point x="166" y="-8"/>
      <point x="54" y="145"/>
      <point x="54" y="353" type="curve" smooth="yes"/>
      <point x="54" y="561"/>
      <point x="166" y="715"/>
      <point x="384" y="715" type="curve" smooth="yes"/>
      <point x="601" y="715"/>
      <point x="713" y="560"/>
      <point x="713" y="353" type="curve" smooth="yes"/>
      <point x="713" y="146"/>
      <point x="601" y="-8"/>
    </contour>
    <contour>
      <point x="384" y="679" type="curve" smooth="yes"/>
      <point x="191" y="679"/>
      <point x="98" y="531"/>
      <point x="98" y="353" type="curve" smooth="yes"/>
      <point x="98" y="174"/>
      <point x="195" y="28"/>
      <point x="384" y="28" type="curve" smooth="yes"/>
      <point x="576" y="28"/>
      <point x="668" y="173"/>
      <point x="668" y="353" type="curve" smooth="yes"/>
      <point x="668" y="531"/>
      <point x="577" y="679"/>
    </contour>
    <contour>
      <point x="324" y="898" type="curve" smooth="yes"/>
      <point x="386" y="898"/>
      <point x="408" y="822"/>
      <point x="453" y="822" type="curve" smooth="yes"/>
      <point x="493" y="822"/>
      <point x="497" y="861"/>
      <point x="497" y="894" type="curve"/>
      <point x="534" y="894" type="line"/>
      <point x="534" y="835"/>
      <point x="512" y="792"/>
      <point x="451" y="792" type="curve" smooth="yes"/>
      <point x="388" y="792"/>
      <point x="366" y="868"/>
      <point x="321" y="868" type="curve" smooth="yes"/>
      <point x="283" y="868"/>
      <point x="275" y="827"/>
      <point x="278" y="796" type="curve"/>
      <point x="241" y="796" type="line"/>
      <point x="241" y="854"/>
      <point x="261" y="898"/>
    </contour>
  </outline>
</glyph>
<glyph name="Odieresis" format="2">
  <advance width="767"/>
  <unicode hex="00D6"/>
  <outline>
    <contour>
      <point x="384" y="-8" type="curve" smooth="yes"/>
      <point x="166" y="-8"/>
      <point x="54" y="145"/>
      <point x="54" y="353" type="curve" smooth="yes"/>
      <point x="54" y="561"/>
      <point x="166" y="715"/>
      <point x="384" y="715" type="curve" smooth="yes"/>
      <point x="601" y="715"/>
      <point x="713" y="560"/>
      <point x="713" y="353" type="curve" smooth="yes"/>
      <point x="713" y="146"/>
      <point x="601" y="-8"/>
    </contour>
    <contour>
      <point x="384" y="679" type="curve" smooth="yes"/>
      <point x="191" y="679"/>
      <point x="98" y="531"/>
      <point x="98" y="353" type="curve" smooth="yes"/>
      <point x="98" y="174"/>
      <point x="195" y="28"/>
      <point x="384" y="28" type="curve" smooth="yes"/>
      <point x="576" y="28"/>
      <point x="668" y="173"/>
      <point x="668" y="353" type="curve" smooth="yes"/>
      <point x="668" y="531"/>
      <point x="577" y="679"/>
    </contour>
    <contour>
      <point x="488" y="874" type="curve" smooth="yes"/>
      <point x="513" y="874"/>
      <point x="529" y="858"/>
      <point x="529" y="835" type="curve" smooth="yes"/>
      <point x="529" y="812"/>
      <point x="513" y="796"/>
      <point x="488" y="796" type="curve" smooth="yes"/>
      <point x="464" y="796"/>
      <point x="449" y="814"/>
      <point x="449" y="835" type="curve" smooth="yes"/>
      <point x="449" y="856"/>
      <point x="464" y="874"/>
    </contour>
    <contour>
      <point x="277" y="874" type="curve" smooth="yes"/>
      <point x="302" y="874"/>
      <point x="318" y="858"/>
      <point x="318" y="835" type="curve" smooth="yes"/>
      <point x="318" y="812"/>
      <point x="302" y="796"/>
      <point x="277" y="796" type="curve" smooth="yes"/>
      <point x="253" y="796"/>
      <point x="238" y="814"/>
      <point x="238" y="835" type="curve" smooth="yes"/>
      <point x="238" y="856"/>
      <point x="253" y="874"/>
    </contour>
  </outline>
</glyph>
<glyph name="multiply" format="2">
  <advance width="442"/>
  <unicode hex="00D7"/>
  <outline>
    <contour>
      <point x="221" y="331" type="line"/>
      <point x="73" y="182" type="line"/>
      <point x="50" y="205" type="line"/>
      <point x="200" y="353" type="line"/>
      <point x="50" y="502" type="line"/>
      <point x="74" y="525" type="line"/>
      <point x="222" y="374" type="line"/>
      <point x="369" y="525" type="line"/>
      <point x="392" y="502" type="line"/>
      <point x="244" y="353" type="line"/>
      <point x="392" y="205" type="line"/>
      <point x="369" y="182" type="line"/>
    </contour>
  </outline>
</glyph>
<glyph name="Oslash" format="2">
  <advance width="767"/>
  <unicode hex="00D8"/>
  <outline>
    <contour>
      <point x="165" y="-110" type="line"/>
      <point x="222" y="27" type="line"/>
      <point x="99" y="91"/>
      <point x="54" y="222"/>
      <point x="54" y="353" type="curve" smooth="yes"/>
      <point x="54" y="560"/>
      <point x="166" y="715"/>
      <point x="384" y="715" type="curve" smooth="yes"/>
      <point x="427" y="715"/>
      <point x="467" y="709"/>
      <point x="503" y="697" type="curve"/>
      <point x="553" y="816" type="line"/>
      <point x="602" y="816" type="line"/>
      <point x="544" y="679" type="line"/>
      <point x="667" y="615"/>
      <point x="713" y="485"/>
      <point x="713" y="353" type="curve" smooth="yes"/>
      <point x="713" y="148"/>
      <point x="601" y="-8"/>
      <point x="384" y="-8" type="curve" smooth="yes"/>
      <point x="339" y="-8"/>
      <point x="299" y="-2"/>
      <point x="264" y="10" type="curve"/>
      <point x="214" y="-110" type="line"/>
    </contour>
    <contour>
      <point x="279" y="45" type="line"/>
      <point x="311" y="34"/>
      <point x="346" y="28"/>
      <point x="384" y="28" type="curve" smooth="yes"/>
      <point x="577" y="28"/>
      <point x="668" y="174"/>
      <point x="668" y="353" type="curve" smooth="yes"/>
      <point x="668" y="468"/>
      <point x="633" y="581"/>
      <point x="529" y="642" type="curve"/>
    </contour>
    <contour>
      <point x="488" y="662" type="line"/>
      <point x="456" y="673"/>
      <point x="421" y="679"/>
      <point x="384" y="679" type="curve" smooth="yes"/>
      <point x="192" y="679"/>
      <point x="98" y="531"/>
      <point x="98" y="353" type="curve" smooth="yes"/>
      <point x="98" y="241"/>
      <point x="137" y="124"/>
      <point x="238" y="65" type="curve"/>
    </contour>
  </outline>
</glyph>
<glyph name="Ucircumflex" format="2">
  <advance width="718"/>
  <unicode hex="00DB"/>
  <outline>
    <contour>
      <point x="630" y="707" type="line"/>
      <point x="630" y="299" type="line" smooth="yes"/>
      <point x="630" y="119"/>
      <point x="551" y="-8"/>
      <point x="359" y="-8" type="curve" smooth="yes"/>
      <point x="168" y="-8"/>
      <point x="88" y="119"/>
      <point x="88" y="299" type="curve" smooth="yes"/>
      <point x="88" y="707" type="line"/>
      <point x="131" y="707" type="line"/>
      <point x="131" y="303" type="line" smooth="yes"/>
      <point x="131" y="149"/>
      <point x="195" y="28"/>
      <point x="360" y="28" type="curve" smooth="yes"/>
      <point x="528" y="28"/>
      <point x="588" y="151"/>
      <point x="588" y="303" type="curve" smooth="yes"/>
      <point x="588" y="707" type="line"/>
    </contour>
    <contour>
      <point x="444" y="796" type="line"/>
      <point x="359" y="894" type="line"/>
      <point x="277" y="796" type="line"/>
      <point x="233" y="796" type="line"/>
      <point x="344" y="923" type="line"/>
      <point x="376" y="923" type="line"/>
      <point x="487" y="796" type="line"/>
    </contour>
  </outline>
</glyph>
<glyph name="Udieresis" format="2">
  <advance width="718"/>
  <unicode hex="00DC"/>
  <outline>
    <contour>
      <point x="630" y="707" type="line"/>
      <point x="630" y="299" type="line" smooth="yes"/>
      <point x="630" y="119"/>
      <point x="551" y="-8"/>
      <point x="359" y="-8" type="curve" smooth="yes"/>
      <point x="168" y="-8"/>
      <point x="88" y="119"/>
      <point x="88" y="299" type="curve" smooth="yes"/>
      <point x="88" y="707" type="line"/>
      <point x="131" y="707" type="line"/>
      <point x="131" y="303" type="line" smooth="yes"/>
      <point x="131" y="149"/>
      <point x="195" y="28"/>
      <point x="360" y="28" type="curve" smooth="yes"/>
      <point x="528" y="28"/>
      <point x="588" y="151"/>
      <point x="588" y="303" type="curve" smooth="yes"/>
      <point x="588" y="707" type="line"/>
    </contour>
    <contour>
      <point x="466" y="874" type="curve" smooth="yes"/>
      <point x="491" y="874"/>
      <point x="507" y="858"/>
      <point x="507" y="835" type="curve" smooth="yes"/>
      <point x="507" y="812"/>
      <point x="491" y="796"/>
      <point x="466" y="796" type="curve" smooth="yes"/>
      <point x="442" y="796"/>
      <point x="427" y="814"/>
      <point x="427" y="835" type="curve" smooth="yes"/>
      <point x="427" y="856"/>
      <point x="442" y="874"/>
    </contour>
    <contour>
      <point x="255" y="874" type="curve" smooth="yes"/>
      <point x="280" y="874"/>
      <point x="296" y="858"/>
      <point x="296" y="835" type="curve" smooth="yes"/>
      <point x="296" y="812"/>
      <point x="280" y="796"/>
      <point x="255" y="796" type="curve" smooth="yes"/>
      <point x="231" y="796"/>
      <point x="216" y="814"/>
      <point x="216" y="835" type="curve" smooth="yes"/>
      <point x="216" y="856"/>
      <point x="231" y="874"/>
    </contour>
  </outline>
</glyph>
<glyph name="Yacute" format="2">
  <advance width="583"/>
  <unicode hex="00DD"/>
  <outline>
    <contour>
      <point x="514" y="707" type="line"/>
      <point x="563" y="707" type="line"/>
      <point x="314" y="267" type="line"/>
      <point x="314" y="0" type="line"/>
      <point x="272" y="0" type="line"/>
      <point x="272" y="267" type="line"/>
      <point x="20" y="707" type="line"/>
      <point x="72" y="707" type="line"/>
      <point x="293" y="310" type="line"/>
    </contour>
    <contour>
      <point x="386" y="923" type="line"/>
      <point x="298" y="796" type="line"/>
      <point x="260" y="796" type="line"/>
      <point x="336" y="923" type="line"/>
    </contour>
  </outline>
</glyph>
<glyph name="Thorn" format="2">
  <advance width="624"/>
  <unicode hex="00DE"/>
  <outline>
    <contour>
      <point x="135" y="582" type="line"/>
      <point x="328" y="582" type="line" smooth="yes"/>
      <point x="479" y="582"/>
      <point x="569" y="511"/>
      <point x="569" y="355" type="curve" smooth="yes"/>
      <point x="569" y="199"/>
      <point x="456" y="125"/>
      <point x="309" y="125" type="curve" smooth="yes"/>
      <point x="135" y="125" type="line"/>
      <point x="135" y="0" type="line"/>
      <point x="93" y="0" type="line"/>
      <point x="93" y="707" type="line"/>
      <point x="135" y="707" type="line"/>
    </contour>
    <contour>
      <point x="305" y="162" type="line" smooth="yes"/>
      <point x="434" y="162"/>
      <point x="525" y="221"/>
      <point x="525" y="359" type="curve" smooth="yes"/>
      <point x="525" y="492"/>
      <point x="447" y="544"/>
      <point x="322" y="544" type="curve" smooth="yes"/>
      <point x="135" y="544" type="line"/>
      <point x="135" y="162" type="line"/>
    </contour>
  </outline>
</glyph>
<glyph name="germandbls" format="2">
  <advance width="578"/>
  <unicode hex="00DF"/>
  <outline>
    <contour>
      <point x="357" y="281" type="curve"/>
      <point x="384" y="270"/>
      <point x="411" y="262"/>
      <point x="442" y="252" type="curve" smooth="yes"/>
      <point x="495" y="234"/>
      <point x="533" y="202"/>
      <point x="533" y="137" type="curve" smooth="yes"/>
      <point x="533" y="37"/>
      <point x="470" y="-7"/>
      <point x="375" y="-7" type="curve" smooth="yes"/>
      <point x="296" y="-7"/>
      <point x="235" y="28"/>
      <point x="216" y="108" type="curve"/>
      <point x="261" y="108" type="line"/>
      <point x="274" y="57"/>
      <point x="321" y="29"/>
      <point x="372" y="29" type="curve" smooth="yes"/>
      <point x="437" y="29"/>
      <point x="491" y="56"/>
      <point x="491" y="128" type="curve" smooth="yes"/>
      <point x="491" y="184"/>
      <point x="459" y="206"/>
      <point x="411" y="223" type="curve" smooth="yes"/>
      <point x="384" y="232"/>
      <point x="359" y="238"/>
      <point x="334" y="247" type="curve" smooth="yes"/>
      <point x="285" y="266"/>
      <point x="252" y="296"/>
      <point x="252" y="357" type="curve" smooth="yes"/>
      <point x="252" y="437"/>
      <point x="368" y="508"/>
      <point x="368" y="584" type="curve" smooth="yes"/>
      <point x="368" y="648"/>
      <point x="304" y="683"/>
      <point x="246" y="683" type="curve" smooth="yes"/>
      <point x="165" y="683"/>
      <point x="117" y="630"/>
      <point x="117" y="546" type="curve" smooth="yes"/>
      <point x="117" y="0" type="line"/>
      <point x="75" y="0" type="line"/>
      <point x="75" y="547" type="line" smooth="yes"/>
      <point x="75" y="648"/>
      <point x="132" y="719"/>
      <point x="251" y="719" type="curve" smooth="yes"/>
      <point x="331" y="719"/>
      <point x="410" y="674"/>
      <point x="410" y="587" type="curve" smooth="yes"/>
      <point x="410" y="538"/>
      <point x="381" y="492"/>
      <point x="350" y="456" type="curve"/>
      <point x="322" y="421"/>
      <point x="294" y="389"/>
      <point x="294" y="354" type="curve"/>
      <point x="291" y="314"/>
      <point x="322" y="294"/>
    </contour>
  </outline>
</glyph>
<glyph name="agrave" format="2">
  <advance width="552"/>
  <unicode hex="00E0"/>
  <outline>
    <contour>
      <point x="440" y="81" type="line"/>
      <point x="397" y="24"/>
      <point x="330" y="-6"/>
      <point x="239" y="-7" type="curve"/>
      <point x="161" y="-7"/>
      <point x="53" y="25"/>
      <point x="53" y="142" type="curve" smooth="yes"/>
      <point x="53" y="258"/>
      <point x="146" y="291"/>
      <point x="248" y="291" type="curve" smooth="yes"/>
      <point x="440" y="291" type="line"/>
      <point x="440" y="404"/>
      <point x="398" y="498"/>
      <point x="278" y="498" type="curve" smooth="yes"/>
      <point x="227" y="498"/>
      <point x="163" y="486"/>
      <point x="133" y="432" type="curve"/>
      <point x="86" y="432" type="line"/>
      <point x="120" y="524"/>
      <point x="226" y="534"/>
      <point x="276" y="534" type="curve" smooth="yes"/>
      <point x="340" y="534"/>
      <point x="389" y="513"/>
      <point x="421" y="481" type="curve" smooth="yes"/>
      <point x="466" y="436"/>
      <point x="482" y="367"/>
      <point x="482" y="287" type="curve" smooth="yes"/>
      <point x="482" y="0" type="line"/>
      <point x="440" y="0" type="line"/>
    </contour>
    <contour>
      <point x="273" y="256" type="line" smooth="yes"/>
      <point x="196" y="256"/>
      <point x="95" y="249"/>
      <point x="95" y="147" type="curve" smooth="yes"/>
      <point x="95" y="64"/>
      <point x="164" y="29"/>
      <point x="236" y="29" type="curve" smooth="yes"/>
      <point x="333" y="29"/>
      <point x="440" y="77"/>
      <point x="440" y="187" type="curve" smooth="yes"/>
      <point x="440" y="256" type="line"/>
    </contour>
    <contour>
      <point x="258" y="763" type="line"/>
      <point x="334" y="636" type="line"/>
      <point x="296" y="636" type="line"/>
      <point x="208" y="763" type="line"/>
    </contour>
  </outline>
</glyph>
<glyph name="atilde" format="2">
  <advance width="552"/>
  <unicode hex="00E3"/>
  <outline>
    <contour>
      <point x="440" y="81" type="line"/>
      <point x="397" y="24"/>
      <point x="330" y="-6"/>
      <point x="239" y="-7" type="curve"/>
      <point x="161" y="-7"/>
      <point x="53" y="25"/>
      <point x="53" y="142" type="curve" smooth="yes"/>
      <point x="53" y="258"/>
      <point x="146" y="291"/>
      <point x="248" y="291" type="curve" smooth="yes"/>
      <point x="440" y="291" type="line"/>
      <point x="440" y="404"/>
      <point x="398" y="498"/>
      <point x="278" y="498" type="curve" smooth="yes"/>
      <point x="227" y="498"/>
      <point x="163" y="486"/>
      <point x="133" y="432" type="curve"/>
      <point x="86" y="432" type="line"/>
      <point x="120" y="524"/>
      <point x="226" y="534"/>
      <point x="276" y="534" type="curve" smooth="yes"/>
      <point x="340" y="534"/>
      <point x="389" y="513"/>
      <point x="421" y="481" type="curve" smooth="yes"/>
      <point x="466" y="436"/>
      <point x="482" y="367"/>
      <point x="482" y="287" type="curve" smooth="yes"/>
      <point x="482" y="0" type="line"/>
      <point x="440" y="0" type="line"/>
    </contour>
    <contour>
      <point x="273" y="256" type="line" smooth="yes"/>
      <point x="196" y="256"/>
      <point x="95" y="249"/>
      <point x="95" y="147" type="curve" smooth="yes"/>
      <point x="95" y="64"/>
      <point x="164" y="29"/>
      <point x="236" y="29" type="curve" smooth="yes"/>
      <point x="333" y="29"/>
      <point x="440" y="77"/>
      <point x="440" y="187" type="curve" smooth="yes"/>
      <point x="440" y="256" type="line"/>
    </contour>
    <contour>
      <point x="221" y="738" type="curve" smooth="yes"/>
      <point x="283" y="738"/>
      <point x="305" y="662"/>
      <point x="350" y="662" type="curve" smooth="yes"/>
      <point x="390" y="662"/>
      <point x="394" y="701"/>
      <point x="394" y="734" type="curve"/>
      <point x="431" y="734" type="line"/>
      <point x="431" y="675"/>
      <point x="409" y="632"/>
      <point x="348" y="632" type="curve" smooth="yes"/>
      <point x="285" y="632"/>
      <point x="263" y="708"/>
      <point x="218" y="708" type="curve" smooth="yes"/>
      <point x="180" y="708"/>
      <point x="172" y="667"/>
      <point x="175" y="636" type="curve"/>
      <point x="138" y="636" type="line"/>
      <point x="138" y="694"/>
      <point x="158" y="738"/>
    </contour>
  </outline>
</glyph>
<glyph name="adieresis" format="2">
  <advance width="552"/>
  <unicode hex="00E4"/>
  <outline>
    <contour>
      <point x="440" y="81" type="line"/>
      <point x="397" y="24"/>
      <point x="330" y="-6"/>
      <point x="239" y="-7" type="curve"/>
      <point x="161" y="-7"/>
      <point x="53" y="25"/>
      <point x="53" y="142" type="curve" smooth="yes"/>
      <point x="53" y="258"/>
      <point x="146" y="291"/>
      <point x="248" y="291" type="curve" smooth="yes"/>
      <point x="440" y="291" type="line"/>
      <point x="440" y="404"/>
      <point x="398" y="498"/>
      <point x="278" y="498" type="curve" smooth="yes"/>
      <point x="227" y="498"/>
      <point x="163" y="486"/>
      <point x="133" y="432" type="curve"/>
      <point x="86" y="432" type="line"/>
      <point x="120" y="524"/>
      <point x="226" y="534"/>
      <point x="276" y="534" type="curve" smooth="yes"/>
      <point x="340" y="534"/>
      <point x="389" y="513"/>
      <point x="421" y="481" type="curve" smooth="yes"/>
      <point x="466" y="436"/>
      <point x="482" y="367"/>
      <point x="482" y="287" type="curve" smooth="yes"/>
      <point x="482" y="0" type="line"/>
      <point x="440" y="0" type="line"/>
    </contour>
    <contour>
      <point x="273" y="256" type="line" smooth="yes"/>
      <point x="196" y="256"/>
      <point x="95" y="249"/>
      <point x="95" y="147" type="curve" smooth="yes"/>
      <point x="95" y="64"/>
      <point x="164" y="29"/>
      <point x="236" y="29" type="curve" smooth="yes"/>
      <point x="333" y="29"/>
      <point x="440" y="77"/>
      <point x="440" y="187" type="curve" smooth="yes"/>
      <point x="440" y="256" type="line"/>
    </contour>
    <contour>
      <point x="387" y="714" type="curve" smooth="yes"/>
      <point x="412" y="714"/>
      <point x="428" y="698"/>
      <point x="428" y="675" type="curve" smooth="yes"/>
      <point x="428" y="652"/>
      <point x="412" y="636"/>
      <point x="387" y="636" type="curve" smooth="yes"/>
      <point x="363" y="636"/>
      <point x="348" y="654"/>
      <point x="348" y="675" type="curve" smooth="yes"/>
      <point x="348" y="696"/>
      <point x="363" y="714"/>
    </contour>
    <contour>
      <point x="176" y="714" type="curve" smooth="yes"/>
      <point x="201" y="714"/>
      <point x="217" y="698"/>
      <point x="217" y="675" type="curve" smooth="yes"/>
      <point x="217" y="652"/>
      <point x="201" y="636"/>
      <point x="176" y="636" type="curve" smooth="yes"/>
      <point x="152" y="636"/>
      <point x="137" y="654"/>
      <point x="137" y="675" type="curve" smooth="yes"/>
      <point x="137" y="696"/>
      <point x="152" y="714"/>
    </contour>
  </outline>
</glyph>
<glyph name="aring" format="2">
  <advance width="552"/>
  <unicode hex="00E5"/>
  <outline>
    <contour>
      <point x="440" y="81" type="line"/>
      <point x="397" y="24"/>
      <point x="330" y="-6"/>
      <point x="239" y="-7" type="curve"/>
      <point x="161" y="-7"/>
      <point x="53" y="25"/>
      <point x="53" y="142" type="curve" smooth="yes"/>
      <point x="53" y="258"/>
      <point x="146" y="291"/>
      <point x="248" y="291" type="curve" smooth="yes"/>
      <point x="440" y="291" type="line"/>
      <point x="440" y="404"/>
      <point x="398" y="498"/>
      <point x="278" y="498" type="curve" smooth="yes"/>
      <point x="227" y="498"/>
      <point x="163" y="486"/>
      <point x="133" y="432" type="curve"/>
      <point x="86" y="432" type="line"/>
      <point x="120" y="524"/>
      <point x="226" y="534"/>
      <point x="276" y="534" type="curve" smooth="yes"/>
      <point x="340" y="534"/>
      <point x="389" y="513"/>
      <point x="421" y="481" type="curve" smooth="yes"/>
      <point x="466" y="436"/>
      <point x="482" y="367"/>
      <point x="482" y="287" type="curve" smooth="yes"/>
      <point x="482" y="0" type="line"/>
      <point x="440" y="0" type="line"/>
    </contour>
    <contour>
      <point x="273" y="256" type="line" smooth="yes"/>
      <point x="196" y="256"/>
      <point x="95" y="249"/>
      <point x="95" y="147" type="curve" smooth="yes"/>
      <point x="95" y="64"/>
      <point x="164" y="29"/>
      <point x="236" y="29" type="curve" smooth="yes"/>
      <point x="333" y="29"/>
      <point x="440" y="77"/>
      <point x="440" y="187" type="curve" smooth="yes"/>
      <point x="440" y="256" type="line"/>
    </contour>
    <contour>
      <point x="283" y="781" type="curve" smooth="yes"/>
      <point x="335" y="781"/>
      <point x="368" y="745"/>
      <point x="368" y="696" type="curve" smooth="yes"/>
      <point x="368" y="645"/>
      <point x="333" y="616"/>
      <point x="282" y="616" type="curve" smooth="yes"/>
      <point x="231" y="616"/>
      <point x="198" y="647"/>
      <point x="198" y="696" type="curve" smooth="yes"/>
      <point x="198" y="745"/>
      <point x="232" y="781"/>
    </contour>
    <contour>
      <point x="283" y="754" type="curve" smooth="yes"/>
      <point x="248" y="754"/>
      <point x="229" y="730"/>
      <point x="229" y="697" type="curve" smooth="yes"/>
      <point x="229" y="662"/>
      <point x="249" y="642"/>
      <point x="282" y="642" type="curve" smooth="yes"/>
      <point x="317" y="642"/>
      <point x="337" y="662"/>
      <point x="337" y="697" type="curve" smooth="yes"/>
      <point x="337" y="730"/>
      <point x="318" y="754"/>
    </contour>
  </outline>
</glyph>
<glyph name="ae" format="2">
  <advance width="963"/>
  <unicode hex="00E6"/>
  <outline>
    <contour>
      <point x="867" y="287" type="line"/>
      <point x="862" y="400"/>
      <point x="802" y="498"/>
      <point x="679" y="498" type="curve" smooth="yes"/>
      <point x="558" y="498"/>
      <point x="486" y="398"/>
      <point x="481" y="287" type="curve"/>
    </contour>
    <contour>
      <point x="273" y="252" type="line" smooth="yes"/>
      <point x="196" y="252"/>
      <point x="95" y="249"/>
      <point x="95" y="147" type="curve" smooth="yes"/>
      <point x="95" y="62"/>
      <point x="176" y="29"/>
      <point x="250" y="29" type="curve" smooth="yes"/>
      <point x="354" y="29"/>
      <point x="440" y="85"/>
      <point x="440" y="201" type="curve" smooth="yes"/>
      <point x="440" y="252" type="line"/>
    </contour>
    <contour>
      <point x="247" y="-7" type="curve" smooth="yes"/>
      <point x="154" y="-7"/>
      <point x="53" y="37"/>
      <point x="53" y="142" type="curve" smooth="yes"/>
      <point x="53" y="259"/>
      <point x="148" y="287"/>
      <point x="248" y="287" type="curve" smooth="yes"/>
      <point x="440" y="287" type="line"/>
      <point x="440" y="395"/>
      <point x="401" y="498"/>
      <point x="278" y="498" type="curve" smooth="yes"/>
      <point x="222" y="498"/>
      <point x="162" y="484"/>
      <point x="133" y="432" type="curve"/>
      <point x="88" y="432" type="line"/>
      <point x="117" y="509"/>
      <point x="200" y="534"/>
      <point x="276" y="534" type="curve" smooth="yes"/>
      <point x="367" y="534"/>
      <point x="440" y="489"/>
      <point x="467" y="401" type="curve"/>
      <point x="507" y="488"/>
      <point x="587" y="534"/>
      <point x="683" y="534" type="curve" smooth="yes"/>
      <point x="846" y="534"/>
      <point x="909" y="396"/>
      <point x="909" y="252" type="curve"/>
      <point x="480" y="252" type="line"/>
      <point x="480" y="129"/>
      <point x="546" y="29"/>
      <point x="689" y="29" type="curve" smooth="yes"/>
      <point x="748" y="29"/>
      <point x="817" y="49"/>
      <point x="847" y="106" type="curve"/>
      <point x="894" y="106" type="line"/>
      <point x="859" y="26"/>
      <point x="765" y="-7"/>
      <point x="684" y="-7" type="curve" smooth="yes"/>
      <point x="588" y="-7"/>
      <point x="508" y="30"/>
      <point x="465" y="121" type="curve"/>
      <point x="423" y="18"/>
      <point x="338" y="-7"/>
    </contour>
  </outline>
</glyph>
<glyph name="ccedilla" format="2">
  <advance width="551"/>
  <unicode hex="00E7"/>
  <outline>
    <contour>
      <point x="280" y="-79" type="line"/>
      <point x="295" y="-76"/>
      <point x="300" y="-76"/>
      <point x="315" y="-76" type="curve"/>
      <point x="355" y="-77"/>
      <point x="389" y="-101"/>
      <point x="389" y="-153" type="curve" smooth="yes"/>
      <point x="389" y="-232"/>
      <point x="309" y="-256"/>
      <point x="241" y="-248" type="curve"/>
      <point x="241" y="-222" type="line"/>
      <point x="280" y="-225"/>
      <point x="359" y="-220"/>
      <point x="359" y="-151" type="curve" smooth="yes"/>
      <point x="359" y="-112"/>
      <point x="335" y="-100"/>
      <point x="299" y="-100" type="curve" smooth="yes"/>
      <point x="284" y="-100"/>
      <point x="260" y="-103"/>
      <point x="245" y="-108" type="curve"/>
      <point x="276" y="-6" type="line"/>
      <point x="128" y="5"/>
      <point x="53" y="114"/>
      <point x="53" y="262" type="curve" smooth="yes"/>
      <point x="53" y="418"/>
      <point x="139" y="534"/>
      <point x="304" y="534" type="curve" smooth="yes"/>
      <point x="393" y="534"/>
      <point x="466" y="492"/>
      <point x="497" y="408" type="curve"/>
      <point x="451" y="408" type="line"/>
      <point x="428" y="471"/>
      <point x="367" y="498"/>
      <point x="300" y="498" type="curve" smooth="yes"/>
      <point x="161" y="498"/>
      <point x="95" y="393"/>
      <point x="95" y="262" type="curve" smooth="yes"/>
      <point x="95" y="135"/>
      <point x="160" y="29"/>
      <point x="303" y="29" type="curve" smooth="yes"/>
      <point x="374" y="29"/>
      <point x="433" y="55"/>
      <point x="460" y="118" type="curve"/>
      <point x="506" y="118" type="line"/>
      <point x="472" y="35"/>
      <point x="389" y="-7"/>
      <point x="302" y="-7" type="curve"/>
    </contour>
  </outline>
</glyph>
<glyph name="edieresis" format="2">
  <advance width="578"/>
  <unicode hex="00EB"/>
  <outline>
    <contour>
      <point x="95" y="252" type="line"/>
      <point x="100" y="121"/>
      <point x="161" y="29"/>
      <point x="304" y="29" type="curve" smooth="yes"/>
      <point x="362" y="29"/>
      <point x="432" y="49"/>
      <point x="462" y="106" type="curve"/>
      <point x="509" y="106" type="line"/>
      <point x="474" y="26"/>
      <point x="381" y="-7"/>
      <point x="299" y="-7" type="curve" smooth="yes"/>
      <point x="132" y="-7"/>
      <point x="53" y="106"/>
      <point x="53" y="263" type="curve" smooth="yes"/>
      <point x="53" y="412"/>
      <point x="137" y="534"/>
      <point x="298" y="534" type="curve" smooth="yes"/>
      <point x="458" y="534"/>
      <point x="524" y="401"/>
      <point x="524" y="252" type="curve"/>
    </contour>
    <contour>
      <point x="482" y="287" type="line"/>
      <point x="477" y="400"/>
      <point x="418" y="498"/>
      <point x="294" y="498" type="curve" smooth="yes"/>
      <point x="172" y="498"/>
      <point x="101" y="396"/>
      <point x="96" y="287" type="curve"/>
    </contour>
    <contour>
      <point x="398" y="714" type="curve" smooth="yes"/>
      <point x="423" y="714"/>
      <point x="439" y="698"/>
      <point x="439" y="675" type="curve" smooth="yes"/>
      <point x="439" y="652"/>
      <point x="423" y="636"/>
      <point x="398" y="636" type="curve" smooth="yes"/>
      <point x="374" y="636"/>
      <point x="359" y="654"/>
      <point x="359" y="675" type="curve" smooth="yes"/>
      <point x="359" y="696"/>
      <point x="374" y="714"/>
    </contour>
    <contour>
      <point x="187" y="714" type="curve" smooth="yes"/>
      <point x="212" y="714"/>
      <point x="228" y="698"/>
      <point x="228" y="675" type="curve" smooth="yes"/>
      <point x="228" y="652"/>
      <point x="212" y="636"/>
      <point x="187" y="636" type="curve" smooth="yes"/>
      <point x="163" y="636"/>
      <point x="148" y="654"/>
      <point x="148" y="675" type="curve" smooth="yes"/>
      <point x="148" y="696"/>
      <point x="163" y="714"/>
    </contour>
  </outline>
</glyph>
<glyph name="igrave" format="2">
  <advance width="188"/>
  <unicode hex="00EC"/>
  <outline>
    <contour>
      <point x="73" y="527" type="line"/>
      <point x="115" y="527" type="line"/>
      <point x="115" y="0" type="line"/>
      <point x="73" y="0" type="line"/>
    </contour>
    <contour>
      <point x="48" y="763" type="line"/>
      <point x="124" y="636" type="line"/>
      <point x="86" y="636" type="line"/>
      <point x="-2" y="763" type="line"/>
    </contour>
  </outline>
</glyph>
<glyph name="iacute" format="2">
  <advance width="188"/>
  <unicode hex="00ED"/>
  <outline>
    <contour>
      <point x="73" y="527" type="line"/>
      <point x="115" y="527" type="line"/>
      <point x="115" y="0" type="line"/>
      <point x="73" y="0" type="line"/>
    </contour>
    <contour>
      <point x="197" y="763" type="line"/>
      <point x="109" y="636" type="line"/>
      <point x="71" y="636" type="line"/>
      <point x="147" y="763" type="line"/>
    </contour>
  </outline>
</glyph>
<glyph name="icircumflex" format="2">
  <advance width="188"/>
  <unicode hex="00EE"/>
  <outline>
    <contour>
      <point x="73" y="527" type="line"/>
      <point x="115" y="527" type="line"/>
      <point x="115" y="0" type="line"/>
      <point x="73" y="0" type="line"/>
    </contour>
    <contour>
      <point x="178" y="636" type="line"/>
      <point x="93" y="734" type="line"/>
      <point x="11" y="636" type="line"/>
      <point x="-33" y="636" type="line"/>
      <point x="78" y="763" type="line"/>
      <point x="110" y="763" type="line"/>
      <point x="221" y="636" type="line"/>
    </contour>
  </outline>
</glyph>
<glyph name="idieresis" format="2">
  <advance width="188"/>
  <unicode hex="00EF"/>
  <outline>
    <contour>
      <point x="73" y="527" type="line"/>
      <point x="115" y="527" type="line"/>
      <point x="115" y="0" type="line"/>
      <point x="73" y="0" type="line"/>
    </contour>
    <contour>
      <point x="178" y="714" type="curve" smooth="yes"/>
      <point x="203" y="714"/>
      <point x="219" y="698"/>
      <point x="219" y="675" type="curve" smooth="yes"/>
      <point x="219" y="652"/>
      <point x="203" y="636"/>
      <point x="178" y="636" type="curve" smooth="yes"/>
      <point x="154" y="636"/>
      <point x="139" y="654"/>
      <point x="139" y="675" type="curve" smooth="yes"/>
      <point x="139" y="696"/>
      <point x="154" y="714"/>
    </contour>
    <contour>
      <point x="7" y="714" type="curve" smooth="yes"/>
      <point x="32" y="714"/>
      <point x="48" y="698"/>
      <point x="48" y="675" type="curve" smooth="yes"/>
      <point x="48" y="652"/>
      <point x="32" y="636"/>
      <point x="7" y="636" type="curve" smooth="yes"/>
      <point x="-17" y="636"/>
      <point x="-32" y="654"/>
      <point x="-32" y="675" type="curve" smooth="yes"/>
      <point x="-32" y="696"/>
      <point x="-17" y="714"/>
    </contour>
  </outline>
</glyph>
<glyph name="eth" format="2">
  <advance width="548"/>
  <unicode hex="00F0"/>
  <outline>
    <contour>
      <point x="455" y="694" type="line"/>
      <point x="354" y="630" type="line"/>
      <point x="461" y="531"/>
      <point x="493" y="427"/>
      <point x="493" y="280" type="curve" smooth="yes"/>
      <point x="493" y="216"/>
      <point x="483" y="135"/>
      <point x="446" y="82" type="curve" smooth="yes"/>
      <point x="411" y="31"/>
      <point x="356" y="-7"/>
      <point x="275" y="-7" type="curve" smooth="yes"/>
      <point x="135" y="-7"/>
      <point x="53" y="91"/>
      <point x="53" y="227" type="curve" smooth="yes"/>
      <point x="53" y="353"/>
      <point x="132" y="457"/>
      <point x="263" y="457" type="curve" smooth="yes"/>
      <point x="354" y="457"/>
      <point x="425" y="412"/>
      <point x="458" y="327" type="curve"/>
      <point x="451" y="438"/>
      <point x="416" y="540"/>
      <point x="323" y="609" type="curve"/>
      <point x="214" y="534" type="line"/>
      <point x="196" y="561" type="line"/>
      <point x="298" y="627" type="line"/>
      <point x="250" y="658"/>
      <point x="207" y="671"/>
      <point x="152" y="683" type="curve"/>
      <point x="157" y="713" type="line"/>
      <point x="213" y="702"/>
      <point x="277" y="682"/>
      <point x="326" y="647" type="curve"/>
      <point x="437" y="721" type="line"/>
    </contour>
    <contour>
      <point x="272" y="29" type="curve" smooth="yes"/>
      <point x="377" y="29"/>
      <point x="447" y="115"/>
      <point x="447" y="219" type="curve" smooth="yes"/>
      <point x="447" y="327"/>
      <point x="381" y="421"/>
      <point x="264" y="421" type="curve" smooth="yes"/>
      <point x="159" y="421"/>
      <point x="95" y="326"/>
      <point x="95" y="227" type="curve" smooth="yes"/>
      <point x="95" y="124"/>
      <point x="157" y="29"/>
    </contour>
  </outline>
</glyph>
<glyph name="ntilde" format="2">
  <advance width="590"/>
  <unicode hex="00F1"/>
  <outline>
    <contour>
      <point x="73" y="0" type="line"/>
      <point x="73" y="527" type="line"/>
      <point x="115" y="527" type="line"/>
      <point x="115" y="423" type="line"/>
      <point x="162" y="502"/>
      <point x="233" y="534"/>
      <point x="316" y="534" type="curve" smooth="yes"/>
      <point x="468" y="534"/>
      <point x="520" y="425"/>
      <point x="520" y="292" type="curve" smooth="yes"/>
      <point x="520" y="0" type="line"/>
      <point x="478" y="0" type="line"/>
      <point x="478" y="267" type="line" smooth="yes"/>
      <point x="478" y="383"/>
      <point x="454" y="498"/>
      <point x="315" y="498" type="curve" smooth="yes"/>
      <point x="182" y="498"/>
      <point x="115" y="390"/>
      <point x="115" y="268" type="curve" smooth="yes"/>
      <point x="115" y="0" type="line"/>
    </contour>
    <contour>
      <point x="241" y="738" type="curve" smooth="yes"/>
      <point x="303" y="738"/>
      <point x="325" y="662"/>
      <point x="370" y="662" type="curve" smooth="yes"/>
      <point x="410" y="662"/>
      <point x="414" y="701"/>
      <point x="414" y="734" type="curve"/>
      <point x="451" y="734" type="line"/>
      <point x="451" y="675"/>
      <point x="429" y="632"/>
      <point x="368" y="632" type="curve" smooth="yes"/>
      <point x="305" y="632"/>
      <point x="283" y="708"/>
      <point x="238" y="708" type="curve" smooth="yes"/>
      <point x="200" y="708"/>
      <point x="192" y="667"/>
      <point x="195" y="636" type="curve"/>
      <point x="158" y="636" type="line"/>
      <point x="158" y="694"/>
      <point x="178" y="738"/>
    </contour>
  </outline>
</glyph>
<glyph name="ograve" format="2">
  <advance width="605"/>
  <unicode hex="00F2"/>
  <outline>
    <contour>
      <point x="302" y="29" type="curve" smooth="yes"/>
      <point x="445" y="29"/>
      <point x="510" y="131"/>
      <point x="510" y="263" type="curve" smooth="yes"/>
      <point x="510" y="393"/>
      <point x="445" y="498"/>
      <point x="302" y="498" type="curve" smooth="yes"/>
      <point x="158" y="498"/>
      <point x="95" y="393"/>
      <point x="95" y="263" type="curve" smooth="yes"/>
      <point x="95" y="131"/>
      <point x="158" y="29"/>
    </contour>
    <contour>
      <point x="302" y="534" type="curve" smooth="yes"/>
      <point x="466" y="534"/>
      <point x="552" y="421"/>
      <point x="552" y="263" type="curve" smooth="yes"/>
      <point x="552" y="106"/>
      <point x="466" y="-7"/>
      <point x="302" y="-7" type="curve" smooth="yes"/>
      <point x="137" y="-7"/>
      <point x="53" y="106"/>
      <point x="53" y="263" type="curve" smooth="yes"/>
      <point x="53" y="421"/>
      <point x="137" y="534"/>
    </contour>
    <contour>
      <point x="269" y="763" type="line"/>
      <point x="345" y="636" type="line"/>
      <point x="307" y="636" type="line"/>
      <point x="219" y="763" type="line"/>
    </contour>
  </outline>
</glyph>
<glyph name="oacute" format="2">
  <advance width="605"/>
  <unicode hex="00F3"/>
  <outline>
    <contour>
      <point x="302" y="29" type="curve" smooth="yes"/>
      <point x="445" y="29"/>
      <point x="510" y="131"/>
      <point x="510" y="263" type="curve" smooth="yes"/>
      <point x="510" y="393"/>
      <point x="445" y="498"/>
      <point x="302" y="498" type="curve" smooth="yes"/>
      <point x="158" y="498"/>
      <point x="95" y="393"/>
      <point x="95" y="263" type="curve" smooth="yes"/>
      <point x="95" y="131"/>
      <point x="158" y="29"/>
    </contour>
    <contour>
      <point x="302" y="534" type="curve" smooth="yes"/>
      <point x="466" y="534"/>
      <point x="552" y="421"/>
      <point x="552" y="263" type="curve" smooth="yes"/>
      <point x="552" y="106"/>
      <point x="466" y="-7"/>
      <point x="302" y="-7" type="curve" smooth="yes"/>
      <point x="137" y="-7"/>
      <point x="53" y="106"/>
      <point x="53" y="263" type="curve" smooth="yes"/>
      <point x="53" y="421"/>
      <point x="137" y="534"/>
    </contour>
    <contour>
      <point x="400" y="763" type="line"/>
      <point x="312" y="636" type="line"/>
      <point x="274" y="636" type="line"/>
      <point x="350" y="763" type="line"/>
    </contour>
  </outline>
</glyph>
<glyph name="otilde" format="2">
  <advance width="605"/>
  <unicode hex="00F5"/>
  <outline>
    <contour>
      <point x="302" y="29" type="curve" smooth="yes"/>
      <point x="445" y="29"/>
      <point x="510" y="131"/>
      <point x="510" y="263" type="curve" smooth="yes"/>
      <point x="510" y="393"/>
      <point x="445" y="498"/>
      <point x="302" y="498" type="curve" smooth="yes"/>
      <point x="158" y="498"/>
      <point x="95" y="393"/>
      <point x="95" y="263" type="curve" smooth="yes"/>
      <point x="95" y="131"/>
      <point x="158" y="29"/>
    </contour>
    <contour>
      <point x="302" y="534" type="curve" smooth="yes"/>
      <point x="466" y="534"/>
      <point x="552" y="421"/>
      <point x="552" y="263" type="curve" smooth="yes"/>
      <point x="552" y="106"/>
      <point x="466" y="-7"/>
      <point x="302" y="-7" type="curve" smooth="yes"/>
      <point x="137" y="-7"/>
      <point x="53" y="106"/>
      <point x="53" y="263" type="curve" smooth="yes"/>
      <point x="53" y="421"/>
      <point x="137" y="534"/>
    </contour>
    <contour>
      <point x="240" y="738" type="curve" smooth="yes"/>
      <point x="302" y="738"/>
      <point x="324" y="662"/>
      <point x="369" y="662" type="curve" smooth="yes"/>
      <point x="409" y="662"/>
      <point x="413" y="701"/>
      <point x="413" y="734" type="curve"/>
      <point x="450" y="734" type="line"/>
      <point x="450" y="675"/>
      <point x="428" y="632"/>
      <point x="367" y="632" type="curve" smooth="yes"/>
      <point x="304" y="632"/>
      <point x="282" y="708"/>
      <point x="237" y="708" type="curve" smooth="yes"/>
      <point x="199" y="708"/>
      <point x="191" y="667"/>
      <point x="194" y="636" type="curve"/>
      <point x="157" y="636" type="line"/>
      <point x="157" y="694"/>
      <point x="177" y="738"/>
    </contour>
  </outline>
</glyph>
<glyph name="odieresis" format="2">
  <advance width="605"/>
  <unicode hex="00F6"/>
  <outline>
    <contour>
      <point x="302" y="29" type="curve" smooth="yes"/>
      <point x="445" y="29"/>
      <point x="510" y="131"/>
      <point x="510" y="263" type="curve" smooth="yes"/>
      <point x="510" y="393"/>
      <point x="445" y="498"/>
      <point x="302" y="498" type="curve" smooth="yes"/>
      <point x="158" y="498"/>
      <point x="95" y="393"/>
      <point x="95" y="263" type="curve" smooth="yes"/>
      <point x="95" y="131"/>
      <point x="158" y="29"/>
    </contour>
    <contour>
      <point x="302" y="534" type="curve" smooth="yes"/>
      <point x="466" y="534"/>
      <point x="552" y="421"/>
      <point x="552" y="263" type="curve" smooth="yes"/>
      <point x="552" y="106"/>
      <point x="466" y="-7"/>
      <point x="302" y="-7" type="curve" smooth="yes"/>
      <point x="137" y="-7"/>
      <point x="53" y="106"/>
      <point x="53" y="263" type="curve" smooth="yes"/>
      <point x="53" y="421"/>
      <point x="137" y="534"/>
    </contour>
    <contour>
      <point x="407" y="714" type="curve" smooth="yes"/>
      <point x="432" y="714"/>
      <point x="448" y="698"/>
      <point x="448" y="675" type="curve" smooth="yes"/>
      <point x="448" y="652"/>
      <point x="432" y="636"/>
      <point x="407" y="636" type="curve" smooth="yes"/>
      <point x="383" y="636"/>
      <point x="368" y="654"/>
      <point x="368" y="675" type="curve" smooth="yes"/>
      <point x="368" y="696"/>
      <point x="383" y="714"/>
    </contour>
    <contour>
      <point x="196" y="714" type="curve" smooth="yes"/>
      <point x="221" y="714"/>
      <point x="237" y="698"/>
      <point x="237" y="675" type="curve" smooth="yes"/>
      <point x="237" y="652"/>
      <point x="221" y="636"/>
      <point x="196" y="636" type="curve" smooth="yes"/>
      <point x="172" y="636"/>
      <point x="157" y="654"/>
      <point x="157" y="675" type="curve" smooth="yes"/>
      <point x="157" y="696"/>
      <point x="172" y="714"/>
    </contour>
  </outline>
</glyph>
<glyph name="divide" format="2">
  <advance width="459"/>
  <unicode hex="00F7"/>
  <outline>
    <contour>
      <point x="229" y="215" type="curve" smooth="yes"/>
      <point x="254" y="215"/>
      <point x="269" y="199"/>
      <point x="269" y="175" type="curve" smooth="yes"/>
      <point x="269" y="151"/>
      <point x="256" y="134"/>
      <point x="229" y="134" type="curve" smooth="yes"/>
      <point x="204" y="134"/>
      <point x="189" y="151"/>
      <point x="189" y="175" type="curve" smooth="yes"/>
      <point x="189" y="199"/>
      <point x="204" y="215"/>
    </contour>
    <contour>
      <point x="229" y="583" type="curve" smooth="yes"/>
      <point x="254" y="583"/>
      <point x="269" y="567"/>
      <point x="269" y="543" type="curve" smooth="yes"/>
      <point x="269" y="519"/>
      <point x="256" y="502"/>
      <point x="229" y="502" type="curve" smooth="yes"/>
      <point x="204" y="502"/>
      <point x="189" y="519"/>
      <point x="189" y="543" type="curve" smooth="yes"/>
      <point x="189" y="567"/>
      <point x="204" y="583"/>
    </contour>
    <contour>
      <point x="394" y="340" type="line"/>
      <point x="65" y="340" type="line"/>
      <point x="65" y="377" type="line"/>
      <point x="394" y="377" type="line"/>
    </contour>
  </outline>
</glyph>
<glyph name="oslash" format="2">
  <advance width="605"/>
  <unicode hex="00F8"/>
  <outline>
    <contour>
      <point x="122" y="-110" type="line"/>
      <point x="176" y="21" type="line"/>
      <point x="85" y="69"/>
      <point x="53" y="165"/>
      <point x="53" y="263" type="curve" smooth="yes"/>
      <point x="53" y="421"/>
      <point x="136" y="534"/>
      <point x="302" y="534" type="curve" smooth="yes"/>
      <point x="333" y="534"/>
      <point x="361" y="530"/>
      <point x="386" y="522" type="curve"/>
      <point x="434" y="636" type="line"/>
      <point x="483" y="636" type="line"/>
      <point x="428" y="505" type="line"/>
      <point x="519" y="457"/>
      <point x="552" y="360"/>
      <point x="552" y="263" type="curve" smooth="yes"/>
      <point x="552" y="106"/>
      <point x="466" y="-7"/>
      <point x="302" y="-7" type="curve" smooth="yes"/>
      <point x="272" y="-7"/>
      <point x="244" y="-3"/>
      <point x="218" y="4" type="curve"/>
      <point x="171" y="-110" type="line"/>
    </contour>
    <contour>
      <point x="232" y="38" type="line"/>
      <point x="253" y="32"/>
      <point x="276" y="29"/>
      <point x="302" y="29" type="curve" smooth="yes"/>
      <point x="444" y="29"/>
      <point x="510" y="131"/>
      <point x="510" y="263" type="curve" smooth="yes"/>
      <point x="510" y="343"/>
      <point x="485" y="426"/>
      <point x="413" y="469" type="curve"/>
    </contour>
    <contour>
      <point x="372" y="488" type="line"/>
      <point x="352" y="495"/>
      <point x="329" y="498"/>
      <point x="302" y="498" type="curve" smooth="yes"/>
      <point x="161" y="498"/>
      <point x="95" y="395"/>
      <point x="95" y="263" type="curve" smooth="yes"/>
      <point x="95" y="183"/>
      <point x="118" y="99"/>
      <point x="191" y="56" type="curve"/>
    </contour>
  </outline>
</glyph>
<glyph name="ucircumflex" format="2">
  <advance width="569"/>
  <unicode hex="00FB"/>
  <outline>
    <contour>
      <point x="283" y="29" type="curve" smooth="yes"/>
      <point x="412" y="29"/>
      <point x="456" y="108"/>
      <point x="456" y="226" type="curve" smooth="yes"/>
      <point x="456" y="527" type="line"/>
      <point x="498" y="527" type="line"/>
      <point x="498" y="227" type="line" smooth="yes"/>
      <point x="498" y="79"/>
      <point x="436" y="-7"/>
      <point x="283" y="-7" type="curve" smooth="yes"/>
      <point x="134" y="-7"/>
      <point x="71" y="78"/>
      <point x="71" y="227" type="curve" smooth="yes"/>
      <point x="71" y="527" type="line"/>
      <point x="113" y="527" type="line"/>
      <point x="113" y="226" type="line" smooth="yes"/>
      <point x="113" y="113"/>
      <point x="158" y="29"/>
    </contour>
    <contour>
      <point x="367" y="636" type="line"/>
      <point x="282" y="734" type="line"/>
      <point x="200" y="636" type="line"/>
      <point x="156" y="636" type="line"/>
      <point x="267" y="763" type="line"/>
      <point x="299" y="763" type="line"/>
      <point x="410" y="636" type="line"/>
    </contour>
  </outline>
</glyph>
<glyph name="udieresis" format="2">
  <advance width="569"/>
  <unicode hex="00FC"/>
  <outline>
    <contour>
      <point x="283" y="29" type="curve" smooth="yes"/>
      <point x="412" y="29"/>
      <point x="456" y="108"/>
      <point x="456" y="226" type="curve" smooth="yes"/>
      <point x="456" y="527" type="line"/>
      <point x="498" y="527" type="line"/>
      <point x="498" y="227" type="line" smooth="yes"/>
      <point x="498" y="79"/>
      <point x="436" y="-7"/>
      <point x="283" y="-7" type="curve" smooth="yes"/>
      <point x="134" y="-7"/>
      <point x="71" y="78"/>
      <point x="71" y="227" type="curve" smooth="yes"/>
      <point x="71" y="527" type="line"/>
      <point x="113" y="527" type="line"/>
      <point x="113" y="226" type="line" smooth="yes"/>
      <point x="113" y="113"/>
      <point x="158" y="29"/>
    </contour>
    <contour>
      <point x="393" y="714" type="curve" smooth="yes"/>
      <point x="418" y="714"/>
      <point x="434" y="698"/>
      <point x="434" y="675" type="curve" smooth="yes"/>
      <point x="434" y="652"/>
      <point x="418" y="636"/>
      <point x="393" y="636" type="curve" smooth="yes"/>
      <point x="369" y="636"/>
      <point x="354" y="654"/>
      <point x="354" y="675" type="curve" smooth="yes"/>
      <point x="354" y="696"/>
      <point x="369" y="714"/>
    </contour>
    <contour>
      <point x="182" y="714" type="curve" smooth="yes"/>
      <point x="207" y="714"/>
      <point x="223" y="698"/>
      <point x="223" y="675" type="curve" smooth="yes"/>
      <point x="223" y="652"/>
      <point x="207" y="636"/>
      <point x="182" y="636" type="curve" smooth="yes"/>
      <point x="158" y="636"/>
      <point x="143" y="654"/>
      <point x="143" y="675" type="curve" smooth="yes"/>
      <point x="143" y="696"/>
      <point x="158" y="714"/>
    </contour>
  </outline>
</glyph>
<glyph name="thorn" format="2">
  <advance width="609"/>
  <unicode hex="00FE"/>
  <outline>
    <contour>
      <point x="115" y="-206" type="line"/>
      <point x="73" y="-206" type="line"/>
      <point x="73" y="707" type="line"/>
      <point x="115" y="707" type="line"/>
      <point x="115" y="422" type="line"/>
      <point x="166" y="499"/>
      <point x="231" y="534"/>
      <point x="323" y="534" type="curve" smooth="yes"/>
      <point x="483" y="534"/>
      <point x="556" y="406"/>
      <point x="556" y="259" type="curve" smooth="yes"/>
      <point x="556" y="107"/>
      <point x="483" y="-7"/>
      <point x="320" y="-7" type="curve" smooth="yes"/>
      <point x="235" y="-7"/>
      <point x="159" y="21"/>
      <point x="115" y="98" type="curve"/>
    </contour>
    <contour>
      <point x="323" y="29" type="curve" smooth="yes"/>
      <point x="461" y="29"/>
      <point x="514" y="138"/>
      <point x="514" y="262" type="curve" smooth="yes"/>
      <point x="514" y="391"/>
      <point x="457" y="498"/>
      <point x="315" y="498" type="curve" smooth="yes"/>
      <point x="183" y="498"/>
      <point x="113" y="382"/>
      <point x="113" y="262" type="curve" smooth="yes"/>
      <point x="113" y="131"/>
      <point x="184" y="29"/>
    </contour>
  </outline>
</glyph>
<glyph name="ydieresis" format="2">
  <advance width="597"/>
  <unicode hex="00FF"/>
  <outline>
    <contour>
      <point x="524" y="527" type="line"/>
      <point x="524" y="-6" type="line" smooth="yes"/>
      <point x="524" y="-165"/>
      <point x="457" y="-258"/>
      <point x="294" y="-258" type="curve" smooth="yes"/>
      <point x="223" y="-258"/>
      <point x="148" y="-239"/>
      <point x="92" y="-196" type="curve"/>
      <point x="111" y="-160" type="line"/>
      <point x="166" y="-199"/>
      <point x="228" y="-220"/>
      <point x="293" y="-220" type="curve" smooth="yes"/>
      <point x="432" y="-220"/>
      <point x="482" y="-141"/>
      <point x="482" y="-11" type="curve" smooth="yes"/>
      <point x="482" y="107" type="line"/>
      <point x="431" y="8"/>
      <point x="345" y="-8"/>
      <point x="274" y="-8" type="curve" smooth="yes"/>
      <point x="116" y="-8"/>
      <point x="70" y="107"/>
      <point x="70" y="241" type="curve" smooth="yes"/>
      <point x="70" y="527" type="line"/>
      <point x="112" y="527" type="line"/>
      <point x="112" y="267" type="line" smooth="yes"/>
      <point x="112" y="147"/>
      <point x="133" y="29"/>
      <point x="282" y="29" type="curve" smooth="yes"/>
      <point x="430" y="29"/>
      <point x="482" y="146"/>
      <point x="482" y="274" type="curve" smooth="yes"/>
      <point x="482" y="527" type="line"/>
    </contour>
    <contour>
      <point x="402" y="714" type="curve" smooth="yes"/>
      <point x="427" y="714"/>
      <point x="443" y="698"/>
      <point x="443" y="675" type="curve" smooth="yes"/>
      <point x="443" y="652"/>
      <point x="427" y="636"/>
      <point x="402" y="636" type="curve" smooth="yes"/>
      <point x="378" y="636"/>
      <point x="363" y="654"/>
      <point x="363" y="675" type="curve" smooth="yes"/>
      <point x="363" y="696"/>
      <point x="378" y="714"/>
    </contour>
    <contour>
      <point x="191" y="714" type="curve" smooth="yes"/>
      <point x="216" y="714"/>
      <point x="232" y="698"/>
      <point x="232" y="675" type="curve" smooth="yes"/>
      <point x="232" y="652"/>
      <point x="216" y="636"/>
      <point x="191" y="636" type="curve" smooth="yes"/>
      <point x="167" y="636"/>
      <point x="152" y="654"/>
      <point x="152" y="675" type="curve" smooth="yes"/>
      <point x="152" y="696"/>
      <point x="167" y="714"/>
    </contour>
  </outline>
</glyph>
<glyph name="Amacron" format="2">
  <advance width="638"/>
  <unicode hex="0100"/>
  <outline>
    <contour>
      <point x="169" y="857" type="line"/>
      <point x="468" y="857" type="line"/>
      <point x="468" y="822" type="line"/>
      <point x="169" y="822" type="line"/>
    </contour>
    <contour>
      <point x="294" y="707" type="line"/>
      <point x="341" y="707" type="line"/>
      <point x="622" y="0" type="line"/>
      <point x="573" y="0" type="line"/>
      <point x="509" y="163" type="line"/>
      <point x="127" y="163" type="line"/>
      <point x="64" y="0" type="line"/>
      <point x="16" y="0" type="line"/>
    </contour>
    <contour>
      <point x="141" y="200" type="line"/>
      <point x="494" y="200" type="line"/>
      <point x="318" y="657" type="line"/>
    </contour>
  </outline>
</glyph>
<glyph name="Abreve" format="2">
  <advance width="638"/>
  <unicode hex="0102"/>
  <outline>
    <contour>
      <point x="294" y="707" type="line"/>
      <point x="341" y="707" type="line"/>
      <point x="622" y="0" type="line"/>
      <point x="573" y="0" type="line"/>
      <point x="509" y="163" type="line"/>
      <point x="127" y="163" type="line"/>
      <point x="64" y="0" type="line"/>
      <point x="16" y="0" type="line"/>
    </contour>
    <contour>
      <point x="141" y="200" type="line"/>
      <point x="494" y="200" type="line"/>
      <point x="318" y="657" type="line"/>
    </contour>
    <contour>
      <point x="211" y="895" type="line"/>
      <point x="222" y="840"/>
      <point x="266" y="829"/>
      <point x="319" y="829" type="curve" smooth="yes"/>
      <point x="371" y="829"/>
      <point x="416" y="840"/>
      <point x="427" y="895" type="curve"/>
      <point x="466" y="895" type="line"/>
      <point x="455" y="818"/>
      <point x="390" y="796"/>
      <point x="318" y="796" type="curve" smooth="yes"/>
      <point x="245" y="796"/>
      <point x="183" y="817"/>
      <point x="172" y="895" type="curve"/>
    </contour>
  </outline>
</glyph>
<glyph name="abreve" format="2">
  <advance width="552"/>
  <unicode hex="0103"/>
  <outline>
    <contour>
      <point x="440" y="81" type="line"/>
      <point x="397" y="24"/>
      <point x="330" y="-6"/>
      <point x="239" y="-7" type="curve"/>
      <point x="161" y="-7"/>
      <point x="53" y="25"/>
      <point x="53" y="142" type="curve" smooth="yes"/>
      <point x="53" y="258"/>
      <point x="146" y="291"/>
      <point x="248" y="291" type="curve" smooth="yes"/>
      <point x="440" y="291" type="line"/>
      <point x="440" y="404"/>
      <point x="398" y="498"/>
      <point x="278" y="498" type="curve" smooth="yes"/>
      <point x="227" y="498"/>
      <point x="163" y="486"/>
      <point x="133" y="432" type="curve"/>
      <point x="86" y="432" type="line"/>
      <point x="120" y="524"/>
      <point x="226" y="534"/>
      <point x="276" y="534" type="curve" smooth="yes"/>
      <point x="340" y="534"/>
      <point x="389" y="513"/>
      <point x="421" y="481" type="curve" smooth="yes"/>
      <point x="466" y="436"/>
      <point x="482" y="367"/>
      <point x="482" y="287" type="curve" smooth="yes"/>
      <point x="482" y="0" type="line"/>
      <point x="440" y="0" type="line"/>
    </contour>
    <contour>
      <point x="273" y="256" type="line" smooth="yes"/>
      <point x="196" y="256"/>
      <point x="95" y="249"/>
      <point x="95" y="147" type="curve" smooth="yes"/>
      <point x="95" y="64"/>
      <point x="164" y="29"/>
      <point x="236" y="29" type="curve" smooth="yes"/>
      <point x="333" y="29"/>
      <point x="440" y="77"/>
      <point x="440" y="187" type="curve" smooth="yes"/>
      <point x="440" y="256" type="line"/>
    </contour>
    <contour>
      <point x="180" y="735" type="line"/>
      <point x="191" y="680"/>
      <point x="235" y="669"/>
      <point x="288" y="669" type="curve" smooth="yes"/>
      <point x="340" y="669"/>
      <point x="385" y="680"/>
      <point x="396" y="735" type="curve"/>
      <point x="435" y="735" type="line"/>
      <point x="424" y="658"/>
      <point x="359" y="636"/>
      <point x="287" y="636" type="curve" smooth="yes"/>
      <point x="214" y="636"/>
      <point x="152" y="657"/>
      <point x="141" y="735" type="curve"/>
    </contour>
  </outline>
</glyph>
<glyph name="Aogonek" format="2">
  <advance width="638"/>
  <unicode hex="0104"/>
  <outline>
    <contour>
      <point x="141" y="200" type="line"/>
      <point x="494" y="200" type="line"/>
      <point x="318" y="657" type="line"/>
    </contour>
    <contour>
      <point x="679" y="-191" type="line"/>
      <point x="663" y="-198"/>
      <point x="645" y="-201"/>
      <point x="626" y="-201" type="curve" smooth="yes"/>
      <point x="565" y="-201"/>
      <point x="515" y="-172"/>
      <point x="515" y="-105" type="curve" smooth="yes"/>
      <point x="515" y="-66"/>
      <point x="544" y="-20"/>
      <point x="578" y="0" type="curve"/>
      <point x="573" y="0" type="line"/>
      <point x="509" y="163" type="line"/>
      <point x="127" y="163" type="line"/>
      <point x="64" y="0" type="line"/>
      <point x="16" y="0" type="line"/>
      <point x="294" y="707" type="line"/>
      <point x="341" y="707" type="line"/>
      <point x="622" y="0" type="line"/>
      <point x="614" y="0" type="line"/>
      <point x="582" y="-23"/>
      <point x="554" y="-57"/>
      <point x="554" y="-97" type="curve" smooth="yes"/>
      <point x="554" y="-145"/>
      <point x="584" y="-167"/>
      <point x="631" y="-168" type="curve" smooth="yes"/>
      <point x="643" y="-168"/>
      <point x="660" y="-165"/>
      <point x="671" y="-161" type="curve"/>
    </contour>
  </outline>
</glyph>
<glyph name="aogonek" format="2">
  <advance width="552"/>
  <unicode hex="0105"/>
  <outline>
    <contour>
      <point x="273" y="256" type="line" smooth="yes"/>
      <point x="196" y="256"/>
      <point x="95" y="249"/>
      <point x="95" y="147" type="curve" smooth="yes"/>
      <point x="95" y="64"/>
      <point x="164" y="29"/>
      <point x="236" y="29" type="curve" smooth="yes"/>
      <point x="333" y="29"/>
      <point x="440" y="77"/>
      <point x="440" y="187" type="curve" smooth="yes"/>
      <point x="440" y="256" type="line"/>
    </contour>
    <contour>
      <point x="543" y="-191" type="line"/>
      <point x="527" y="-198"/>
      <point x="509" y="-201"/>
      <point x="490" y="-201" type="curve" smooth="yes"/>
      <point x="429" y="-201"/>
      <point x="379" y="-172"/>
      <point x="379" y="-105" type="curve" smooth="yes"/>
      <point x="379" y="-69"/>
      <point x="400" y="-35"/>
      <point x="428" y="-11" type="curve" smooth="yes"/>
      <point x="433" y="-7"/>
      <point x="437" y="-3"/>
      <point x="442" y="0" type="curve"/>
      <point x="440" y="0" type="line"/>
      <point x="440" y="81" type="line"/>
      <point x="397" y="24"/>
      <point x="330" y="-6"/>
      <point x="239" y="-7" type="curve" smooth="yes"/>
      <point x="161" y="-7"/>
      <point x="53" y="25"/>
      <point x="53" y="142" type="curve" smooth="yes"/>
      <point x="53" y="258"/>
      <point x="146" y="291"/>
      <point x="248" y="291" type="curve" smooth="yes"/>
      <point x="440" y="291" type="line"/>
      <point x="440" y="404"/>
      <point x="398" y="498"/>
      <point x="278" y="498" type="curve" smooth="yes"/>
      <point x="227" y="498"/>
      <point x="163" y="486"/>
      <point x="133" y="432" type="curve"/>
      <point x="86" y="432" type="line"/>
      <point x="120" y="524"/>
      <point x="226" y="534"/>
      <point x="276" y="534" type="curve" smooth="yes"/>
      <point x="340" y="534"/>
      <point x="389" y="513"/>
      <point x="421" y="481" type="curve" smooth="yes"/>
      <point x="466" y="436"/>
      <point x="482" y="367"/>
      <point x="482" y="287" type="curve" smooth="yes"/>
      <point x="482" y="0" type="line"/>
      <point x="478" y="0" type="line"/>
      <point x="446" y="-23"/>
      <point x="418" y="-57"/>
      <point x="418" y="-97" type="curve" smooth="yes"/>
      <point x="418" y="-145"/>
      <point x="448" y="-167"/>
      <point x="495" y="-168" type="curve" smooth="yes"/>
      <point x="507" y="-168"/>
      <point x="524" y="-165"/>
      <point x="535" y="-161" type="curve"/>
    </contour>
  </outline>
</glyph>
<glyph name="Cdotaccent" format="2">
  <advance width="699"/>
  <unicode hex="010A"/>
  <outline>
    <contour>
      <point x="383" y="679" type="curve" smooth="yes"/>
      <point x="187" y="679"/>
      <point x="96" y="530"/>
      <point x="96" y="355" type="curve" smooth="yes"/>
      <point x="96" y="178"/>
      <point x="184" y="28"/>
      <point x="378" y="28" type="curve" smooth="yes"/>
      <point x="465" y="28"/>
      <point x="565" y="64"/>
      <point x="602" y="149" type="curve"/>
      <point x="651" y="149" type="line"/>
      <point x="606" y="40"/>
      <point x="491" y="-8"/>
      <point x="376" y="-8" type="curve" smooth="yes"/>
      <point x="155" y="-8"/>
      <point x="54" y="146"/>
      <point x="54" y="353" type="curve" smooth="yes"/>
      <point x="54" y="557"/>
      <point x="160" y="715"/>
      <point x="379" y="715" type="curve" smooth="yes"/>
      <point x="495" y="715"/>
      <point x="598" y="670"/>
      <point x="638" y="558" type="curve"/>
      <point x="594" y="558" type="line"/>
      <point x="555" y="641"/>
      <point x="475" y="679"/>
    </contour>
    <contour>
      <point x="378" y="874" type="curve" smooth="yes"/>
      <point x="401" y="874"/>
      <point x="417" y="860"/>
      <point x="417" y="836" type="curve" smooth="yes"/>
      <point x="417" y="811"/>
      <point x="400" y="796"/>
      <point x="377" y="796" type="curve" smooth="yes"/>
      <point x="354" y="796"/>
      <point x="338" y="809"/>
      <point x="338" y="836" type="curve" smooth="yes"/>
      <point x="338" y="861"/>
      <point x="355" y="874"/>
    </contour>
  </outline>
</glyph>
<glyph name="cdotaccent" format="2">
  <advance width="551"/>
  <unicode hex="010B"/>
  <outline>
    <contour>
      <point x="300" y="-7" type="curve" smooth="yes"/>
      <point x="136" y="-7"/>
      <point x="53" y="106"/>
      <point x="53" y="262" type="curve" smooth="yes"/>
      <point x="53" y="418"/>
      <point x="139" y="534"/>
      <point x="304" y="534" type="curve" smooth="yes"/>
      <point x="393" y="534"/>
      <point x="466" y="492"/>
      <point x="497" y="408" type="curve"/>
      <point x="451" y="408" type="line"/>
      <point x="428" y="471"/>
      <point x="367" y="498"/>
      <point x="300" y="498" type="curve" smooth="yes"/>
      <point x="161" y="498"/>
      <point x="95" y="393"/>
      <point x="95" y="262" type="curve" smooth="yes"/>
      <point x="95" y="135"/>
      <point x="160" y="29"/>
      <point x="303" y="29" type="curve" smooth="yes"/>
      <point x="374" y="29"/>
      <point x="433" y="55"/>
      <point x="460" y="118" type="curve"/>
      <point x="506" y="118" type="line"/>
      <point x="471" y="33"/>
      <point x="389" y="-7"/>
    </contour>
    <contour>
      <point x="302" y="714" type="curve" smooth="yes"/>
      <point x="325" y="714"/>
      <point x="341" y="700"/>
      <point x="341" y="676" type="curve" smooth="yes"/>
      <point x="341" y="651"/>
      <point x="324" y="636"/>
      <point x="301" y="636" type="curve" smooth="yes"/>
      <point x="278" y="636"/>
      <point x="262" y="649"/>
      <point x="262" y="676" type="curve" smooth="yes"/>
      <point x="262" y="701"/>
      <point x="279" y="714"/>
    </contour>
  </outline>
</glyph>
<glyph name="Ccaron" format="2">
  <advance width="699"/>
  <unicode hex="010C"/>
  <outline>
    <contour>
      <point x="383" y="679" type="curve" smooth="yes"/>
      <point x="187" y="679"/>
      <point x="96" y="530"/>
      <point x="96" y="355" type="curve" smooth="yes"/>
      <point x="96" y="178"/>
      <point x="184" y="28"/>
      <point x="378" y="28" type="curve" smooth="yes"/>
      <point x="465" y="28"/>
      <point x="565" y="64"/>
      <point x="602" y="149" type="curve"/>
      <point x="651" y="149" type="line"/>
      <point x="606" y="40"/>
      <point x="491" y="-8"/>
      <point x="376" y="-8" type="curve" smooth="yes"/>
      <point x="155" y="-8"/>
      <point x="54" y="146"/>
      <point x="54" y="353" type="curve" smooth="yes"/>
      <point x="54" y="557"/>
      <point x="160" y="715"/>
      <point x="379" y="715" type="curve" smooth="yes"/>
      <point x="495" y="715"/>
      <point x="598" y="670"/>
      <point x="638" y="558" type="curve"/>
      <point x="594" y="558" type="line"/>
      <point x="555" y="641"/>
      <point x="475" y="679"/>
    </contour>
    <contour>
      <point x="292" y="923" type="line"/>
      <point x="377" y="826" type="line"/>
      <point x="459" y="923" type="line"/>
      <point x="503" y="923" type="line"/>
      <point x="392" y="796" type="line"/>
      <point x="360" y="796" type="line"/>
      <point x="249" y="923" type="line"/>
    </contour>
  </outline>
</glyph>
<glyph name="ccaron" format="2">
  <advance width="551"/>
  <unicode hex="010D"/>
  <outline>
    <contour>
      <point x="300" y="-7" type="curve" smooth="yes"/>
      <point x="136" y="-7"/>
      <point x="53" y="106"/>
      <point x="53" y="262" type="curve" smooth="yes"/>
      <point x="53" y="418"/>
      <point x="139" y="534"/>
      <point x="304" y="534" type="curve" smooth="yes"/>
      <point x="393" y="534"/>
      <point x="466" y="492"/>
      <point x="497" y="408" type="curve"/>
      <point x="451" y="408" type="line"/>
      <point x="428" y="471"/>
      <point x="367" y="498"/>
      <point x="300" y="498" type="curve" smooth="yes"/>
      <point x="161" y="498"/>
      <point x="95" y="393"/>
      <point x="95" y="262" type="curve" smooth="yes"/>
      <point x="95" y="135"/>
      <point x="160" y="29"/>
      <point x="303" y="29" type="curve" smooth="yes"/>
      <point x="374" y="29"/>
      <point x="433" y="55"/>
      <point x="460" y="118" type="curve"/>
      <point x="506" y="118" type="line"/>
      <point x="471" y="33"/>
      <point x="389" y="-7"/>
    </contour>
    <contour>
      <point x="216" y="763" type="line"/>
      <point x="301" y="666" type="line"/>
      <point x="383" y="763" type="line"/>
      <point x="427" y="763" type="line"/>
      <point x="316" y="636" type="line"/>
      <point x="284" y="636" type="line"/>
      <point x="173" y="763" type="line"/>
    </contour>
  </outline>
</glyph>
<glyph name="Dcaron" format="2">
  <advance width="720"/>
  <unicode hex="010E"/>
  <outline>
    <contour>
      <point x="93" y="707" type="line"/>
      <point x="336" y="707" type="line" smooth="yes"/>
      <point x="554" y="707"/>
      <point x="665" y="565"/>
      <point x="665" y="353" type="curve" smooth="yes"/>
      <point x="665" y="145"/>
      <point x="552" y="0"/>
      <point x="336" y="0" type="curve" smooth="yes"/>
      <point x="93" y="0" type="line"/>
    </contour>
    <contour>
      <point x="135" y="669" type="line"/>
      <point x="135" y="38" type="line"/>
      <point x="328" y="38" type="line" smooth="yes"/>
      <point x="522" y="38"/>
      <point x="621" y="166"/>
      <point x="621" y="353" type="curve" smooth="yes"/>
      <point x="621" y="535"/>
      <point x="528" y="669"/>
      <point x="335" y="669" type="curve" smooth="yes"/>
    </contour>
    <contour>
      <point x="252" y="923" type="line"/>
      <point x="337" y="826" type="line"/>
      <point x="419" y="923" type="line"/>
      <point x="463" y="923" type="line"/>
      <point x="352" y="796" type="line"/>
      <point x="320" y="796" type="line"/>
      <point x="209" y="923" type="line"/>
    </contour>
  </outline>
</glyph>
<glyph name="dcaron" format="2">
  <advance width="637"/>
  <unicode hex="010F"/>
  <outline>
    <contour>
      <point x="618" y="713" type="curve" smooth="yes"/>
      <point x="645" y="713"/>
      <point x="662" y="693"/>
      <point x="662" y="658" type="curve" smooth="yes"/>
      <point x="662" y="603"/>
      <point x="632" y="557"/>
      <point x="587" y="532" type="curve"/>
      <point x="572" y="552" type="line"/>
      <point x="595" y="565"/>
      <point x="622" y="594"/>
      <point x="627" y="634" type="curve"/>
      <point x="610" y="628"/>
      <point x="576" y="637"/>
      <point x="576" y="673" type="curve" smooth="yes"/>
      <point x="576" y="696"/>
      <point x="593" y="713"/>
    </contour>
    <contour>
      <point x="494" y="707" type="line"/>
      <point x="536" y="707" type="line"/>
      <point x="536" y="0" type="line"/>
      <point x="494" y="0" type="line"/>
      <point x="494" y="113" type="line"/>
      <point x="446" y="23"/>
      <point x="358" y="-7"/>
      <point x="284" y="-7" type="curve" smooth="yes"/>
      <point x="116" y="-7"/>
      <point x="53" y="118"/>
      <point x="53" y="262" type="curve" smooth="yes"/>
      <point x="53" y="426"/>
      <point x="143" y="534"/>
      <point x="295" y="534" type="curve" smooth="yes"/>
      <point x="364" y="534"/>
      <point x="449" y="506"/>
      <point x="494" y="426" type="curve"/>
    </contour>
    <contour>
      <point x="293" y="498" type="curve" smooth="yes"/>
      <point x="154" y="498"/>
      <point x="95" y="387"/>
      <point x="95" y="265" type="curve" smooth="yes"/>
      <point x="95" y="151"/>
      <point x="133" y="29"/>
      <point x="288" y="29" type="curve" smooth="yes"/>
      <point x="420" y="29"/>
      <point x="496" y="138"/>
      <point x="496" y="266" type="curve" smooth="yes"/>
      <point x="496" y="393"/>
      <point x="429" y="498"/>
    </contour>
  </outline>
</glyph>
<glyph name="Emacron" format="2">
  <advance width="603"/>
  <unicode hex="0112"/>
  <outline>
    <contour>
      <point x="93" y="707" type="line"/>
      <point x="549" y="707" type="line"/>
      <point x="549" y="669" type="line"/>
      <point x="135" y="669" type="line"/>
      <point x="135" y="370" type="line"/>
      <point x="507" y="370" type="line"/>
      <point x="507" y="332" type="line"/>
      <point x="135" y="332" type="line"/>
      <point x="135" y="38" type="line"/>
      <point x="549" y="38" type="line"/>
      <point x="549" y="0" type="line"/>
      <point x="93" y="0" type="line"/>
    </contour>
    <contour>
      <point x="175" y="857" type="line"/>
      <point x="474" y="857" type="line"/>
      <point x="474" y="822" type="line"/>
      <point x="175" y="822" type="line"/>
    </contour>
  </outline>
</glyph>
<glyph name="emacron" format="2">
  <advance width="578"/>
  <unicode hex="0113"/>
  <outline>
    <contour>
      <point x="95" y="252" type="line"/>
      <point x="100" y="121"/>
      <point x="161" y="29"/>
      <point x="304" y="29" type="curve" smooth="yes"/>
      <point x="362" y="29"/>
      <point x="432" y="49"/>
      <point x="462" y="106" type="curve"/>
      <point x="509" y="106" type="line"/>
      <point x="474" y="26"/>
      <point x="381" y="-7"/>
      <point x="299" y="-7" type="curve" smooth="yes"/>
      <point x="132" y="-7"/>
      <point x="53" y="106"/>
      <point x="53" y="263" type="curve" smooth="yes"/>
      <point x="53" y="412"/>
      <point x="137" y="534"/>
      <point x="298" y="534" type="curve" smooth="yes"/>
      <point x="458" y="534"/>
      <point x="524" y="401"/>
      <point x="524" y="252" type="curve"/>
    </contour>
    <contour>
      <point x="482" y="287" type="line"/>
      <point x="477" y="400"/>
      <point x="418" y="498"/>
      <point x="294" y="498" type="curve" smooth="yes"/>
      <point x="172" y="498"/>
      <point x="101" y="396"/>
      <point x="96" y="287" type="curve"/>
    </contour>
    <contour>
      <point x="143" y="697" type="line"/>
      <point x="442" y="697" type="line"/>
      <point x="442" y="662" type="line"/>
      <point x="143" y="662" type="line"/>
    </contour>
  </outline>
</glyph>
<glyph name="Ebreve" format="2">
  <advance width="603"/>
  <unicode hex="0114"/>
  <outline>
    <contour>
      <point x="93" y="707" type="line"/>
      <point x="549" y="707" type="line"/>
      <point x="549" y="669" type="line"/>
      <point x="135" y="669" type="line"/>
      <point x="135" y="370" type="line"/>
      <point x="507" y="370" type="line"/>
      <point x="507" y="332" type="line"/>
      <point x="135" y="332" type="line"/>
      <point x="135" y="38" type="line"/>
      <point x="549" y="38" type="line"/>
      <point x="549" y="0" type="line"/>
      <point x="93" y="0" type="line"/>
    </contour>
    <contour>
      <point x="218" y="895" type="line"/>
      <point x="229" y="840"/>
      <point x="273" y="829"/>
      <point x="326" y="829" type="curve" smooth="yes"/>
      <point x="378" y="829"/>
      <point x="423" y="840"/>
      <point x="434" y="895" type="curve"/>
      <point x="473" y="895" type="line"/>
      <point x="462" y="818"/>
      <point x="397" y="796"/>
      <point x="325" y="796" type="curve" smooth="yes"/>
      <point x="252" y="796"/>
      <point x="190" y="817"/>
      <point x="179" y="895" type="curve"/>
    </contour>
  </outline>
</glyph>
<glyph name="Edotaccent" format="2">
  <advance width="603"/>
  <unicode hex="0116"/>
  <outline>
    <contour>
      <point x="93" y="707" type="line"/>
      <point x="549" y="707" type="line"/>
      <point x="549" y="669" type="line"/>
      <point x="135" y="669" type="line"/>
      <point x="135" y="370" type="line"/>
      <point x="507" y="370" type="line"/>
      <point x="507" y="332" type="line"/>
      <point x="135" y="332" type="line"/>
      <point x="135" y="38" type="line"/>
      <point x="549" y="38" type="line"/>
      <point x="549" y="0" type="line"/>
      <point x="93" y="0" type="line"/>
    </contour>
    <contour>
      <point x="326" y="874" type="curve" smooth="yes"/>
      <point x="349" y="874"/>
      <point x="365" y="860"/>
      <point x="365" y="836" type="curve" smooth="yes"/>
      <point x="365" y="811"/>
      <point x="348" y="796"/>
      <point x="325" y="796" type="curve" smooth="yes"/>
      <point x="302" y="796"/>
      <point x="286" y="809"/>
      <point x="286" y="836" type="curve" smooth="yes"/>
      <point x="286" y="861"/>
      <point x="303" y="874"/>
    </contour>
  </outline>
</glyph>
<glyph name="Eogonek" format="2">
  <advance width="603"/>
  <unicode hex="0118"/>
  <outline>
    <contour>
      <point x="426" y="-191" type="line"/>
      <point x="410" y="-198"/>
      <point x="392" y="-201"/>
      <point x="373" y="-201" type="curve" smooth="yes"/>
      <point x="312" y="-201"/>
      <point x="262" y="-172"/>
      <point x="262" y="-105" type="curve" smooth="yes"/>
      <point x="262" y="-66"/>
      <point x="291" y="-20"/>
      <point x="325" y="0" type="curve"/>
      <point x="93" y="0" type="line"/>
      <point x="93" y="707" type="line"/>
      <point x="549" y="707" type="line"/>
      <point x="549" y="669" type="line"/>
      <point x="135" y="669" type="line"/>
      <point x="135" y="370" type="line"/>
      <point x="507" y="370" type="line"/>
      <point x="507" y="332" type="line"/>
      <point x="135" y="332" type="line"/>
      <point x="135" y="38" type="line"/>
      <point x="549" y="38" type="line"/>
      <point x="549" y="0" type="line"/>
      <point x="361" y="0" type="line"/>
      <point x="329" y="-23"/>
      <point x="301" y="-57"/>
      <point x="301" y="-97" type="curve" smooth="yes"/>
      <point x="301" y="-145"/>
      <point x="331" y="-167"/>
      <point x="378" y="-168" type="curve" smooth="yes"/>
      <point x="390" y="-168"/>
      <point x="407" y="-165"/>
      <point x="418" y="-161" type="curve"/>
    </contour>
  </outline>
</glyph>
<glyph name="eogonek" format="2">
  <advance width="578"/>
  <unicode hex="0119"/>
  <outline>
    <contour>
      <point x="400" y="-191" type="line"/>
      <point x="384" y="-198"/>
      <point x="366" y="-201"/>
      <point x="347" y="-201" type="curve" smooth="yes"/>
      <point x="286" y="-201"/>
      <point x="236" y="-172"/>
      <point x="236" y="-105" type="curve" smooth="yes"/>
      <point x="236" y="-62"/>
      <point x="261" y="-28"/>
      <point x="289" y="-7" type="curve"/>
      <point x="251" y="-6"/>
      <point x="218" y="1"/>
      <point x="190" y="13" type="curve" smooth="yes"/>
      <point x="98" y="53"/>
      <point x="53" y="144"/>
      <point x="53" y="263" type="curve" smooth="yes"/>
      <point x="53" y="412"/>
      <point x="137" y="534"/>
      <point x="298" y="534" type="curve" smooth="yes"/>
      <point x="458" y="534"/>
      <point x="524" y="401"/>
      <point x="524" y="252" type="curve"/>
      <point x="95" y="252" type="line"/>
      <point x="100" y="121"/>
      <point x="161" y="29"/>
      <point x="304" y="29" type="curve" smooth="yes"/>
      <point x="362" y="29"/>
      <point x="432" y="49"/>
      <point x="462" y="106" type="curve"/>
      <point x="509" y="106" type="line"/>
      <point x="478" y="34"/>
      <point x="401" y="2"/>
      <point x="328" y="-5" type="curve"/>
      <point x="300" y="-29"/>
      <point x="275" y="-58"/>
      <point x="275" y="-97" type="curve" smooth="yes"/>
      <point x="275" y="-145"/>
      <point x="305" y="-167"/>
      <point x="352" y="-168" type="curve" smooth="yes"/>
      <point x="364" y="-168"/>
      <point x="381" y="-165"/>
      <point x="392" y="-161" type="curve"/>
    </contour>
    <contour>
      <point x="482" y="287" type="line"/>
      <point x="477" y="400"/>
      <point x="418" y="498"/>
      <point x="294" y="498" type="curve" smooth="yes"/>
      <point x="172" y="498"/>
      <point x="101" y="396"/>
      <point x="96" y="287" type="curve"/>
    </contour>
  </outline>
</glyph>
